<?xml version="1.0" encoding="utf-8"?>
<svg xmlns="http://www.w3.org/2000/svg" style="fill-rule:evenodd;clip-rule:evenodd;stroke-linejoin:round;stroke-miterlimit:2" xml:space="preserve" viewBox="0 0 1674 429">
	<title>Four bars of music without lyrics for voice.</title>
	<path d="M0 34.549 1673.57 34.549 1673.57 37.279 0 37.279ZM0 59.353 1673.57 59.353 1673.57 62.083 0 62.083ZM0 84.156 1673.57 84.156 1673.57 86.886 0 86.886ZM0 108.959 1673.57 108.959 1673.57 111.689 0 111.689ZM0 133.762 1673.57 133.762 1673.57 136.492 0 136.492ZM.001 287.089 1105.34 287.089 1105.34 289.402.001 289.402ZM.001 311.888 1105.34 311.888 1105.34 314.201.001 314.201ZM.001 336.688 1105.34 336.688 1105.34 339.001.001 339.001ZM.001 361.498 1105.34 361.498 1105.34 363.811.001 363.811ZM.001 386.298 1105.34 386.298 1105.34 388.611.001 388.611Z"/>
	<path d="M1087.55 286.881 1092.01 286.881 1092.01 388.818 1087.55 388.818ZM1101.2 286.881 1105.66 286.881 1105.66 388.818 1101.2 388.818ZM636.59 286.881 641.05 286.881 641.05 388.818 636.59 388.818Z"/>
	<path d="M 762.628 364.641 C 763.223 364.541 763.719 363.847 763.719 363.252 L 763.719 357.398 C 763.719 356.406 763.024 356.009 762.132 356.009 L 758.858 356.704 L 758.858 341.921 L 756.08 341.921 L 756.08 357.299 L 747.25 359.085 L 747.25 345.096 L 744.472 345.096 L 744.472 359.68 L 740.602 360.474 C 740.007 360.573 739.511 361.267 739.511 361.863 L 739.511 367.617 C 739.511 368.708 740.305 369.006 741.198 369.006 L 744.472 368.312 L 744.472 384.682 L 740.602 385.475 C 740.007 385.575 739.511 386.269 739.511 386.864 L 739.511 392.619 C 739.511 393.71 740.305 394.008 741.198 394.008 L 744.472 393.313 L 744.472 408.096 L 747.25 408.096 L 747.25 392.718 L 756.08 390.932 L 756.08 404.921 L 758.858 404.921 L 758.858 390.337 L 762.628 389.642 C 763.223 389.543 763.719 388.849 763.719 388.253 L 763.719 382.4 C 763.719 381.408 763.024 381.011 762.132 381.011 L 758.858 381.705 L 758.858 365.335 Z M 747.25 367.716 L 756.08 365.93 L 756.08 382.301 L 747.25 384.186 Z" style="fill-rule:nonzero"/>
	<path d="M 799.425 288.246 L 802.155 288.246 L 802.155 371.088 L 799.425 371.088 Z"/>
	<path d="M791.05 361.962C781.427 361.962 769.918 369.998 769.918 379.225 769.918 383.491 772.994 388.253 781.03 388.253 791.348 388.253 802.162 379.82 802.162 371.089 802.162 365.236 797.202 361.962 791.05 361.962M777.359 383.59C774.085 383.59 773.39 380.912 773.39 380.019 773.39 375.157 790.058 366.625 794.721 366.625 797.102 366.625 798.69 368.014 798.69 370.197 798.69 375.157 781.923 383.59 777.359 383.59M463.931 356.904C463.931 367.519 472.463 374.861 480.797 379.822 480.996 379.921 481.095 380.119 481.392 380.119 482.087 380.119 482.682 379.524 482.682 378.83L483.079 319.103C483.079 318.409 482.484 317.814 481.789 317.814L480.996 317.814C480.301 317.814 479.706 318.409 479.706 319.103L479.904 350.653C479.309 349.86 477.126 347.677 472.563 347.677 467.602 347.677 463.931 350.752 463.931 356.904M474.15 352.042C478.515 352.042 479.904 354.721 479.904 355.614 479.904 355.812 480.004 355.614 480.004 355.316L480.103 374.96C474.348 370.099 470.281 365.436 470.281 357.499 470.281 355.415 470.578 352.042 474.15 352.042" style="fill-rule:nonzero"/>
	<path d="M 518.784 276.042 L 521.514 276.042 L 521.514 358.688 L 518.784 358.688 Z"/>
	<path d="M489.277 366.825C489.277 371.091 492.353 375.853 500.389 375.853 510.707 375.853 521.521 367.42 521.521 358.689 521.521 352.836 516.561 349.562 510.409 349.562 500.786 349.562 489.277 357.697 489.277 366.825M518.785 298.365C518.785 298.663 518.884 299.258 519.579 299.457 523.845 300.846 532.377 306.203 538.826 317.216 540.612 320.291 543.489 324.558 543.489 332.792 543.489 339.936 541.703 347.277 539.024 354.421 538.826 355.016 538.727 355.512 538.727 355.909 538.727 356.603 539.124 356.901 539.818 356.901 540.413 356.901 540.909 356.504 541.306 355.81 545.771 347.873 547.458 338.646 547.458 329.617 546.961 316.819 539.62 307.394 539.62 307.394 539.917 307.394 530.492 295.191 527.813 291.024 524.143 285.368 522.456 279.713 522.257 279.316 522.158 279.019 521.265 275.447 521.265 275.447 521.166 275.05 520.67 274.653 520.075 274.653 519.38 274.653 518.785 275.249 518.785 275.943Z" style="fill-rule:nonzero"/>
	<path d="M174.846 263.442 177.576 263.442 177.576 333.888 174.846 333.888ZM336.412 275.844 339.142 275.844 339.142 358.688 336.412 358.688Z"/>
	<path d="M306.905 366.825C306.905 371.091 309.981 375.853 318.017 375.853 328.335 375.853 339.149 367.42 339.149 358.689 339.149 352.836 334.189 349.562 328.037 349.562 318.414 349.562 306.905 357.697 306.905 366.825M351.543 350.258C351.543 353.036 353.726 355.219 356.504 355.219 359.282 355.219 361.464 353.036 361.464 350.258 361.464 347.48 359.282 345.297 356.504 345.297 353.726 345.297 351.543 347.48 351.543 350.258M166.471 324.752C156.848 324.752 145.339 332.788 145.339 342.015 145.339 346.281 148.415 351.043 156.451 351.043 166.769 351.043 177.583 342.61 177.583 333.879 177.583 328.026 172.623 324.752 166.471 324.752M152.78 346.38C149.506 346.38 148.811 343.702 148.811 342.809 148.811 337.947 165.479 329.415 170.142 329.415 172.523 329.415 174.111 330.804 174.111 332.987 174.111 337.947 157.344 346.38 152.78 346.38M32.046 413.554C32.046 420.102 37.007 428.734 50.401 428.734 55.064 428.734 59.131 427.543 62.703 425.361 68.061 421.591 69.45 415.042 69.45 408.792 69.45 404.923 68.854 400.458 67.862 394.803 67.565 392.819 66.969 389.842 66.374 385.973 76.097 382.798 83.339 372.679 83.339 362.46 83.339 347.478 72.724 337.359 58.238 337.359 57.246 331.406 56.254 325.552 55.461 319.996 65.878 308.984 73.12 296.582 73.12 280.807 73.12 271.779 70.342 264.437 68.755 260.865 66.374 255.806 63.497 252.333 61.711 252.333 61.016 252.333 57.941 253.524 54.667 257.393 48.317 264.933 46.531 277.632 46.531 285.966 46.531 291.324 47.027 296.185 48.714 307.297 48.615 307.396 43.456 312.655 41.372 314.341 32.344 322.675 19.843 334.779 19.843 354.622 19.843 373.175 36.015 387.759 54.468 387.759 57.346 387.759 60.024 387.461 62.306 387.064 64.191 396.589 65.382 403.534 65.382 408.792 65.382 419.11 60.024 424.567 50.004 424.567 47.623 424.567 45.539 424.071 45.341 424.071 45.242 423.972 45.043 423.872 45.043 423.773 45.043 423.575 45.242 423.476 45.539 423.476 50.202 422.682 54.865 418.713 54.865 412.364 54.865 407.006 50.798 401.351 43.357 401.351 36.412 401.351 32.046 407.006 32.046 413.554M52.782 281.105C53.675 277.136 58.238 266.719 63.398 266.719 64.886 266.719 67.267 271.481 67.267 278.426 67.267 288.744 59.627 296.483 52.782 303.229 52.186 299.261 51.69 295.392 51.69 291.225 51.69 287.554 51.988 284.181 52.782 281.105M61.513 383.096C59.528 383.493 57.643 383.691 55.758 383.691 41.571 383.691 29.467 373.77 29.467 358.789 29.467 346.685 37.999 335.87 46.73 328.33 48.416 326.842 50.004 325.453 51.492 323.965 52.385 329.322 53.079 333.985 53.774 338.053 44.746 340.732 38.594 350.256 38.594 359.582 38.594 366.527 44.051 376.052 51.988 376.052 52.782 376.052 53.675 375.655 53.675 374.762 53.675 373.869 52.683 373.373 51.492 372.579 47.623 370.198 45.44 367.619 45.44 362.757 45.44 356.705 50.004 351.844 55.758 350.455ZM75.601 364.741C75.601 371.786 72.724 379.028 65.679 381.905 63.596 370 60.917 354.225 60.223 349.86 69.152 349.86 75.601 355.912 75.601 364.741M933.26 336.856C933.26 338.245 933.26 338.245 934.649 338.245L964.115 338.245C965.504 338.245 965.504 338.245 965.504 336.856L965.504 326.141C965.504 324.752 965.504 324.752 964.115 324.752L934.649 324.752C933.26 324.752 933.26 324.752 933.26 326.141Z" style="fill-rule:nonzero"/>
	<path d="M 1669.11 34.55 L 1673.57 34.55 L 1673.57 136.491 L 1669.11 136.491 Z M 1094.37 34.55 L 1098.83 34.55 L 1098.83 136.491 L 1094.37 136.491 Z M 636.59 34.55 L 641.05 34.55 L 641.05 136.491 L 636.59 136.491 Z"/>
	<path d="M481.799 32.938C476.838 32.938 473.961 36.014 473.465 36.609L473.862 4.761C473.862 3.968 473.266 3.373 472.473 3.373L471.282 3.373C470.488 3.373 469.893 3.968 469.893 4.761L470.389 64.388C470.389 65.182 470.984 65.778 471.778 65.778 471.976 65.778 472.373 65.678 472.572 65.579 481.104 61.313 490.033 53.177 490.033 42.959 490.033 37.799 487.652 32.938 481.799 32.938M473.167 60.916 473.465 41.57C473.663 40.677 475.151 37.799 479.12 37.799 482.691 37.799 482.989 41.173 482.989 43.256 482.989 52.086 479.715 55.757 473.167 60.916M1407.92 42.562C1407.92 53.177 1416.45 60.519 1424.79 65.48 1424.98 65.579 1425.08 65.778 1425.38 65.778 1426.08 65.778 1426.67 65.182 1426.67 64.488L1427.07 4.761C1427.07 4.067 1426.47 3.472 1425.78 3.472L1424.98 3.472C1424.29 3.472 1423.69 4.067 1423.69 4.761L1423.89 36.311C1423.3 35.518 1421.12 33.335 1416.55 33.335 1411.59 33.335 1407.92 36.41 1407.92 42.562M1418.14 37.7C1422.5 37.7 1423.89 40.379 1423.89 41.272 1423.89 41.47 1423.99 41.272 1423.99 40.974L1424.09 60.618C1418.34 55.757 1414.27 51.094 1414.27 43.157 1414.27 41.074 1414.57 37.7 1418.14 37.7" style="fill-rule:nonzero"/>
	<path d="M 1433.27 52.483 L 1436 52.483 L 1436 135.028 L 1433.27 135.028 Z"/>
	<path d="M 1433.26 52.4829 C 1433.26 56.7491 1436.34 61.5113 1444.37 61.5113 C 1454.69 61.5113 1465.5 53.0782 1465.5 44.3475 C 1465.5 38.4939 1460.54 35.2199 1454.39 35.2199 C 1444.77 35.2199 1433.26 43.3554 1433.26 52.4829" style="fill-rule:nonzero"/>
	<path d="M1433.26 135.028C1433.26 135.722 1433.86 136.318 1434.55 136.318 1435.05 136.318 1435.64 135.921 1435.74 135.524 1435.74 135.425 1436.63 131.952 1436.73 131.655 1436.83 131.258 1437.72 127.488 1441.3 121.634 1445.17 115.185 1451.12 110.522 1456.08 103.577 1461.04 96.632 1463.92 90.084 1463.92 81.354 1463.92 72.325 1461.93 64.785 1456.58 55.161 1456.28 54.467 1455.68 54.07 1455.09 54.07 1454.89 54.07 1454.69 54.07 1454.59 54.169 1454.09 54.368 1453.9 54.765 1453.9 55.36 1453.9 55.657 1454 56.054 1454.19 56.55 1458.16 65.777 1459.75 71.035 1459.75 78.179 1459.75 86.413 1456.87 90.68 1455.09 93.755 1448.64 104.768 1438.22 110.125 1434.05 111.514 1433.36 111.713 1433.26 112.308 1433.26 112.606ZM1551.04 32.938C1546.07 32.938 1543.2 36.014 1542.7 36.609L1543.1 4.761C1543.1 3.968 1542.5 3.373 1541.71 3.373L1540.52 3.373C1539.73 3.373 1539.13 3.968 1539.13 4.761L1539.63 64.388C1539.63 65.182 1540.22 65.778 1541.02 65.778 1541.21 65.778 1541.61 65.678 1541.81 65.579 1550.34 61.313 1559.27 53.177 1559.27 42.959 1559.27 37.799 1556.89 32.938 1551.04 32.938M1542.4 60.916 1542.7 41.57C1542.9 40.677 1544.39 37.799 1548.36 37.799 1551.93 37.799 1552.23 41.173 1552.23 43.256 1552.23 52.086 1548.95 55.757 1542.4 60.916" style="fill-rule:nonzero"/>
	<path d="M 1565.48 52.483 L 1568.21 52.483 L 1568.21 135.127 L 1565.48 135.127 Z"/>
	<path d="M1565.47 52.483C1565.47 56.749 1568.55 61.511 1576.58 61.511 1586.9 61.511 1597.71 53.078 1597.71 44.348 1597.71 38.494 1592.75 35.22 1586.6 35.22 1576.98 35.22 1565.47 43.355 1565.47 52.483M330.529 42.562C330.529 53.177 339.061 60.519 347.395 65.48 347.594 65.579 347.693 65.778 347.99 65.778 348.685 65.778 349.28 65.182 349.28 64.488L349.677 4.761C349.677 4.067 349.082 3.472 348.387 3.472L347.594 3.472C346.899 3.472 346.304 4.067 346.304 4.761L346.502 36.311C345.907 35.518 343.724 33.335 339.161 33.335 334.2 33.335 330.529 36.41 330.529 42.562M340.748 37.7C345.113 37.7 346.502 40.379 346.502 41.272 346.502 41.47 346.602 41.272 346.602 40.974L346.701 60.618C340.946 55.757 336.879 51.094 336.879 43.157 336.879 41.074 337.176 37.7 340.748 37.7" style="fill-rule:nonzero"/>
	<path d="M 769.917 89.688 L 772.647 89.688 L 772.647 159.93 L 769.917 159.93 Z"/>
	<path d="M 791.05 72.4249 C 781.427 72.4249 769.918 80.4611 769.918 89.6879 C 769.918 93.9541 772.994 98.7163 781.03 98.7163 C 791.348 98.7163 802.162 90.2832 802.162 81.5525 C 802.162 75.6989 797.202 72.4249 791.05 72.4249 M 777.359 94.0533 C 774.085 94.0533 773.39 91.3746 773.39 90.4817 C 773.39 85.6202 790.058 77.0879 794.721 77.0879 C 797.102 77.0879 798.69 78.4769 798.69 80.6596 C 798.69 85.6202 781.923 94.0533 777.359 94.0533" style="fill-rule:nonzero"/>
	<path d="M145.338 52.483 148.068 52.483 148.068 135.127 145.338 135.127ZM496.23 52.483 498.96 52.483 498.96 135.127 496.23 135.127ZM1199.74 17.51 1202.47 17.51 1202.47 93.954 1199.74 93.954Z"/>
	<path d="M1170.23 102.089C1170.23 106.355 1173.31 111.117 1181.34 111.117 1191.66 111.117 1202.47 102.684 1202.47 93.954 1202.47 88.1 1197.51 84.826 1191.36 84.826 1181.74 84.826 1170.23 92.961 1170.23 102.089M1199.74 39.833C1199.74 40.131 1199.84 40.726 1200.53 40.925 1204.8 42.314 1213.33 47.671 1219.78 58.684 1221.57 61.759 1224.44 66.026 1224.44 74.26 1224.44 81.404 1222.66 88.745 1219.98 95.889 1219.78 96.484 1219.68 96.98 1219.68 97.377 1219.68 98.071 1220.08 98.369 1220.77 98.369 1221.37 98.369 1221.86 97.972 1222.26 97.278 1226.73 89.341 1228.41 80.114 1228.41 71.085 1227.92 58.287 1220.57 48.862 1220.57 48.862 1220.87 48.862 1211.45 36.659 1208.77 32.492 1205.1 26.836 1203.41 21.181 1203.21 20.785 1203.11 20.487 1202.22 16.915 1202.22 16.915 1202.12 16.518 1201.63 16.121 1201.03 16.121 1200.34 16.121 1199.74 16.717 1199.74 17.411Z" style="fill-rule:nonzero"/>
	<path d="M 1302.04 52.483 L 1304.77 52.483 L 1304.77 135.127 L 1302.04 135.127 Z"/>
	<path d="M 1323.17 35.2199 C 1313.55 35.2199 1302.04 43.2561 1302.04 52.4829 C 1302.04 56.7491 1305.12 61.5113 1313.15 61.5113 C 1323.47 61.5113 1334.28 53.0782 1334.28 44.3475 C 1334.28 38.4939 1329.32 35.2199 1323.17 35.2199 M 1309.48 56.8483 C 1306.21 56.8483 1305.51 54.1696 1305.51 53.2767 C 1305.51 48.4152 1322.18 39.8829 1326.84 39.8829 C 1329.22 39.8829 1330.81 41.2719 1330.81 43.4546 C 1330.81 48.4152 1314.04 56.8483 1309.48 56.8483" style="fill-rule:nonzero"/>
	<path d="M 355.874 52.483 L 358.604 52.483 L 358.604 135.127 L 355.874 135.127 Z"/>
	<path d="M496.231 52.483C496.231 56.749 499.307 61.511 507.343 61.511 517.661 61.511 528.475 53.078 528.475 44.348 528.475 38.494 523.515 35.22 517.363 35.22 507.74 35.22 496.231 43.355 496.231 52.483M355.874 52.483C355.874 56.749 358.95 61.511 366.986 61.511 377.304 61.511 388.118 53.078 388.118 44.348 388.118 38.494 383.158 35.22 377.006 35.22 367.383 35.22 355.874 43.355 355.874 52.483M166.471 35.22C156.848 35.22 145.339 43.256 145.339 52.483 145.339 56.749 148.415 61.511 156.451 61.511 166.769 61.511 177.583 53.078 177.583 44.348 177.583 38.494 172.623 35.22 166.471 35.22M152.78 56.848C149.506 56.848 148.811 54.17 148.811 53.277 148.811 48.415 165.479 39.883 170.142 39.883 172.523 39.883 174.111 41.272 174.111 43.455 174.111 48.415 157.344 56.848 152.78 56.848M32.046 161.22C32.046 167.768 37.007 176.4 50.401 176.4 55.064 176.4 59.131 175.209 62.703 173.027 68.061 169.257 69.45 162.708 69.45 156.458 69.45 152.589 68.854 148.124 67.862 142.469 67.565 140.485 66.969 137.508 66.374 133.639 76.097 130.464 83.339 120.345 83.339 110.126 83.339 95.144 72.724 85.025 58.238 85.025 57.246 79.072 56.254 73.218 55.461 67.662 65.878 56.65 73.12 44.248 73.12 28.473 73.12 19.445 70.342 12.103 68.755 8.531 66.374 3.472 63.497-.001 61.711-.001 61.016-.001 57.941 1.19 54.667 5.059 48.317 12.599 46.531 25.299 46.531 33.632 46.531 38.99 47.027 43.851 48.714 54.963 48.615 55.062 43.456 60.321 41.372 62.007 32.344 70.341 19.843 82.445 19.843 102.288 19.843 120.841 36.015 135.425 54.468 135.425 57.346 135.425 60.024 135.127 62.306 134.73 64.191 144.255 65.382 151.2 65.382 156.458 65.382 166.776 60.024 172.233 50.004 172.233 47.623 172.233 45.539 171.737 45.341 171.737 45.242 171.638 45.043 171.538 45.043 171.439 45.043 171.241 45.242 171.142 45.539 171.142 50.202 170.348 54.865 166.379 54.865 160.03 54.865 154.672 50.798 149.017 43.357 149.017 36.412 149.017 32.046 154.672 32.046 161.22M52.782 28.771C53.675 24.802 58.238 14.385 63.398 14.385 64.886 14.385 67.267 19.147 67.267 26.092 67.267 36.41 59.627 44.149 52.782 50.895 52.186 46.927 51.69 43.058 51.69 38.891 51.69 35.22 51.988 31.847 52.782 28.771M61.513 130.762C59.528 131.159 57.643 131.357 55.758 131.357 41.571 131.357 29.467 121.436 29.467 106.455 29.467 94.351 37.999 83.537 46.73 75.996 48.416 74.508 50.004 73.119 51.492 71.631 52.385 76.988 53.079 81.651 53.774 85.719 44.746 88.398 38.594 97.922 38.594 107.248 38.594 114.193 44.051 123.718 51.988 123.718 52.782 123.718 53.675 123.321 53.675 122.428 53.675 121.535 52.683 121.039 51.492 120.245 47.623 117.864 45.44 115.285 45.44 110.423 45.44 104.371 50.004 99.51 55.758 98.121ZM75.601 112.407C75.601 119.452 72.724 126.694 65.679 129.571 63.596 117.666 60.917 101.891 60.223 97.526 69.152 97.526 75.601 103.578 75.601 112.407M933.26 84.529C933.26 85.918 933.26 85.918 934.649 85.918L964.115 85.918C965.504 85.918 965.504 85.918 965.504 84.529L965.504 73.814C965.504 72.425 965.504 72.425 964.115 72.425L934.649 72.425C933.26 72.425 933.26 72.425 933.26 73.814Z" style="fill-rule:nonzero"/>
</svg>
