<?xml version="1.0" encoding="utf-8"?>
<svg xmlns="http://www.w3.org/2000/svg" style="fill-rule:evenodd;clip-rule:evenodd;stroke-linejoin:round;stroke-miterlimit:2" xml:space="preserve" viewBox="0 0 1674 1045">
	<title>8 bars of music for voice.</title>
	<path d="M 0 447.546 L 1673.57 447.546 L 1673.57 450.276 L 0 450.276 Z M 0 472.349 L 1673.57 472.349 L 1673.57 475.079 L 0 475.079 Z M 0 497.152 L 1673.57 497.152 L 1673.57 499.882 L 0 499.882 Z M 0 521.956 L 1673.57 521.956 L 1673.57 524.686 L 0 524.686 Z M 0 546.763 L 1673.57 546.763 L 1673.57 549.493 L 0 549.493 Z"/>
	<path d="M 1669.11 447.547 L 1673.57 447.547 L 1673.57 549.483 L 1669.11 549.483 Z M 1147.19 447.547 L 1151.65 447.547 L 1151.65 549.483 L 1147.19 549.483 Z M 665.865 447.547 L 670.325 447.547 L 670.325 549.483 L 665.865 549.483 Z"/>
	<path d="M1412.08 532.745C1407.11 532.745 1404.24 535.821 1403.74 536.416L1404.14 504.568C1404.14 503.775 1403.54 503.18 1402.75 503.18L1401.56 503.18C1400.77 503.18 1400.17 503.775 1400.17 504.568L1400.67 564.196C1400.67 564.989 1401.26 565.584 1402.06 565.584 1402.25 565.584 1402.65 565.485 1402.85 565.386 1411.38 561.12 1420.31 552.984 1420.31 542.765 1420.31 537.606 1417.93 532.745 1412.08 532.745M1403.44 560.723 1403.74 541.377C1403.94 540.484 1405.43 537.606 1409.4 537.606 1412.97 537.606 1413.27 540.98 1413.27 543.063 1413.27 551.893 1409.99 555.564 1403.44 560.723M703.217 550.602C703.812 550.502 704.308 549.808 704.308 549.213L704.308 543.359C704.308 542.565 703.713 541.97 702.82 541.97L702.721 542.069 702.622 542.069 696.768 543.26 696.768 528.775 693.99 528.775 693.99 543.855 687.541 545.244C686.946 545.343 686.45 545.939 686.45 546.534L686.45 552.288C686.45 553.38 687.244 553.677 688.137 553.677L693.99 552.487 693.99 568.857 687.541 570.246C686.946 570.345 686.45 570.94 686.45 571.536L686.45 577.29C686.45 578.381 687.244 578.679 688.137 578.679L693.99 577.488 693.99 591.874 696.768 591.874 696.768 576.893 703.217 575.603C703.812 575.504 704.308 574.81 704.308 574.214L704.308 568.361C704.308 567.269 703.515 567.071 702.622 567.071L696.768 568.262 696.768 551.891Z" style="fill-rule:nonzero"/>
	<path d="M 847.382 570.943 L 896.982 570.943 L 896.982 574.913 L 847.382 574.913 Z M 885.572 486.116 L 888.302 486.116 L 888.302 568.963 L 885.572 568.963 Z M 174.846 473.913 L 177.576 473.913 L 177.576 556.553 L 174.846 556.553 Z M 1601.57 473.913 L 1604.3 473.913 L 1604.3 556.553 L 1601.57 556.553 Z M 1456.02 461.313 L 1458.75 461.313 L 1458.75 544.153 L 1456.02 544.153 Z M 299.018 473.714 L 301.748 473.714 L 301.748 556.553 L 299.018 556.553 Z M 1358.97 473.913 L 1361.7 473.913 L 1361.7 556.553 L 1358.97 556.553 Z M 483.544 479.915 L 486.274 479.915 L 486.274 556.553 L 483.544 556.553 Z M 1213.41 473.714 L 1216.14 473.714 L 1216.14 556.553 L 1213.41 556.553 Z M 572.354 479.915 L 575.084 479.915 L 575.084 556.553 L 572.354 556.553 Z M 740.009 473.714 L 742.739 473.714 L 742.739 556.553 L 740.009 556.553 Z"/>
	<path d="M710.502 564.69C710.502 568.956 713.578 573.718 721.614 573.718 731.932 573.718 742.746 565.285 742.746 556.554 742.746 550.701 737.786 547.427 731.634 547.427 722.011 547.427 710.502 555.562 710.502 564.69M856.062 577.09C856.062 581.356 859.138 586.118 867.174 586.118 877.492 586.118 888.306 577.685 888.306 568.954 888.306 563.101 883.346 559.827 877.194 559.827 867.571 559.827 856.062 567.962 856.062 577.09M542.847 564.69C542.847 568.956 545.923 573.718 553.959 573.718 564.277 573.718 575.091 565.285 575.091 556.554 575.091 550.701 570.131 547.427 563.979 547.427 554.356 547.427 542.847 555.562 542.847 564.69M1183.9 564.69C1183.9 568.956 1186.98 573.718 1195.01 573.718 1205.33 573.718 1216.14 565.285 1216.14 556.554 1216.14 550.701 1211.18 547.427 1205.03 547.427 1195.41 547.427 1183.9 555.562 1183.9 564.69M454.037 564.69C454.037 568.956 457.113 573.718 465.149 573.718 475.467 573.718 486.281 565.285 486.281 556.554 486.281 550.701 481.321 547.427 475.169 547.427 465.546 547.427 454.037 555.562 454.037 564.69M269.51 564.69C269.51 568.956 272.586 573.718 280.622 573.718 290.94 573.718 301.754 565.285 301.754 556.554 301.754 550.701 296.794 547.427 290.642 547.427 281.019 547.427 269.51 555.562 269.51 564.69M1329.46 564.69C1329.46 568.956 1332.54 573.718 1340.57 573.718 1350.89 573.718 1361.7 565.285 1361.7 556.554 1361.7 550.701 1356.74 547.427 1350.59 547.427 1340.97 547.427 1329.46 555.562 1329.46 564.69M1426.5 552.29C1426.5 556.556 1429.58 561.318 1437.61 561.318 1447.93 561.318 1458.74 552.885 1458.74 544.154 1458.74 538.301 1453.78 535.027 1447.63 535.027 1438.01 535.027 1426.5 543.162 1426.5 552.29M145.339 564.69C145.339 568.956 148.415 573.718 156.451 573.718 166.769 573.718 177.583 565.285 177.583 556.554 177.583 550.701 172.623 547.427 166.471 547.427 156.848 547.427 145.339 555.562 145.339 564.69M1572.07 564.69C1572.07 568.956 1575.15 573.718 1583.18 573.718 1593.5 573.718 1604.31 565.285 1604.31 556.554 1604.31 550.701 1599.35 547.427 1593.2 547.427 1583.58 547.427 1572.07 555.562 1572.07 564.69M32.046 574.216C32.046 580.764 37.007 589.396 50.401 589.396 55.064 589.396 59.131 588.205 62.703 586.023 68.061 582.253 69.45 575.704 69.45 569.454 69.45 565.585 68.854 561.12 67.862 555.465 67.565 553.481 66.969 550.504 66.374 546.635 76.097 543.46 83.339 533.341 83.339 523.122 83.339 508.14 72.724 498.021 58.238 498.021 57.246 492.068 56.254 486.214 55.461 480.658 65.878 469.646 73.12 457.244 73.12 441.469 73.12 432.441 70.342 425.099 68.755 421.527 66.374 416.468 63.497 412.995 61.711 412.995 61.016 412.995 57.941 414.186 54.667 418.055 48.317 425.595 46.531 438.294 46.531 446.628 46.531 451.986 47.027 456.847 48.714 467.959 48.615 468.058 43.456 473.317 41.372 475.003 32.344 483.337 19.843 495.441 19.843 515.284 19.843 533.837 36.015 548.421 54.468 548.421 57.346 548.421 60.024 548.123 62.306 547.726 64.191 557.251 65.382 564.196 65.382 569.454 65.382 579.772 60.024 585.229 50.004 585.229 47.623 585.229 45.539 584.733 45.341 584.733 45.242 584.634 45.043 584.534 45.043 584.435 45.043 584.237 45.242 584.138 45.539 584.138 50.202 583.344 54.865 579.375 54.865 573.026 54.865 567.668 50.798 562.013 43.357 562.013 36.412 562.013 32.046 567.668 32.046 574.216M52.782 441.767C53.675 437.798 58.238 427.381 63.398 427.381 64.886 427.381 67.267 432.143 67.267 439.088 67.267 449.406 59.627 457.145 52.782 463.891 52.186 459.923 51.69 456.054 51.69 451.887 51.69 448.216 51.988 444.843 52.782 441.767M61.513 543.758C59.528 544.155 57.643 544.353 55.758 544.353 41.571 544.353 29.467 534.432 29.467 519.451 29.467 507.347 37.999 496.532 46.73 488.992 48.416 487.504 50.004 486.115 51.492 484.627 52.385 489.984 53.079 494.647 53.774 498.715 44.746 501.394 38.594 510.918 38.594 520.244 38.594 527.189 44.051 536.714 51.988 536.714 52.782 536.714 53.675 536.317 53.675 535.424 53.675 534.531 52.683 534.035 51.492 533.241 47.623 530.86 45.44 528.281 45.44 523.419 45.44 517.367 50.004 512.506 55.758 511.117ZM75.601 525.403C75.601 532.448 72.724 539.69 65.679 542.567 63.596 530.662 60.917 514.887 60.223 510.522 69.152 510.522 75.601 516.574 75.601 525.403M1024.45 514.986C1024.35 514.887 1024.15 514.689 1023.85 514.292L1012.44 500.204C1012.35 500.104 1012.25 499.807 1012.25 499.608 1012.25 499.311 1012.35 498.914 1012.44 498.715L1022.56 483.437C1022.66 483.238 1022.76 482.941 1022.76 482.742L1022.76 481.849C1022.76 481.552 1022.66 481.254 1022.46 481.056L1006.39 459.328C1006.39 459.328 1006 458.733 1005.4 458.733 1005.1 458.733 1004.9 458.733 1004.61 459.03 1004.21 459.328 1004.11 459.725 1004.11 460.022 1004.11 460.618 1004.41 461.114 1004.41 461.114L1011.95 471.432C1012.15 471.729 1012.25 472.126 1012.25 472.622 1012.25 473.019 1012.15 473.515 1011.95 473.813L1001.93 489.092C1001.83 489.29 1001.73 489.687 1001.73 489.885L1001.73 490.778C1001.73 491.076 1001.83 491.374 1002.03 491.572L1013.14 505.363C1012.74 505.263 1011.85 505.065 1010.66 505.065 1005.6 505.065 1001.63 509.232 1001.63 514.292 1001.63 515.681 1001.93 517.07 1002.72 518.161 1004.8 521.336 1012.25 530.761 1012.25 530.761 1012.25 530.761 1012.74 531.357 1013.44 531.357 1013.63 531.357 1013.83 531.357 1014.03 531.158 1014.53 530.761 1014.73 530.364 1014.73 529.968 1014.73 529.571 1014.53 529.273 1014.43 529.075 1014.13 528.579 1010.96 522.824 1010.96 522.824 1010.96 522.824 1010.26 521.435 1010.26 519.649 1010.26 516.475 1012.64 513.895 1015.82 513.895 1017.11 513.895 1018.2 514.292 1018.99 514.788L1022.86 517.268C1022.86 517.268 1023.26 517.467 1023.66 517.467 1024.05 517.467 1024.35 517.367 1024.65 516.971 1024.85 516.673 1024.95 516.375 1024.95 516.078 1024.95 515.78 1024.85 515.582 1024.65 515.284Z" style="fill-rule:nonzero"/>
	<path d="M 483.545 473.714 L 575.083 473.714 L 575.083 486.116 L 483.545 486.116 Z M 483.545 492.317 L 515.789 492.317 L 515.789 504.718 L 483.545 504.718 Z"/>
	<path d="M1601.57 496.235C1601.57 496.533 1601.67 497.128 1602.36 497.327 1606.63 498.716 1615.16 504.073 1621.61 515.086 1623.4 518.161 1626.27 522.428 1626.27 530.662 1626.27 537.806 1624.49 545.147 1621.81 552.291 1621.61 552.886 1621.51 553.382 1621.51 553.779 1621.51 554.473 1621.91 554.771 1622.6 554.771 1623.2 554.771 1623.69 554.374 1624.09 553.68 1628.56 545.743 1630.24 536.516 1630.24 527.487 1629.75 514.689 1622.4 505.264 1622.4 505.264 1622.7 505.264 1613.28 493.061 1610.6 488.894 1606.93 483.238 1605.24 477.583 1605.04 477.186 1604.94 476.889 1604.05 473.317 1604.05 473.317 1603.95 472.92 1603.46 472.523 1602.86 472.523 1602.17 472.523 1601.57 473.119 1601.57 473.813ZM1358.97 496.235C1358.97 496.533 1359.07 497.128 1359.76 497.327 1364.03 498.716 1372.56 504.073 1379.01 515.086 1380.8 518.161 1383.67 522.428 1383.67 530.662 1383.67 537.806 1381.89 545.147 1379.21 552.291 1379.01 552.886 1378.91 553.382 1378.91 553.779 1378.91 554.473 1379.31 554.771 1380 554.771 1380.6 554.771 1381.09 554.374 1381.49 553.68 1385.96 545.743 1387.64 536.516 1387.64 527.487 1387.15 514.689 1379.8 505.264 1379.8 505.264 1380.1 505.264 1370.68 493.061 1368 488.894 1364.33 483.238 1362.64 477.583 1362.44 477.186 1362.34 476.889 1361.45 473.317 1361.45 473.317 1361.35 472.92 1360.86 472.523 1360.26 472.523 1359.57 472.523 1358.97 473.119 1358.97 473.813ZM174.847 496.235C174.847 496.533 174.946 497.128 175.641 497.327 179.907 498.716 188.439 504.073 194.888 515.086 196.674 518.161 199.551 522.428 199.551 530.662 199.551 537.806 197.765 545.147 195.086 552.291 194.888 552.886 194.789 553.382 194.789 553.779 194.789 554.473 195.186 554.771 195.88 554.771 196.475 554.771 196.971 554.374 197.368 553.68 201.833 545.743 203.52 536.516 203.52 527.487 203.023 514.689 195.682 505.264 195.682 505.264 195.979 505.264 186.554 493.061 183.875 488.894 180.205 483.238 178.518 477.583 178.319 477.186 178.22 476.889 177.327 473.317 177.327 473.317 177.228 472.92 176.732 472.523 176.137 472.523 175.442 472.523 174.847 473.119 174.847 473.813ZM132.266 606.963 123.016 607.513 123.016 609.663 125.416 609.663C127.316 609.713 127.566 610.013 127.566 612.163L127.566 640.063C127.516 640.763 127.466 641.063 127.266 641.313 126.916 641.763 125.966 641.963 123.816 642.013L123.616 642.013 123.616 643.813 136.266 643.813 136.266 642.013 136.066 642.013C132.716 641.913 132.266 641.663 132.266 639.863L132.266 632.463C132.266 630.013 132.616 627.763 133.166 626.613 134.266 624.363 136.466 622.813 138.616 622.813 139.916 622.813 141.416 623.563 142.116 624.563 142.916 625.663 143.266 627.163 143.266 629.613L143.266 640.063C143.216 640.763 143.166 641.063 142.966 641.313 142.616 641.763 141.616 641.963 139.466 642.013L139.266 642.013 139.266 643.813 151.916 643.813 151.916 642.013 151.716 642.013C148.416 641.913 147.966 641.663 147.966 639.863L147.966 629.813C147.966 626.213 147.816 625.313 146.916 623.613 145.666 621.163 143.166 619.763 140.166 619.763 136.916 619.763 134.516 621.213 132.266 624.563ZM175.413 627.713C175.413 624.563 174.863 622.963 173.413 621.763 171.763 620.413 169.313 619.763 166.113 619.763 160.463 619.763 156.363 622.413 156.363 626.063 156.363 627.913 157.513 629.113 159.263 629.113 160.863 629.113 161.963 628.063 161.963 626.563 161.963 625.913 161.713 625.213 161.213 624.513 160.913 624.163 160.863 624.063 160.863 623.813 160.863 622.813 162.863 621.913 165.263 621.913 166.863 621.913 168.613 622.413 169.413 623.163 170.363 623.963 170.713 625.163 170.713 627.413L170.713 629.363C165.513 630.263 163.863 630.663 161.413 631.613 157.063 633.213 155.013 635.513 155.013 638.713 155.013 642.313 157.813 644.563 162.263 644.563 165.713 644.563 168.813 643.163 170.963 640.613 171.763 643.163 173.013 644.163 175.363 644.163 177.613 644.163 179.963 642.713 179.963 641.263 179.963 640.913 179.763 640.663 179.463 640.663 179.263 640.663 179.063 640.713 178.713 640.863 178.013 641.163 177.713 641.213 177.313 641.213 175.913 641.213 175.413 640.313 175.413 637.763ZM170.713 633.813C170.713 636.813 170.563 637.513 169.713 638.813 168.463 640.663 166.213 641.913 164.013 641.913 161.713 641.913 160.063 640.263 160.063 638.013 160.063 635.913 161.113 634.413 163.313 633.363 164.863 632.663 166.813 632.163 170.713 631.513ZM201.21 644.163 210.31 643.813 210.31 641.663 209.06 641.663C206.16 641.563 205.91 641.263 205.91 638.013L205.91 620.513 196.51 621.063 196.51 623.213 199.06 623.213C200.96 623.263 201.21 623.563 201.21 625.713L201.21 631.863C201.21 636.213 200.16 641.513 194.66 641.513 193.11 641.513 191.81 640.963 191.16 639.963 190.51 639.013 190.41 638.513 190.41 635.763L190.41 620.513 181.66 621.063 181.66 623.213 183.56 623.213C185.46 623.263 185.71 623.563 185.71 625.713L185.71 636.513C185.71 639.063 185.91 640.213 186.66 641.363 188.01 643.413 190.41 644.563 193.41 644.563 196.71 644.563 199.01 643.213 201.21 640.013ZM227.147 629.913 227.147 634.063 239.597 634.063 239.597 629.913ZM282.929 637.363 278.029 624.513C277.879 624.163 277.829 623.863 277.829 623.463 277.829 622.563 278.279 622.313 279.929 622.313L281.129 622.313 281.129 620.513 269.929 620.513 269.929 622.313 270.779 622.313C272.379 622.363 273.029 622.763 273.429 624.163L273.829 625.463 269.429 637.113 264.579 624.563C264.479 624.213 264.379 623.763 264.379 623.463 264.379 622.613 264.929 622.313 266.429 622.313L267.329 622.313 267.329 620.513 256.329 620.513 256.329 622.313 257.229 622.313C258.629 622.363 259.279 622.963 259.829 624.763L267.329 644.563 269.079 644.563 275.029 628.763 281.129 644.563 282.679 644.563 289.679 626.113C290.779 623.163 291.529 622.363 293.379 622.313L293.729 622.313 293.729 620.513 284.279 620.513 284.279 622.313 285.129 622.313C286.879 622.313 287.579 622.813 287.579 624.163 287.579 624.663 287.429 625.313 287.179 625.963ZM315.819 644.163 324.919 643.813 324.919 641.663 323.669 641.663C320.769 641.563 320.519 641.263 320.519 638.013L320.519 620.513 311.119 621.063 311.119 623.213 313.669 623.213C315.569 623.263 315.819 623.563 315.819 625.713L315.819 631.863C315.819 636.213 314.769 641.513 309.269 641.513 307.719 641.513 306.419 640.963 305.769 639.963 305.119 639.013 305.019 638.513 305.019 635.763L305.019 620.513 296.269 621.063 296.269 623.213 298.169 623.213C300.069 623.263 300.319 623.563 300.319 625.713L300.319 636.513C300.319 639.063 300.519 640.213 301.269 641.363 302.619 643.413 305.019 644.563 308.019 644.563 311.319 644.563 313.619 643.213 315.819 640.013ZM460.482 620.513 460.482 610.613 458.432 610.613C457.932 617.113 455.732 620.413 451.682 620.713L451.682 622.663 455.782 622.663 455.782 635.413C455.782 638.913 455.882 640.163 456.382 641.313 457.182 643.413 459.182 644.563 462.082 644.563 466.582 644.563 469.482 641.163 469.482 635.863 469.482 635.563 469.482 635.213 469.432 634.713L467.332 634.713C467.182 639.213 465.882 641.513 463.432 641.513 462.282 641.513 461.282 640.913 460.932 640.063 460.632 639.363 460.482 638.113 460.482 636.313L460.482 622.663 467.832 622.663 467.832 620.513ZM483.116 619.763C476.966 619.763 472.216 625.213 472.216 632.213 472.216 639.063 477.016 644.563 483.016 644.563 489.016 644.563 493.816 639.063 493.816 632.163 493.816 625.313 489.016 619.763 483.116 619.763M483.116 621.913C486.616 621.913 488.566 625.563 488.566 632.163 488.566 638.813 486.616 642.413 483.016 642.413 479.416 642.413 477.466 638.813 477.466 632.213 477.466 625.413 479.366 621.913 483.116 621.913M505.516 620.513 496.866 621.063 496.866 623.213 498.666 623.213C500.566 623.263 500.816 623.563 500.816 625.713L500.816 640.013C500.766 640.763 500.716 641.063 500.516 641.313 500.166 641.763 499.216 641.963 497.066 642.013L496.866 642.013 496.866 643.813 509.516 643.813 509.516 642.013 509.316 642.013C505.966 641.913 505.516 641.663 505.516 639.863L505.516 632.463C505.516 630.013 505.866 627.763 506.416 626.613 507.466 624.363 509.716 622.813 511.866 622.813 513.166 622.813 514.666 623.513 515.416 624.563 516.166 625.663 516.516 627.163 516.516 629.563L516.516 640.013C516.466 640.763 516.416 641.063 516.216 641.313 515.866 641.763 514.866 641.963 512.716 642.013L512.516 642.013 512.516 643.813 525.166 643.813 525.166 642.013 524.966 642.013C521.666 641.913 521.216 641.663 521.216 639.863L521.216 629.813C521.216 626.213 521.066 625.313 520.166 623.613 518.916 621.213 516.416 619.763 513.416 619.763 510.166 619.763 507.716 621.263 505.516 624.563ZM535.707 640.113C532.957 640.063 532.807 640.013 532.207 639.663 531.857 639.463 531.607 638.913 531.607 638.363 531.607 636.863 532.957 636.213 536.307 636.113 541.007 636.013 541.757 635.913 543.457 635.163 546.457 633.813 548.107 631.213 548.107 627.913 548.107 625.913 547.657 624.663 546.307 623.013 547.157 622.113 547.607 621.813 548.007 621.813 548.257 621.813 548.407 621.963 548.507 622.513 548.707 623.713 549.507 624.363 550.757 624.363 552.057 624.363 553.007 623.313 553.007 621.963 553.007 620.263 551.657 619.063 549.707 619.063 548.107 619.063 547.207 619.563 544.907 621.663 542.807 620.263 541.207 619.763 538.707 619.763 532.757 619.763 528.857 623.063 528.857 628.063 528.857 631.013 530.457 633.513 533.057 634.763 529.707 635.513 528.307 637.013 528.307 639.763 528.307 641.963 529.307 643.263 531.657 644.063 528.557 645.213 527.057 646.763 527.057 648.813 527.057 650.313 528.057 651.713 529.657 652.563 531.607 653.563 534.007 653.963 537.607 653.963 545.957 653.963 550.107 651.313 550.107 646.063 550.107 643.563 548.957 641.563 547.157 640.813 545.807 640.313 544.207 640.113 540.807 640.113ZM538.657 621.913C541.757 621.913 543.507 624.063 543.507 627.963 543.507 631.863 541.607 634.213 538.457 634.213 535.357 634.213 533.407 631.863 533.407 628.113 533.407 624.163 535.307 621.913 538.657 621.913M538.207 644.413C542.357 644.413 542.657 644.413 543.357 644.513 545.407 644.713 546.607 645.813 546.607 647.413 546.607 650.263 543.357 651.913 537.807 651.913 533.557 651.913 531.207 650.663 531.207 648.413 531.207 646.763 532.107 645.663 534.507 644.413ZM575.054 627.713C575.054 624.563 574.504 622.963 573.054 621.763 571.404 620.413 568.954 619.763 565.754 619.763 560.104 619.763 556.004 622.413 556.004 626.063 556.004 627.913 557.154 629.113 558.904 629.113 560.504 629.113 561.604 628.063 561.604 626.563 561.604 625.913 561.354 625.213 560.854 624.513 560.554 624.163 560.504 624.063 560.504 623.813 560.504 622.813 562.504 621.913 564.904 621.913 566.504 621.913 568.254 622.413 569.054 623.163 570.004 623.963 570.354 625.163 570.354 627.413L570.354 629.363C565.154 630.263 563.504 630.663 561.054 631.613 556.704 633.213 554.654 635.513 554.654 638.713 554.654 642.313 557.454 644.563 561.904 644.563 565.354 644.563 568.454 643.163 570.604 640.613 571.404 643.163 572.654 644.163 575.004 644.163 577.254 644.163 579.604 642.713 579.604 641.263 579.604 640.913 579.404 640.663 579.104 640.663 578.904 640.663 578.704 640.713 578.354 640.863 577.654 641.163 577.354 641.213 576.954 641.213 575.554 641.213 575.054 640.313 575.054 637.763ZM570.354 633.813C570.354 636.813 570.204 637.513 569.354 638.813 568.104 640.663 565.854 641.913 563.654 641.913 561.354 641.913 559.704 640.263 559.704 638.013 559.704 635.913 560.754 634.413 562.954 633.363 564.504 632.663 566.454 632.163 570.354 631.513ZM728.516 632.563C728.566 625.063 724.316 619.763 718.216 619.763 711.816 619.763 707.016 625.313 707.016 632.813 707.016 639.863 711.566 644.563 718.316 644.563 723.116 644.563 726.466 642.213 728.516 637.463L726.766 636.513C724.716 640.363 722.616 641.863 719.266 641.863 716.716 641.863 714.866 640.813 713.566 638.563 712.666 637.063 712.266 635.313 712.316 632.563ZM712.366 630.413C712.366 626.913 713.966 621.913 718.166 621.913 721.166 621.913 723.166 624.563 723.166 628.613 723.166 630.013 722.716 630.413 721.116 630.413ZM787.932 629.913 787.932 634.063 800.382 634.063 800.382 629.913ZM871.492 637.363 866.592 624.513C866.442 624.163 866.392 623.863 866.392 623.463 866.392 622.563 866.842 622.313 868.492 622.313L869.692 622.313 869.692 620.513 858.492 620.513 858.492 622.313 859.342 622.313C860.942 622.363 861.592 622.763 861.992 624.163L862.392 625.463 857.992 637.113 853.142 624.563C853.042 624.213 852.942 623.763 852.942 623.463 852.942 622.613 853.492 622.313 854.992 622.313L855.892 622.313 855.892 620.513 844.892 620.513 844.892 622.313 845.792 622.313C847.192 622.363 847.842 622.963 848.392 624.763L855.892 644.563 857.642 644.563 863.592 628.763 869.692 644.563 871.242 644.563 878.242 626.113C879.342 623.163 880.092 622.363 881.942 622.313L882.292 622.313 882.292 620.513 872.842 620.513 872.842 622.313 873.692 622.313C875.442 622.313 876.142 622.813 876.142 624.163 876.142 624.663 875.992 625.313 875.742 625.963ZM904.942 632.563C904.992 625.063 900.742 619.763 894.642 619.763 888.242 619.763 883.442 625.313 883.442 632.813 883.442 639.863 887.992 644.563 894.742 644.563 899.542 644.563 902.892 642.213 904.942 637.463L903.192 636.513C901.142 640.363 899.042 641.863 895.692 641.863 893.142 641.863 891.292 640.813 889.992 638.563 889.092 637.063 888.692 635.313 888.742 632.563ZM888.792 630.413C888.792 626.913 890.392 621.913 894.592 621.913 897.592 621.913 899.592 624.563 899.592 628.613 899.592 630.013 899.142 630.413 897.542 630.413ZM1180.66 620.513 1172.01 621.063 1172.01 623.213 1173.81 623.213C1175.71 623.263 1175.96 623.563 1175.96 625.713L1175.96 650.163C1175.91 650.863 1175.86 651.163 1175.66 651.413 1175.31 651.863 1174.36 652.063 1172.21 652.113L1172.01 652.113 1172.01 653.913 1185.01 653.913 1185.01 652.113 1184.46 652.113C1181.11 652.013 1180.66 651.763 1180.66 649.963L1180.66 640.513C1182.31 643.413 1184.16 644.563 1187.26 644.563 1193.91 644.563 1197.36 638.013 1197.36 632.063 1197.36 626.413 1193.91 619.763 1187.56 619.763 1184.46 619.763 1182.41 621.063 1180.66 624.063ZM1186.66 622.463C1190.11 622.463 1192.11 625.913 1192.11 631.763 1192.11 638.213 1190.11 641.863 1186.51 641.863 1182.91 641.863 1180.61 638.163 1180.61 632.413 1180.61 626.163 1182.86 622.463 1186.66 622.463M1219.9 644.163 1229 643.813 1229 641.663 1227.75 641.663C1224.85 641.563 1224.6 641.263 1224.6 638.013L1224.6 620.513 1215.2 621.063 1215.2 623.213 1217.75 623.213C1219.65 623.263 1219.9 623.563 1219.9 625.713L1219.9 631.863C1219.9 636.213 1218.85 641.513 1213.35 641.513 1211.8 641.513 1210.5 640.963 1209.85 639.963 1209.2 639.013 1209.1 638.513 1209.1 635.763L1209.1 620.513 1200.35 621.063 1200.35 623.213 1202.25 623.213C1204.15 623.263 1204.4 623.563 1204.4 625.713L1204.4 636.513C1204.4 639.063 1204.6 640.213 1205.35 641.363 1206.7 643.413 1209.1 644.563 1212.1 644.563 1215.4 644.563 1217.7 643.213 1219.9 640.013ZM1259.72 629.913 1259.72 634.063 1272.17 634.063 1272.17 629.913ZM1325.99 620.513 1317.34 621.063 1317.34 623.213 1319.14 623.213C1321.04 623.263 1321.29 623.563 1321.29 625.713L1321.29 650.163C1321.24 650.863 1321.19 651.163 1320.99 651.413 1320.64 651.863 1319.69 652.063 1317.54 652.113L1317.34 652.113 1317.34 653.913 1330.34 653.913 1330.34 652.113 1329.79 652.113C1326.44 652.013 1325.99 651.763 1325.99 649.963L1325.99 640.513C1327.64 643.413 1329.49 644.563 1332.59 644.563 1339.24 644.563 1342.69 638.013 1342.69 632.063 1342.69 626.413 1339.24 619.763 1332.89 619.763 1329.79 619.763 1327.74 621.063 1325.99 624.063ZM1331.99 622.463C1335.44 622.463 1337.44 625.913 1337.44 631.763 1337.44 638.213 1335.44 641.863 1331.84 641.863 1328.24 641.863 1325.94 638.163 1325.94 632.413 1325.94 626.163 1328.19 622.463 1331.99 622.463M1365.22 644.163 1374.32 643.813 1374.32 641.663 1373.07 641.663C1370.17 641.563 1369.92 641.263 1369.92 638.013L1369.92 620.513 1360.52 621.063 1360.52 623.213 1363.07 623.213C1364.97 623.263 1365.22 623.563 1365.22 625.713L1365.22 631.863C1365.22 636.213 1364.17 641.513 1358.67 641.513 1357.12 641.513 1355.82 640.963 1355.17 639.963 1354.52 639.013 1354.42 638.513 1354.42 635.763L1354.42 620.513 1345.67 621.063 1345.67 623.213 1347.57 623.213C1349.47 623.263 1349.72 623.563 1349.72 625.713L1349.72 636.513C1349.72 639.063 1349.92 640.213 1350.67 641.363 1352.02 643.413 1354.42 644.563 1357.42 644.563 1360.72 644.563 1363.02 643.213 1365.22 640.013ZM1391.16 629.913 1391.16 634.063 1403.61 634.063 1403.61 629.913ZM1429.59 606.963 1420.34 607.513 1420.34 609.663 1422.74 609.663C1424.64 609.713 1424.89 610.013 1424.89 612.163L1424.89 640.063C1424.84 640.763 1424.79 641.063 1424.59 641.313 1424.24 641.763 1423.29 641.963 1421.14 642.013L1420.94 642.013 1420.94 643.813 1433.59 643.813 1433.59 642.013 1433.39 642.013C1430.04 641.913 1429.59 641.663 1429.59 639.863L1429.59 632.463C1429.59 630.013 1429.94 627.763 1430.49 626.613 1431.59 624.363 1433.79 622.813 1435.94 622.813 1437.24 622.813 1438.74 623.563 1439.44 624.563 1440.24 625.663 1440.59 627.163 1440.59 629.613L1440.59 640.063C1440.54 640.763 1440.49 641.063 1440.29 641.313 1439.94 641.763 1438.94 641.963 1436.79 642.013L1436.59 642.013 1436.59 643.813 1449.24 643.813 1449.24 642.013 1449.04 642.013C1445.74 641.913 1445.29 641.663 1445.29 639.863L1445.29 629.813C1445.29 626.213 1445.14 625.313 1444.24 623.613 1442.99 621.163 1440.49 619.763 1437.49 619.763 1434.24 619.763 1431.84 621.213 1429.59 624.563ZM1458.09 608.063C1456.49 608.063 1455.19 609.363 1455.19 610.963 1455.19 612.563 1456.49 613.863 1458.04 613.863 1459.69 613.863 1460.99 612.563 1460.99 610.963 1460.99 609.363 1459.69 608.063 1458.09 608.063M1460.44 620.513 1451.04 621.063 1451.04 623.213 1453.59 623.213C1455.49 623.263 1455.74 623.563 1455.74 625.713L1455.74 640.013C1455.69 640.763 1455.64 641.063 1455.44 641.313 1455.09 641.763 1454.14 641.963 1451.99 642.013L1451.64 642.013 1451.64 643.813 1464.59 643.813 1464.59 642.013 1464.24 642.013C1460.89 641.913 1460.44 641.663 1460.44 639.863ZM1523.55 629.913 1523.55 634.063 1536 634.063 1536 629.913ZM1607.11 637.363 1602.21 624.513C1602.06 624.163 1602.01 623.863 1602.01 623.463 1602.01 622.563 1602.46 622.313 1604.11 622.313L1605.31 622.313 1605.31 620.513 1594.11 620.513 1594.11 622.313 1594.96 622.313C1596.56 622.363 1597.21 622.763 1597.61 624.163L1598.01 625.463 1593.61 637.113 1588.76 624.563C1588.66 624.213 1588.56 623.763 1588.56 623.463 1588.56 622.613 1589.11 622.313 1590.61 622.313L1591.51 622.313 1591.51 620.513 1580.51 620.513 1580.51 622.313 1581.41 622.313C1582.81 622.363 1583.46 622.963 1584.01 624.763L1591.51 644.563 1593.26 644.563 1599.21 628.763 1605.31 644.563 1606.86 644.563 1613.86 626.113C1614.96 623.163 1615.71 622.363 1617.56 622.313L1617.91 622.313 1617.91 620.513 1608.46 620.513 1608.46 622.313 1609.31 622.313C1611.06 622.313 1611.76 622.813 1611.76 624.163 1611.76 624.663 1611.61 625.313 1611.36 625.963ZM1627.45 608.063C1625.85 608.063 1624.55 609.363 1624.55 610.963 1624.55 612.563 1625.85 613.863 1627.4 613.863 1629.05 613.863 1630.35 612.563 1630.35 610.963 1630.35 609.363 1629.05 608.063 1627.45 608.063M1629.8 620.513 1620.4 621.063 1620.4 623.213 1622.95 623.213C1624.85 623.263 1625.1 623.563 1625.1 625.713L1625.1 640.013C1625.05 640.763 1625 641.063 1624.8 641.313 1624.45 641.763 1623.5 641.963 1621.35 642.013L1621 642.013 1621 643.813 1633.95 643.813 1633.95 642.013 1633.6 642.013C1630.25 641.913 1629.8 641.663 1629.8 639.863ZM587.485 560.523C587.485 563.301 589.668 565.484 592.446 565.484 595.224 565.484 597.406 563.301 597.406 560.523 597.406 557.745 595.224 555.562 592.446 555.562 589.668 555.562 587.485 557.745 587.485 560.523M314.148 560.523C314.148 563.301 316.331 565.484 319.109 565.484 321.887 565.484 324.069 563.301 324.069 560.523 324.069 557.745 321.887 555.562 319.109 555.562 316.331 555.562 314.148 557.745 314.148 560.523" style="fill-rule:nonzero"/>
	<path d="M 0 47.545 L 1673.57 47.545 L 1673.57 50.275 L 0 50.275 Z M 0 72.349 L 1673.57 72.349 L 1673.57 75.079 L 0 75.079 Z M 0 97.152 L 1673.57 97.152 L 1673.57 99.882 L 0 99.882 Z M 0 121.955 L 1673.57 121.955 L 1673.57 124.685 L 0 124.685 Z M 0 146.758 L 1673.57 146.758 L 1673.57 149.488 L 0 149.488 Z"/>
	<path d="M 957.832 47.546 L 962.292 47.546 L 962.292 149.487 L 957.832 149.487 Z M 1669.11 47.546 L 1673.57 47.546 L 1673.57 149.487 L 1669.11 149.487 Z"/>
	<path d="M443.815 132.746C438.854 132.746 435.977 135.822 435.481 136.417L435.878 104.569C435.878 103.776 435.282 103.181 434.489 103.181L433.298 103.181C432.504 103.181 431.909 103.776 431.909 104.569L432.405 164.197C432.405 164.99 433 165.585 433.794 165.585 433.992 165.585 434.389 165.486 434.588 165.387 443.12 161.121 452.049 152.985 452.049 142.766 452.049 137.607 449.668 132.746 443.815 132.746M435.183 160.724 435.481 141.378C435.679 140.485 437.167 137.607 441.136 137.607 444.707 137.607 445.005 140.981 445.005 143.064 445.005 151.894 441.731 155.565 435.183 160.724M695.136 132.746C690.175 132.746 687.298 135.822 686.802 136.417L687.199 104.569C687.199 103.776 686.603 103.181 685.81 103.181L684.619 103.181C683.825 103.181 683.23 103.776 683.23 104.569L683.726 164.197C683.726 164.99 684.321 165.585 685.115 165.585 685.313 165.585 685.71 165.486 685.909 165.387 694.441 161.121 703.37 152.985 703.37 142.766 703.37 137.607 700.989 132.746 695.136 132.746M686.504 160.724 686.802 141.378C687 140.485 688.488 137.607 692.457 137.607 696.028 137.607 696.326 140.981 696.326 143.064 696.326 151.894 693.052 155.565 686.504 160.724M1456.03 142.37C1456.03 136.218 1452.36 133.143 1447.4 133.143 1442.83 133.143 1440.65 135.326 1440.05 136.119L1440.25 104.569C1440.25 103.875 1439.66 103.28 1438.96 103.28L1438.17 103.28C1437.48 103.28 1436.88 103.875 1436.88 104.569L1437.28 164.296C1437.28 164.99 1437.87 165.585 1438.57 165.585 1438.86 165.585 1438.96 165.387 1439.16 165.288 1439.16 165.288 1444.62 162.014 1448.69 158.145 1451.56 155.367 1456.03 149.91 1456.03 142.37M1414.16 142.37C1414.16 152.985 1422.69 160.327 1431.03 165.288 1431.22 165.387 1431.32 165.585 1431.62 165.585 1432.32 165.585 1432.91 164.99 1432.91 164.296L1433.31 104.569C1433.31 103.875 1432.71 103.28 1432.02 103.28L1431.22 103.28C1430.53 103.28 1429.93 103.875 1429.93 104.569L1430.13 136.119C1429.54 135.326 1427.36 133.143 1422.79 133.143 1417.83 133.143 1414.16 136.218 1414.16 142.37M1445.81 137.508C1449.38 137.508 1449.68 140.881 1449.68 142.965 1449.68 150.902 1445.61 155.565 1439.86 160.426L1439.96 140.782C1439.96 141.08 1440.05 141.278 1440.05 141.08 1440.05 140.187 1441.44 137.508 1445.81 137.508M1424.38 137.508C1428.74 137.508 1430.13 140.187 1430.13 141.08 1430.13 141.278 1430.23 141.08 1430.23 140.782L1430.33 160.426C1424.58 155.565 1420.51 150.902 1420.51 142.965 1420.51 140.881 1420.81 137.508 1424.38 137.508M1290.44 132.746C1285.47 132.746 1282.6 135.822 1282.1 136.417L1282.5 104.569C1282.5 103.776 1281.9 103.181 1281.11 103.181L1279.92 103.181C1279.13 103.181 1278.53 103.776 1278.53 104.569L1279.03 164.197C1279.03 164.99 1279.62 165.585 1280.42 165.585 1280.61 165.585 1281.01 165.486 1281.21 165.387 1289.74 161.121 1298.67 152.985 1298.67 142.766 1298.67 137.607 1296.29 132.746 1290.44 132.746M1281.8 160.724 1282.1 141.378C1282.3 140.485 1283.79 137.607 1287.76 137.607 1291.33 137.607 1291.63 140.981 1291.63 143.064 1291.63 151.894 1288.35 155.565 1281.8 160.724M1166.31 132.746C1161.34 132.746 1158.47 135.822 1157.97 136.417L1158.37 104.569C1158.37 103.776 1157.77 103.181 1156.98 103.181L1155.79 103.181C1155 103.181 1154.4 103.776 1154.4 104.569L1154.9 164.197C1154.9 164.99 1155.49 165.585 1156.29 165.585 1156.48 165.585 1156.88 165.486 1157.08 165.387 1165.61 161.121 1174.54 152.985 1174.54 142.766 1174.54 137.607 1172.16 132.746 1166.31 132.746M1157.67 160.724 1157.97 141.378C1158.17 140.485 1159.66 137.607 1163.63 137.607 1167.2 137.607 1167.5 140.981 1167.5 143.064 1167.5 151.894 1164.22 155.565 1157.67 160.724" style="fill-rule:nonzero"/>
	<path d="M 1210.25 61.51 L 1212.98 61.51 L 1212.98 144.155 L 1210.25 144.155 Z M 1334.38 73.714 L 1337.11 73.714 L 1337.11 144.155 L 1334.38 144.155 Z M 312.462 79.815 L 315.192 79.815 L 315.192 156.556 L 312.462 156.556 Z M 1491.74 73.714 L 1494.47 73.714 L 1494.47 144.155 L 1491.74 144.155 Z M 487.754 73.813 L 490.484 73.813 L 490.484 144.155 L 487.754 144.155 Z M 1574.49 73.912 L 1577.22 73.912 L 1577.22 156.556 L 1574.49 156.556 Z M 1024.04 73.714 L 1026.77 73.714 L 1026.77 156.556 L 1024.04 156.556 Z M 570.509 79.815 L 573.239 79.815 L 573.239 156.556 L 570.509 156.556 Z M 229.708 73.813 L 232.438 73.813 L 232.438 144.155 L 229.708 144.155 Z M 739.076 73.78 L 741.806 73.78 L 741.806 144.155 L 739.076 144.155 Z M 863.212 79.848 L 865.942 79.848 L 865.942 156.556 L 863.212 156.556 Z"/>
	<path d="M833.702 164.693C833.702 168.959 836.778 173.721 844.814 173.721 855.132 173.721 865.946 165.288 865.946 156.557 865.946 150.704 860.986 147.43 854.834 147.43 845.211 147.43 833.702 155.565 833.702 164.693M1304.87 152.291C1304.87 156.557 1307.95 161.319 1315.98 161.319 1326.3 161.319 1337.11 152.886 1337.11 144.155 1337.11 138.302 1332.15 135.028 1326 135.028 1316.38 135.028 1304.87 143.163 1304.87 152.291M1180.73 152.291C1180.73 156.557 1183.81 161.319 1191.84 161.319 1202.16 161.319 1212.97 152.886 1212.97 144.155 1212.97 138.302 1208.01 135.028 1201.86 135.028 1192.24 135.028 1180.73 143.163 1180.73 152.291M709.568 152.291C709.568 156.557 712.644 161.319 720.68 161.319 730.998 161.319 741.812 152.886 741.812 144.155 741.812 138.302 736.852 135.028 730.7 135.028 721.077 135.028 709.568 143.163 709.568 152.291M282.955 164.693C282.955 168.959 286.031 173.721 294.067 173.721 304.385 173.721 315.199 165.288 315.199 156.557 315.199 150.704 310.239 147.43 304.087 147.43 294.464 147.43 282.955 155.565 282.955 164.693M541 164.693C541 168.959 544.076 173.721 552.112 173.721 562.43 173.721 573.244 165.288 573.244 156.557 573.244 150.704 568.284 147.43 562.132 147.43 552.509 147.43 541 155.565 541 164.693M200.2 152.291C200.2 156.557 203.276 161.319 211.312 161.319 221.63 161.319 232.444 152.886 232.444 144.155 232.444 138.302 227.484 135.028 221.332 135.028 211.709 135.028 200.2 143.163 200.2 152.291M1462.22 152.291C1462.22 156.557 1465.3 161.319 1473.33 161.319 1483.65 161.319 1494.46 152.886 1494.46 144.155 1494.46 138.302 1489.5 135.028 1483.35 135.028 1473.73 135.028 1462.22 143.163 1462.22 152.291M994.544 164.693C994.544 168.959 997.62 173.721 1005.66 173.721 1015.97 173.721 1026.79 165.288 1026.79 156.557 1026.79 150.704 1021.83 147.43 1015.68 147.43 1006.05 147.43 994.544 155.565 994.544 164.693M458.247 152.291C458.247 156.557 461.323 161.319 469.359 161.319 479.677 161.319 490.491 152.886 490.491 144.155 490.491 138.302 485.531 135.028 479.379 135.028 469.756 135.028 458.247 143.163 458.247 152.291M1544.98 164.693C1544.98 168.959 1548.06 173.721 1556.09 173.721 1566.41 173.721 1577.22 165.288 1577.22 156.557 1577.22 150.704 1572.26 147.43 1566.11 147.43 1556.49 147.43 1544.98 155.565 1544.98 164.693M32.046 174.216C32.046 180.764 37.007 189.396 50.401 189.396 55.064 189.396 59.131 188.205 62.703 186.023 68.061 182.253 69.45 175.704 69.45 169.454 69.45 165.585 68.854 161.12 67.862 155.465 67.565 153.481 66.969 150.504 66.374 146.635 76.097 143.46 83.339 133.341 83.339 123.122 83.339 108.14 72.724 98.021 58.238 98.021 57.246 92.068 56.254 86.214 55.461 80.658 65.878 69.646 73.12 57.244 73.12 41.469 73.12 32.441 70.342 25.099 68.755 21.528 66.374 16.468 63.497 12.995 61.711 12.995 61.016 12.995 57.941 14.186 54.667 18.055 48.317 25.595 46.531 38.295 46.531 46.628 46.531 51.986 47.027 56.847 48.714 67.959 48.615 68.058 43.456 73.317 41.372 75.003 32.344 83.337 19.843 95.441 19.843 115.284 19.843 133.837 36.015 148.421 54.468 148.421 57.346 148.421 60.024 148.123 62.306 147.726 64.191 157.251 65.382 164.196 65.382 169.454 65.382 179.772 60.024 185.229 50.004 185.229 47.623 185.229 45.539 184.733 45.341 184.733 45.242 184.634 45.043 184.534 45.043 184.435 45.043 184.237 45.242 184.138 45.539 184.138 50.202 183.344 54.865 179.375 54.865 173.026 54.865 167.668 50.798 162.013 43.357 162.013 36.412 162.013 32.046 167.668 32.046 174.216M52.782 41.767C53.675 37.798 58.238 27.381 63.398 27.381 64.886 27.381 67.267 32.143 67.267 39.088 67.267 49.406 59.627 57.145 52.782 63.891 52.186 59.923 51.69 56.054 51.69 51.887 51.69 48.216 51.988 44.843 52.782 41.767M61.513 143.758C59.528 144.155 57.643 144.353 55.758 144.353 41.571 144.353 29.467 134.432 29.467 119.451 29.467 107.347 37.999 96.533 46.73 88.992 48.416 87.504 50.004 86.115 51.492 84.627 52.385 89.984 53.079 94.647 53.774 98.715 44.746 101.394 38.594 110.918 38.594 120.244 38.594 127.189 44.051 136.714 51.988 136.714 52.782 136.714 53.675 136.317 53.675 135.424 53.675 134.531 52.683 134.035 51.492 133.241 47.623 130.86 45.44 128.281 45.44 123.419 45.44 117.367 50.004 112.506 55.758 111.117ZM75.601 125.403C75.601 132.448 72.724 139.69 65.679 142.567 63.596 130.662 60.917 114.887 60.223 110.522 69.152 110.522 75.601 116.574 75.601 125.403M137.639 72.623C142.6 70.738 146.072 67.563 146.072 62.106 146.072 61.213 145.774 50.002 128.71 50.002 111.645 50.002 112.141 62.106 112.141 62.106L112.24 62.106 112.141 62.304C112.141 65.876 115.018 68.654 118.59 68.654 122.162 68.654 124.94 65.876 124.94 62.304 124.94 59.427 122.757 56.649 119.979 56.054 120.078 55.955 120.177 55.856 120.277 55.756 121.666 54.764 123.551 54.268 125.436 54.268 129.603 54.268 134.067 56.749 134.067 62.106 134.067 68.356 129.404 69.249 128.214 69.448 127.023 69.646 121.467 70.043 120.277 70.043 119.086 70.043 118.987 71.432 118.987 71.432L118.987 73.416C118.987 73.416 119.185 74.508 120.277 74.607 121.963 74.706 124.245 74.706 127.42 75.202 131.785 75.797 134.067 78.774 134.067 85.719 134.067 92.366 129.603 94.152 125.436 94.152 122.658 94.152 120.078 93.358 118.987 92.564 122.261 92.366 124.94 89.489 124.94 86.215 124.94 82.643 122.162 79.766 118.59 79.766 115.018 79.766 112.141 82.643 112.141 86.215 112.141 94.35 119.582 98.418 126.924 98.418 136.448 98.418 146.767 95.144 146.767 84.33 146.767 77.087 141.806 74.012 137.441 72.623ZM127.383 135.92 127.383 143.262 119.149 143.262C118.454 143.262 117.76 143.857 117.76 144.651L117.76 146.536C117.76 147.33 118.454 147.925 119.149 147.925L149.21 147.925C150.004 147.925 150.599 147.33 150.599 146.536L150.599 144.651C150.599 143.857 150.004 143.262 149.21 143.262L140.38 143.262 140.38 135.92 149.21 135.92C150.004 135.92 150.599 135.226 150.599 134.432L150.599 132.547C150.599 131.852 150.004 131.158 149.21 131.158L140.38 131.158 140.38 115.383C140.38 114.788 140.083 114.292 139.587 114.093L138.396 113.498C138.198 113.399 137.9 113.299 137.701 113.299 137.404 113.399 137.007 113.498 136.809 113.696L127.78 121.931C127.483 122.229 127.383 122.626 127.383 123.022L127.383 131.158 115.974 131.158C115.974 131.158 126.986 119.252 138.694 103.577 139.09 103.081 139.19 102.584 139.19 102.188 139.19 101.692 138.991 101.295 138.892 101.196L136.709 99.013C136.511 98.814 136.114 98.616 135.717 98.616L121.034 98.616C120.24 98.616 119.744 99.211 119.645 99.807 119.645 99.807 119.149 107.148 116.569 115.185 113.99 123.221 111.013 128.181 108.434 131.852 108.434 131.852 108.136 132.348 108.136 132.944 108.136 133.142 108.136 133.341 108.235 133.539 108.632 134.233 109.227 135.325 109.227 135.325 109.227 135.325 109.426 135.92 110.319 135.92ZM1583.83 10.715C1574.5.595 1566.26 0 1561.11 0 1555.95 0 1547.81.595 1538.48 10.715 1533.62 16.072 1530.25 26.688 1530.25 32.045 1530.25 33.931 1530.65 35.22 1531.64 35.22 1534.42 35.22 1533.03 26.688 1541.36 18.255 1548.7 10.913 1558.53 10.814 1560.91 10.814L1561.3 10.814C1563.68 10.814 1573.51 10.913 1580.85 18.255 1589.18 26.688 1587.79 35.22 1590.57 35.22 1591.56 35.22 1591.96 34.03 1591.96 32.045 1591.96 26.688 1588.69 15.973 1583.83 10.715M1554.26 29.664C1554.26 33.434 1557.34 36.51 1561.11 36.51 1564.88 36.51 1567.95 33.434 1567.95 29.664 1567.95 25.894 1564.88 22.819 1561.11 22.819 1557.34 22.819 1554.26 25.894 1554.26 29.664" style="fill-rule:nonzero"/>
	<path d="M 229.709 67.496 L 315.191 73.697 L 315.191 86.131 L 229.709 79.931 Z M 229.709 86.099 L 261.953 88.438 L 261.953 100.872 L 229.709 98.533 Z M 487.755 67.496 L 573.238 73.697 L 573.238 86.131 L 487.755 79.931 Z M 487.755 86.099 L 519.999 88.438 L 519.999 100.872 L 487.755 98.533 Z M 1334.37 67.513 L 1494.46 67.513 L 1494.46 79.914 L 1334.37 79.914 Z M 1494.46 86.115 L 1462.22 86.115 L 1462.22 98.517 L 1494.46 98.517 Z M 739.076 67.505 L 865.932 73.706 L 865.932 86.123 L 739.076 79.922 Z"/>
	<path d="M1574.49 96.236C1574.49 96.534 1574.59 97.129 1575.28 97.328 1579.55 98.717 1588.08 104.074 1594.53 115.087 1596.32 118.162 1599.19 122.429 1599.19 130.663 1599.19 137.807 1597.41 145.148 1594.73 152.292 1594.53 152.887 1594.43 153.383 1594.43 153.78 1594.43 154.474 1594.83 154.772 1595.52 154.772 1596.12 154.772 1596.61 154.375 1597.01 153.681 1601.48 145.744 1603.16 136.517 1603.16 127.488 1602.67 114.69 1595.32 105.265 1595.32 105.265 1595.62 105.265 1586.2 93.062 1583.52 88.895 1579.85 83.239 1578.16 77.584 1577.96 77.188 1577.86 76.89 1576.97 73.318 1576.97 73.318 1576.87 72.921 1576.38 72.524 1575.78 72.524 1575.09 72.524 1574.49 73.12 1574.49 73.814ZM1210.24 83.834C1210.24 84.132 1210.34 84.727 1211.03 84.926 1215.3 86.315 1223.83 91.672 1230.28 102.685 1232.07 105.76 1234.94 110.027 1234.94 118.261 1234.94 125.405 1233.16 132.746 1230.48 139.89 1230.28 140.485 1230.18 140.981 1230.18 141.378 1230.18 142.072 1230.58 142.37 1231.27 142.37 1231.87 142.37 1232.36 141.973 1232.76 141.279 1237.23 133.342 1238.91 124.115 1238.91 115.086 1238.42 102.288 1231.07 92.863 1231.07 92.863 1231.37 92.863 1221.95 80.66 1219.27 76.493 1215.6 70.837 1213.91 65.182 1213.71 64.786 1213.61 64.488 1212.72 60.916 1212.72 60.916 1212.62 60.519 1212.13 60.122 1211.53 60.122 1210.84 60.122 1210.24 60.718 1210.24 61.412ZM228.021 205.468 197.971 205.468 197.971 207.818 198.871 207.818C201.721 207.868 202.671 208.018 203.071 208.518 203.371 208.968 203.371 209.068 203.371 211.618L203.371 235.418C203.371 237.968 203.371 238.068 203.071 238.518 202.671 239.018 201.721 239.218 198.871 239.218L197.971 239.218 197.971 241.568 228.671 241.568 229.671 228.218 227.471 228.218C225.571 237.118 223.521 239.018 215.871 239.218L212.571 239.218C209.571 239.118 208.821 238.618 208.971 236.818L208.971 224.068 209.971 224.068C215.121 223.868 216.971 225.718 217.171 231.268L219.521 231.268 219.521 214.868 217.171 214.868C216.871 219.768 214.921 221.718 210.171 221.718L208.971 221.718 208.971 210.318C208.921 208.218 209.421 207.868 212.121 207.818L214.721 207.818C222.921 207.768 224.971 209.568 226.571 218.218L228.721 218.218ZM270.446 218.268 261.796 218.818 261.796 220.968 263.596 220.968C265.496 221.018 265.746 221.318 265.746 223.468L265.746 247.918C265.696 248.618 265.646 248.918 265.446 249.168 265.096 249.618 264.146 249.818 261.996 249.868L261.796 249.868 261.796 251.668 274.796 251.668 274.796 249.868 274.246 249.868C270.896 249.768 270.446 249.518 270.446 247.718L270.446 238.268C272.096 241.168 273.946 242.318 277.046 242.318 283.696 242.318 287.146 235.768 287.146 229.818 287.146 224.168 283.696 217.518 277.346 217.518 274.246 217.518 272.196 218.818 270.446 221.818ZM276.446 220.218C279.896 220.218 281.896 223.668 281.896 229.518 281.896 235.968 279.896 239.618 276.296 239.618 272.696 239.618 270.396 235.918 270.396 230.168 270.396 223.918 272.646 220.218 276.446 220.218M311.684 225.468C311.684 222.318 311.134 220.718 309.684 219.518 308.034 218.168 305.584 217.518 302.384 217.518 296.734 217.518 292.634 220.168 292.634 223.818 292.634 225.668 293.784 226.868 295.534 226.868 297.134 226.868 298.234 225.818 298.234 224.318 298.234 223.668 297.984 222.968 297.484 222.268 297.184 221.918 297.134 221.818 297.134 221.568 297.134 220.568 299.134 219.668 301.534 219.668 303.134 219.668 304.884 220.168 305.684 220.918 306.634 221.718 306.984 222.918 306.984 225.168L306.984 227.118C301.784 228.018 300.134 228.418 297.684 229.368 293.334 230.968 291.284 233.268 291.284 236.468 291.284 240.068 294.084 242.318 298.534 242.318 301.984 242.318 305.084 240.918 307.234 238.368 308.034 240.918 309.284 241.918 311.634 241.918 313.884 241.918 316.234 240.468 316.234 239.018 316.234 238.668 316.034 238.418 315.734 238.418 315.534 238.418 315.334 238.468 314.984 238.618 314.284 238.918 313.984 238.968 313.584 238.968 312.184 238.968 311.684 238.068 311.684 235.518ZM306.984 231.568C306.984 234.568 306.834 235.268 305.984 236.568 304.734 238.418 302.484 239.668 300.284 239.668 297.984 239.668 296.334 238.018 296.334 235.768 296.334 233.668 297.384 232.168 299.584 231.118 301.134 230.418 303.084 229.918 306.984 229.268ZM342.481 235.118 337.581 222.268C337.431 221.918 337.381 221.618 337.381 221.218 337.381 220.318 337.831 220.068 339.481 220.068L340.681 220.068 340.681 218.268 329.481 218.268 329.481 220.068 330.331 220.068C331.931 220.118 332.581 220.518 332.981 221.918L333.381 223.218 328.981 234.868 324.131 222.318C324.031 221.968 323.931 221.518 323.931 221.218 323.931 220.368 324.481 220.068 325.981 220.068L326.881 220.068 326.881 218.268 315.881 218.268 315.881 220.068 316.781 220.068C318.181 220.118 318.831 220.718 319.381 222.518L326.881 242.318 328.631 242.318 334.581 226.518 340.681 242.318 342.231 242.318 349.231 223.868C350.331 220.918 351.081 220.118 352.931 220.068L353.281 220.068 353.281 218.268 343.831 218.268 343.831 220.068 344.681 220.068C346.431 220.068 347.131 220.568 347.131 221.918 347.131 222.418 346.981 223.068 346.731 223.718ZM397.793 227.668 397.793 231.818 410.243 231.818 410.243 227.668ZM476.606 225.468C476.606 222.318 476.056 220.718 474.606 219.518 472.956 218.168 470.506 217.518 467.306 217.518 461.656 217.518 457.556 220.168 457.556 223.818 457.556 225.668 458.706 226.868 460.456 226.868 462.056 226.868 463.156 225.818 463.156 224.318 463.156 223.668 462.906 222.968 462.406 222.268 462.106 221.918 462.056 221.818 462.056 221.568 462.056 220.568 464.056 219.668 466.456 219.668 468.056 219.668 469.806 220.168 470.606 220.918 471.556 221.718 471.906 222.918 471.906 225.168L471.906 227.118C466.706 228.018 465.056 228.418 462.606 229.368 458.256 230.968 456.206 233.268 456.206 236.468 456.206 240.068 459.006 242.318 463.456 242.318 466.906 242.318 470.006 240.918 472.156 238.368 472.956 240.918 474.206 241.918 476.556 241.918 478.806 241.918 481.156 240.468 481.156 239.018 481.156 238.668 480.956 238.418 480.656 238.418 480.456 238.418 480.256 238.468 479.906 238.618 479.206 238.918 478.906 238.968 478.506 238.968 477.106 238.968 476.606 238.068 476.606 235.518ZM471.906 231.568C471.906 234.568 471.756 235.268 470.906 236.568 469.656 238.418 467.406 239.668 465.206 239.668 462.906 239.668 461.256 238.018 461.256 235.768 461.256 233.668 462.306 232.168 464.506 231.118 466.056 230.418 468.006 229.918 471.906 229.268ZM547.315 229.468 547.315 204.718 538.065 205.268 538.065 207.418 540.465 207.418C542.365 207.468 542.615 207.768 542.615 209.918L542.615 237.818C542.565 238.518 542.515 238.818 542.315 239.068 541.965 239.518 541.015 239.718 538.865 239.768L538.665 239.768 538.665 241.568 551.315 241.568 551.315 239.768 551.115 239.768C547.765 239.668 547.315 239.418 547.315 237.618L547.315 232.568 550.365 229.668 556.315 238.018C556.565 238.418 556.665 238.668 556.665 238.868 556.665 239.568 556.115 239.768 554.465 239.768L553.515 239.768 553.515 241.568 566.715 241.568 566.715 239.768C563.915 239.518 562.915 238.918 560.865 236.318L553.765 226.618 556.015 224.418C558.965 221.568 561.065 220.468 564.465 220.068L564.465 218.268 551.315 218.268 551.315 220.068 552.865 220.068C554.465 220.068 555.215 220.368 555.215 221.018 555.215 221.568 554.865 222.168 554.065 222.968ZM578.559 217.518C572.409 217.518 567.659 222.968 567.659 229.968 567.659 236.818 572.459 242.318 578.459 242.318 584.459 242.318 589.259 236.818 589.259 229.918 589.259 223.068 584.459 217.518 578.559 217.518M578.559 219.668C582.059 219.668 584.009 223.318 584.009 229.918 584.009 236.568 582.059 240.168 578.459 240.168 574.859 240.168 572.909 236.568 572.909 229.968 572.909 223.168 574.809 219.668 578.559 219.668M648.621 227.668 648.621 231.818 661.071 231.818 661.071 227.668ZM712.784 205.818C711.184 205.818 709.884 207.118 709.884 208.718 709.884 210.318 711.184 211.618 712.734 211.618 714.384 211.618 715.684 210.318 715.684 208.718 715.684 207.118 714.384 205.818 712.784 205.818M715.134 218.268 705.734 218.818 705.734 220.968 708.284 220.968C710.184 221.018 710.434 221.318 710.434 223.468L710.434 237.768C710.384 238.518 710.334 238.818 710.134 239.068 709.784 239.518 708.834 239.718 706.684 239.768L706.334 239.768 706.334 241.568 719.284 241.568 719.284 239.768 718.934 239.768C715.584 239.668 715.134 239.418 715.134 237.618ZM743.184 225.468C743.184 222.318 742.634 220.718 741.184 219.518 739.534 218.168 737.084 217.518 733.884 217.518 728.234 217.518 724.134 220.168 724.134 223.818 724.134 225.668 725.284 226.868 727.034 226.868 728.634 226.868 729.734 225.818 729.734 224.318 729.734 223.668 729.484 222.968 728.984 222.268 728.684 221.918 728.634 221.818 728.634 221.568 728.634 220.568 730.634 219.668 733.034 219.668 734.634 219.668 736.384 220.168 737.184 220.918 738.134 221.718 738.484 222.918 738.484 225.168L738.484 227.118C733.284 228.018 731.634 228.418 729.184 229.368 724.834 230.968 722.784 233.268 722.784 236.468 722.784 240.068 725.584 242.318 730.034 242.318 733.484 242.318 736.584 240.918 738.734 238.368 739.534 240.918 740.784 241.918 743.134 241.918 745.384 241.918 747.734 240.468 747.734 239.018 747.734 238.668 747.534 238.418 747.234 238.418 747.034 238.418 746.834 238.468 746.484 238.618 745.784 238.918 745.484 238.968 745.084 238.968 743.684 238.968 743.184 238.068 743.184 235.518ZM738.484 231.568C738.484 234.568 738.334 235.268 737.484 236.568 736.234 238.418 733.984 239.668 731.784 239.668 729.484 239.668 727.834 238.018 727.834 235.768 727.834 233.668 728.884 232.168 731.084 231.118 732.634 230.418 734.584 229.918 738.484 229.268ZM994.472 229.468 994.472 204.718 985.222 205.268 985.222 207.418 987.622 207.418C989.522 207.468 989.772 207.768 989.772 209.918L989.772 237.818C989.722 238.518 989.672 238.818 989.472 239.068 989.122 239.518 988.172 239.718 986.022 239.768L985.822 239.768 985.822 241.568 998.472 241.568 998.472 239.768 998.272 239.768C994.922 239.668 994.472 239.418 994.472 237.618L994.472 232.568 997.522 229.668 1003.47 238.018C1003.72 238.418 1003.82 238.668 1003.82 238.868 1003.82 239.568 1003.27 239.768 1001.62 239.768L1000.67 239.768 1000.67 241.568 1013.87 241.568 1013.87 239.768C1011.07 239.518 1010.07 238.918 1008.02 236.318L1000.92 226.618 1003.17 224.418C1006.12 221.568 1008.22 220.468 1011.62 220.068L1011.62 218.268 998.472 218.268 998.472 220.068 1000.02 220.068C1001.62 220.068 1002.37 220.368 1002.37 221.018 1002.37 221.568 1002.02 222.168 1001.22 222.968ZM1022.86 205.818C1021.26 205.818 1019.96 207.118 1019.96 208.718 1019.96 210.318 1021.26 211.618 1022.81 211.618 1024.46 211.618 1025.76 210.318 1025.76 208.718 1025.76 207.118 1024.46 205.818 1022.86 205.818M1025.21 218.268 1015.81 218.818 1015.81 220.968 1018.36 220.968C1020.26 221.018 1020.51 221.318 1020.51 223.468L1020.51 237.768C1020.46 238.518 1020.41 238.818 1020.21 239.068 1019.86 239.518 1018.91 239.718 1016.76 239.768L1016.41 239.768 1016.41 241.568 1029.36 241.568 1029.36 239.768 1029.01 239.768C1025.66 239.668 1025.21 239.418 1025.21 237.618ZM1102.21 227.668 1102.21 231.818 1114.66 231.818 1114.66 227.668ZM1185.78 235.118 1180.88 222.268C1180.73 221.918 1180.68 221.618 1180.68 221.218 1180.68 220.318 1181.13 220.068 1182.78 220.068L1183.98 220.068 1183.98 218.268 1172.78 218.268 1172.78 220.068 1173.63 220.068C1175.23 220.118 1175.88 220.518 1176.28 221.918L1176.68 223.218 1172.28 234.868 1167.43 222.318C1167.33 221.968 1167.23 221.518 1167.23 221.218 1167.23 220.368 1167.78 220.068 1169.28 220.068L1170.18 220.068 1170.18 218.268 1159.18 218.268 1159.18 220.068 1160.08 220.068C1161.48 220.118 1162.13 220.718 1162.68 222.518L1170.18 242.318 1171.93 242.318 1177.88 226.518 1183.98 242.318 1185.53 242.318 1192.53 223.868C1193.63 220.918 1194.38 220.118 1196.23 220.068L1196.58 220.068 1196.58 218.268 1187.13 218.268 1187.13 220.068 1187.98 220.068C1189.73 220.068 1190.43 220.568 1190.43 221.918 1190.43 222.418 1190.28 223.068 1190.03 223.718ZM1206.11 205.818C1204.51 205.818 1203.21 207.118 1203.21 208.718 1203.21 210.318 1204.51 211.618 1206.06 211.618 1207.71 211.618 1209.01 210.318 1209.01 208.718 1209.01 207.118 1207.71 205.818 1206.11 205.818M1208.46 218.268 1199.06 218.818 1199.06 220.968 1201.61 220.968C1203.51 221.018 1203.76 221.318 1203.76 223.468L1203.76 237.768C1203.71 238.518 1203.66 238.818 1203.46 239.068 1203.11 239.518 1202.16 239.718 1200.01 239.768L1199.66 239.768 1199.66 241.568 1212.61 241.568 1212.61 239.768 1212.26 239.768C1208.91 239.668 1208.46 239.418 1208.46 237.618ZM1257.68 227.668 1257.68 231.818 1270.13 231.818 1270.13 227.668ZM1323.59 218.268 1323.59 208.368 1321.54 208.368C1321.04 214.868 1318.84 218.168 1314.79 218.468L1314.79 220.418 1318.89 220.418 1318.89 233.168C1318.89 236.668 1318.99 237.918 1319.49 239.068 1320.29 241.168 1322.29 242.318 1325.19 242.318 1329.69 242.318 1332.59 238.918 1332.59 233.618 1332.59 233.318 1332.59 232.968 1332.54 232.468L1330.44 232.468C1330.29 236.968 1328.99 239.268 1326.54 239.268 1325.39 239.268 1324.39 238.668 1324.04 237.818 1323.74 237.118 1323.59 235.868 1323.59 234.068L1323.59 220.418 1330.94 220.418 1330.94 218.268ZM1356.93 230.318C1356.98 222.818 1352.73 217.518 1346.63 217.518 1340.23 217.518 1335.43 223.068 1335.43 230.568 1335.43 237.618 1339.98 242.318 1346.73 242.318 1351.53 242.318 1354.88 239.968 1356.93 235.218L1355.18 234.268C1353.13 238.118 1351.03 239.618 1347.68 239.618 1345.13 239.618 1343.28 238.568 1341.98 236.318 1341.08 234.818 1340.68 233.068 1340.73 230.318ZM1340.78 228.168C1340.78 224.668 1342.38 219.668 1346.58 219.668 1349.58 219.668 1351.58 222.318 1351.58 226.368 1351.58 227.768 1351.13 228.168 1349.53 228.168ZM327.593 160.526C327.593 163.304 329.776 165.487 332.554 165.487 335.332 165.487 337.514 163.304 337.514 160.526 337.514 157.748 335.332 155.565 332.554 155.565 329.776 155.565 327.593 157.748 327.593 160.526M585.639 160.526C585.639 163.304 587.822 165.487 590.6 165.487 593.378 165.487 595.56 163.304 595.56 160.526 595.56 157.748 593.378 155.565 590.6 155.565 587.822 155.565 585.639 157.748 585.639 160.526M1349.5 135.722C1349.5 138.5 1351.68 140.683 1354.46 140.683 1357.24 140.683 1359.42 138.5 1359.42 135.722 1359.42 132.944 1357.24 130.761 1354.46 130.761 1351.68 130.761 1349.5 132.944 1349.5 135.722" style="fill-rule:nonzero"/>
	<path d="M 0 847.54 L 1673.57 847.54 L 1673.57 850.27 L 0 850.27 Z M 0 872.34 L 1673.57 872.34 L 1673.57 875.07 L 0 875.07 Z M 0 897.15 L 1673.57 897.15 L 1673.57 899.88 L 0 899.88 Z M 0 921.96 L 1673.57 921.96 L 1673.57 924.69 L 0 924.69 Z M 0 946.76 L 1673.57 946.76 L 1673.57 949.49 L 0 949.49 Z"/>
	<path d="M 1655.47 847.54 L 1659.93 847.54 L 1659.93 949.48 L 1655.47 949.48 Z M 1669.11 847.54 L 1673.57 847.54 L 1673.57 949.48 L 1669.11 949.48 Z M 1140.43 847.54 L 1144.89 847.54 L 1144.89 949.48 L 1140.43 949.48 Z M 600.304 847.54 L 604.764 847.54 L 604.764 949.48 L 600.304 949.48 Z"/>
	<path d="M1271.86 950.603C1272.45 950.503 1272.95 949.809 1272.95 949.214L1272.95 943.36C1272.95 942.566 1272.35 941.971 1271.46 941.971L1271.36 942.07 1271.26 942.07 1265.41 943.261 1265.41 928.776 1262.63 928.776 1262.63 943.856 1256.18 945.245C1255.59 945.344 1255.09 945.94 1255.09 946.535L1255.09 952.289C1255.09 953.381 1255.88 953.678 1256.78 953.678L1262.63 952.488 1262.63 968.858 1256.18 970.247C1255.59 970.346 1255.09 970.941 1255.09 971.537L1255.09 977.291C1255.09 978.382 1255.88 978.68 1256.78 978.68L1262.63 977.489 1262.63 991.875 1265.41 991.875 1265.41 976.894 1271.86 975.604C1272.45 975.505 1272.95 974.811 1272.95 974.215L1272.95 968.362C1272.95 967.27 1272.15 967.072 1271.26 967.072L1265.41 968.263 1265.41 951.892ZM1177.78 950.603C1178.37 950.503 1178.87 949.809 1178.87 949.214L1178.87 943.36C1178.87 942.566 1178.27 941.971 1177.38 941.971L1177.28 942.07 1177.18 942.07 1171.33 943.261 1171.33 928.776 1168.55 928.776 1168.55 943.856 1162.1 945.245C1161.51 945.344 1161.01 945.94 1161.01 946.535L1161.01 952.289C1161.01 953.381 1161.8 953.678 1162.7 953.678L1168.55 952.488 1168.55 968.858 1162.1 970.247C1161.51 970.346 1161.01 970.941 1161.01 971.537L1161.01 977.291C1161.01 978.382 1161.8 978.68 1162.7 978.68L1168.55 977.489 1168.55 991.875 1171.33 991.875 1171.33 976.894 1177.78 975.604C1178.37 975.505 1178.87 974.811 1178.87 974.215L1178.87 968.362C1178.87 967.27 1178.07 967.072 1177.18 967.072L1171.33 968.263 1171.33 951.892ZM891.2 942.37C891.2 936.218 887.529 933.143 882.568 933.143 878.005 933.143 875.822 935.326 875.227 936.119L875.425 904.569C875.425 903.875 874.83 903.28 874.135 903.28L873.342 903.28C872.647 903.28 872.052 903.875 872.052 904.569L872.449 964.296C872.449 964.99 873.044 965.585 873.738 965.585 874.036 965.585 874.135 965.387 874.334 965.288 874.334 965.288 879.79 962.014 883.858 958.145 886.735 955.367 891.2 949.91 891.2 942.37M849.332 942.37C849.332 952.985 857.864 960.327 866.198 965.288 866.397 965.387 866.496 965.585 866.793 965.585 867.488 965.585 868.083 964.99 868.083 964.296L868.48 904.569C868.48 903.875 867.885 903.28 867.19 903.28L866.397 903.28C865.702 903.28 865.107 903.875 865.107 904.569L865.305 936.119C864.71 935.326 862.527 933.143 857.964 933.143 853.003 933.143 849.332 936.218 849.332 942.37M880.981 937.508C884.553 937.508 884.85 940.881 884.85 942.965 884.85 950.902 880.783 955.565 875.028 960.426L875.127 940.782C875.127 941.08 875.227 941.278 875.227 941.08 875.227 940.187 876.616 937.508 880.981 937.508M859.551 937.508C863.916 937.508 865.305 940.187 865.305 941.08 865.305 941.278 865.405 941.08 865.405 940.782L865.504 960.426C859.749 955.565 855.682 950.902 855.682 942.965 855.682 940.881 855.979 937.508 859.551 937.508M763.7 932.746C758.739 932.746 755.862 935.822 755.366 936.417L755.763 904.569C755.763 903.776 755.167 903.181 754.374 903.181L753.183 903.181C752.389 903.181 751.794 903.776 751.794 904.569L752.29 964.197C752.29 964.99 752.885 965.585 753.679 965.585 753.877 965.585 754.274 965.486 754.473 965.387 763.005 961.121 771.934 952.985 771.934 942.766 771.934 937.607 769.553 932.746 763.7 932.746M755.068 960.724 755.366 941.378C755.564 940.485 757.052 937.607 761.021 937.607 764.592 937.607 764.89 940.981 764.89 943.064 764.89 951.894 761.616 955.565 755.068 960.724M437.303 942.37C437.303 936.218 433.632 933.143 428.671 933.143 424.108 933.143 421.925 935.326 421.33 936.119L421.528 904.569C421.528 903.875 420.933 903.28 420.238 903.28L419.445 903.28C418.75 903.28 418.155 903.875 418.155 904.569L418.552 964.296C418.552 964.99 419.147 965.585 419.841 965.585 420.139 965.585 420.238 965.387 420.437 965.288 420.437 965.288 425.893 962.014 429.961 958.145 432.838 955.367 437.303 949.91 437.303 942.37M395.435 942.37C395.435 952.985 403.967 960.327 412.301 965.288 412.5 965.387 412.599 965.585 412.896 965.585 413.591 965.585 414.186 964.99 414.186 964.296L414.583 904.569C414.583 903.875 413.988 903.28 413.293 903.28L412.5 903.28C411.805 903.28 411.21 903.875 411.21 904.569L411.408 936.119C410.813 935.326 408.63 933.143 404.067 933.143 399.106 933.143 395.435 936.218 395.435 942.37M427.084 937.508C430.656 937.508 430.953 940.881 430.953 942.965 430.953 950.902 426.886 955.565 421.131 960.426L421.23 940.782C421.23 941.08 421.33 941.278 421.33 941.08 421.33 940.187 422.719 937.508 427.084 937.508M405.654 937.508C410.019 937.508 411.408 940.187 411.408 941.08 411.408 941.278 411.508 941.08 411.508 940.782L411.607 960.426C405.852 955.565 401.785 950.902 401.785 942.965 401.785 940.881 402.082 937.508 405.654 937.508M309.803 932.746C304.842 932.746 301.965 935.822 301.469 936.417L301.866 904.569C301.866 903.776 301.27 903.181 300.477 903.181L299.286 903.181C298.492 903.181 297.897 903.776 297.897 904.569L298.393 964.197C298.393 964.99 298.988 965.585 299.782 965.585 299.98 965.585 300.377 965.486 300.576 965.387 309.108 961.121 318.037 952.985 318.037 942.766 318.037 937.607 315.656 932.746 309.803 932.746M301.171 960.724 301.469 941.378C301.667 940.485 303.155 937.607 307.124 937.607 310.695 937.607 310.993 940.981 310.993 943.064 310.993 951.894 307.719 955.565 301.171 960.724" style="fill-rule:nonzero"/>
	<path d="M 807.642 873.71 L 810.372 873.71 L 810.372 944.15 L 807.642 944.15 Z M 666.517 873.71 L 669.247 873.71 L 669.247 956.55 L 666.517 956.55 Z M 926.912 873.71 L 929.642 873.71 L 929.642 944.15 L 926.912 944.15 Z M 535.727 873.91 L 538.457 873.91 L 538.457 956.55 L 535.727 956.55 Z M 473.006 873.71 L 475.736 873.71 L 475.736 944.15 L 473.006 944.15 Z M 1028.8 873.71 L 1031.53 873.71 L 1031.53 956.55 L 1028.8 956.55 Z M 353.742 873.71 L 356.472 873.71 L 356.472 944.15 L 353.742 944.15 Z M 1402.74 873.71 L 1405.47 873.71 L 1405.47 956.55 L 1402.74 956.55 Z M 174.846 873.71 L 177.576 873.71 L 177.576 956.55 L 174.846 956.55 Z M 1308.65 879.91 L 1311.38 879.91 L 1311.38 956.55 L 1308.65 956.55 Z M 1214.56 879.91 L 1217.29 879.91 L 1217.29 956.55 L 1214.56 956.55 Z"/>
	<path d="M778.132 952.291C778.132 956.557 781.208 961.319 789.244 961.319 799.562 961.319 810.376 952.886 810.376 944.155 810.376 938.302 805.416 935.028 799.264 935.028 789.641 935.028 778.132 943.163 778.132 952.291M637.01 964.691C637.01 968.957 640.086 973.719 648.122 973.719 658.44 973.719 669.254 965.286 669.254 956.555 669.254 950.702 664.294 947.428 658.142 947.428 648.519 947.428 637.01 955.563 637.01 964.691M1185.06 964.691C1185.06 968.957 1188.14 973.719 1196.17 973.719 1206.49 973.719 1217.3 965.286 1217.3 956.555 1217.3 950.702 1212.34 947.428 1206.19 947.428 1196.57 947.428 1185.06 955.563 1185.06 964.691M1279.14 964.691C1279.14 968.957 1282.22 973.719 1290.25 973.719 1300.57 973.719 1311.38 965.286 1311.38 956.555 1311.38 950.702 1306.42 947.428 1300.27 947.428 1290.65 947.428 1279.14 955.563 1279.14 964.691M506.22 964.691C506.22 968.957 509.296 973.719 517.332 973.719 527.65 973.719 538.464 965.286 538.464 956.555 538.464 950.702 533.504 947.428 527.352 947.428 517.729 947.428 506.22 955.563 506.22 964.691M897.392 952.291C897.392 956.557 900.468 961.319 908.504 961.319 918.822 961.319 929.636 952.886 929.636 944.155 929.636 938.302 924.676 935.028 918.524 935.028 908.901 935.028 897.392 943.163 897.392 952.291M145.339 964.691C145.339 968.957 148.415 973.719 156.451 973.719 166.769 973.719 177.583 965.286 177.583 956.555 177.583 950.702 172.623 947.428 166.471 947.428 156.848 947.428 145.339 955.563 145.339 964.691M443.499 952.291C443.499 956.557 446.575 961.319 454.611 961.319 464.929 961.319 475.743 952.886 475.743 944.155 475.743 938.302 470.783 935.028 464.631 935.028 455.008 935.028 443.499 943.163 443.499 952.291M999.304 964.691C999.304 968.957 1002.38 973.719 1010.42 973.719 1020.73 973.719 1031.55 965.286 1031.55 956.555 1031.55 950.702 1026.59 947.428 1020.44 947.428 1010.81 947.428 999.304 955.563 999.304 964.691M1373.22 964.691C1373.22 968.957 1376.3 973.719 1384.33 973.719 1394.65 973.719 1405.46 965.286 1405.46 956.555 1405.46 950.702 1400.5 947.428 1394.35 947.428 1384.73 947.428 1373.22 955.563 1373.22 964.691M324.235 952.291C324.235 956.557 327.311 961.319 335.347 961.319 345.665 961.319 356.479 952.886 356.479 944.155 356.479 938.302 351.519 935.028 345.367 935.028 335.744 935.028 324.235 943.163 324.235 952.291M32.046 974.22C32.046 980.768 37.007 989.4 50.401 989.4 55.064 989.4 59.131 988.209 62.703 986.027 68.061 982.257 69.45 975.708 69.45 969.458 69.45 965.589 68.854 961.124 67.862 955.469 67.565 953.485 66.969 950.508 66.374 946.639 76.097 943.464 83.339 933.345 83.339 923.126 83.339 908.144 72.724 898.025 58.238 898.025 57.246 892.072 56.254 886.218 55.461 880.662 65.878 869.65 73.12 857.248 73.12 841.473 73.12 832.445 70.342 825.103 68.755 821.531 66.374 816.472 63.497 812.999 61.711 812.999 61.016 812.999 57.941 814.19 54.667 818.059 48.317 825.599 46.531 838.298 46.531 846.632 46.531 851.99 47.027 856.851 48.714 867.963 48.615 868.062 43.456 873.321 41.372 875.007 32.344 883.341 19.843 895.445 19.843 915.288 19.843 933.841 36.015 948.425 54.468 948.425 57.346 948.425 60.024 948.127 62.306 947.73 64.191 957.255 65.382 964.2 65.382 969.458 65.382 979.776 60.024 985.233 50.004 985.233 47.623 985.233 45.539 984.737 45.341 984.737 45.242 984.638 45.043 984.538 45.043 984.439 45.043 984.241 45.242 984.142 45.539 984.142 50.202 983.348 54.865 979.379 54.865 973.03 54.865 967.672 50.798 962.017 43.357 962.017 36.412 962.017 32.046 967.672 32.046 974.22M52.782 841.771C53.675 837.802 58.238 827.385 63.398 827.385 64.886 827.385 67.267 832.147 67.267 839.092 67.267 849.41 59.627 857.149 52.782 863.895 52.186 859.927 51.69 856.058 51.69 851.891 51.69 848.22 51.988 844.847 52.782 841.771M61.513 943.762C59.528 944.159 57.643 944.357 55.758 944.357 41.571 944.357 29.467 934.436 29.467 919.455 29.467 907.351 37.999 896.536 46.73 888.996 48.416 887.508 50.004 886.119 51.492 884.631 52.385 889.988 53.079 894.651 53.774 898.719 44.746 901.398 38.594 910.922 38.594 920.248 38.594 927.193 44.051 936.718 51.988 936.718 52.782 936.718 53.675 936.321 53.675 935.428 53.675 934.535 52.683 934.039 51.492 933.245 47.623 930.864 45.44 928.285 45.44 923.423 45.44 917.371 50.004 912.51 55.758 911.121ZM75.601 925.407C75.601 932.452 72.724 939.694 65.679 942.571 63.596 930.666 60.917 914.891 60.223 910.526 69.152 910.526 75.601 916.578 75.601 925.407M1537.17 914.979C1537.07 914.88 1536.87 914.682 1536.57 914.285L1525.16 900.197C1525.07 900.097 1524.97 899.8 1524.97 899.601 1524.97 899.304 1525.07 898.907 1525.16 898.708L1535.28 883.43C1535.38 883.231 1535.48 882.934 1535.48 882.735L1535.48 881.842C1535.48 881.545 1535.38 881.247 1535.18 881.049L1519.11 859.321C1519.11 859.321 1518.72 858.726 1518.12 858.726 1517.82 858.726 1517.62 858.726 1517.33 859.023 1516.93 859.321 1516.83 859.718 1516.83 860.015 1516.83 860.611 1517.13 861.107 1517.13 861.107L1524.67 871.425C1524.87 871.722 1524.97 872.119 1524.97 872.615 1524.97 873.012 1524.87 873.508 1524.67 873.806L1514.65 889.085C1514.55 889.283 1514.45 889.68 1514.45 889.878L1514.45 890.771C1514.45 891.069 1514.55 891.367 1514.75 891.565L1525.86 905.356C1525.46 905.256 1524.57 905.058 1523.38 905.058 1518.32 905.058 1514.35 909.225 1514.35 914.285 1514.35 915.674 1514.65 917.063 1515.44 918.154 1517.52 921.329 1524.97 930.754 1524.97 930.754 1524.97 930.754 1525.46 931.35 1526.16 931.35 1526.35 931.35 1526.55 931.35 1526.75 931.151 1527.25 930.754 1527.45 930.357 1527.45 929.961 1527.45 929.564 1527.25 929.266 1527.15 929.068 1526.85 928.572 1523.68 922.817 1523.68 922.817 1523.68 922.817 1522.98 921.428 1522.98 919.642 1522.98 916.468 1525.36 913.888 1528.54 913.888 1529.83 913.888 1530.92 914.285 1531.71 914.781L1535.58 917.261C1535.58 917.261 1535.98 917.46 1536.38 917.46 1536.77 917.46 1537.07 917.36 1537.37 916.964 1537.57 916.666 1537.67 916.368 1537.67 916.071 1537.67 915.773 1537.57 915.575 1537.37 915.277ZM545.064 810.705C535.738 800.585 527.503 799.99 522.344 799.99 517.185 799.99 509.05 800.585 499.724 810.705 494.862 816.062 491.489 826.678 491.489 832.035 491.489 833.92 491.886 835.21 492.878 835.21 495.656 835.21 494.267 826.678 502.601 818.245 509.943 810.903 519.765 810.804 522.146 810.804L522.543 810.804C524.924 810.804 534.746 810.903 542.088 818.245 550.422 826.678 549.033 835.21 551.811 835.21 552.803 835.21 553.199 834.02 553.199 832.035 553.199 826.678 549.925 815.963 545.064 810.705M515.499 829.654C515.499 833.424 518.574 836.5 522.344 836.5 526.114 836.5 529.19 833.424 529.19 829.654 529.19 825.884 526.114 822.809 522.344 822.809 518.574 822.809 515.499 825.884 515.499 829.654" style="fill-rule:nonzero"/>
	<path d="M 353.743 867.51 L 475.736 867.51 L 475.736 879.91 L 353.743 879.91 Z M 475.736 886.11 L 443.492 886.11 L 443.492 898.51 L 475.736 898.51 Z M 1214.57 873.71 L 1311.38 873.71 L 1311.38 886.11 L 1214.57 886.11 Z M 807.642 867.51 L 929.632 867.51 L 929.632 879.91 L 807.642 879.91 Z M 929.632 886.11 L 897.392 886.11 L 897.392 898.51 L 929.632 898.51 Z"/>
	<path d="M535.728 896.231C535.728 896.529 535.827 897.124 536.522 897.323 540.788 898.712 549.32 904.069 555.769 915.082 557.555 918.157 560.432 922.424 560.432 930.658 560.432 937.802 558.646 945.143 555.967 952.287 555.769 952.882 555.67 953.378 555.67 953.775 555.67 954.469 556.067 954.767 556.761 954.767 557.356 954.767 557.852 954.37 558.249 953.676 562.714 945.739 564.401 936.512 564.401 927.483 563.904 914.685 556.563 905.26 556.563 905.26 556.86 905.26 547.435 893.057 544.756 888.89 541.086 883.234 539.399 877.579 539.2 877.182 539.101 876.885 538.208 873.313 538.208 873.313 538.109 872.916 537.613 872.519 537.018 872.519 536.323 872.519 535.728 873.115 535.728 873.809ZM146.331 1020.51 137.431 1021.06 137.431 1023.21 139.481 1023.21C141.381 1023.26 141.631 1023.56 141.631 1025.71L141.631 1040.01C141.581 1040.76 141.531 1041.06 141.331 1041.31 140.981 1041.76 140.031 1041.96 137.881 1042.01L137.681 1042.01 137.681 1043.81 150.281 1043.81 150.281 1042.01 150.081 1042.01C146.781 1041.91 146.331 1041.66 146.331 1039.81L146.331 1030.56C146.331 1026.11 148.781 1022.81 152.031 1022.81 154.881 1022.81 156.331 1024.86 156.331 1028.91L156.331 1040.06C156.281 1040.71 156.231 1041.06 155.981 1041.31 155.681 1041.76 154.681 1041.96 152.531 1042.01L152.331 1042.01 152.331 1043.81 164.981 1043.81 164.981 1042.01 164.781 1042.01C161.481 1041.91 161.031 1041.66 161.031 1039.86L161.031 1031.01C161.031 1026.01 163.281 1022.81 166.781 1022.81 169.631 1022.81 171.031 1024.96 171.031 1029.46L171.031 1040.01C170.981 1040.71 170.931 1041.06 170.681 1041.31 170.381 1041.76 169.381 1041.96 167.231 1042.01L167.031 1042.01 167.031 1043.81 179.681 1043.81 179.681 1042.01 179.481 1042.01C176.181 1041.91 175.731 1041.66 175.731 1039.81L175.731 1028.46C175.731 1025.36 175.431 1024.31 174.131 1022.61 172.681 1020.76 170.631 1019.76 168.231 1019.76 164.981 1019.76 162.581 1021.31 160.431 1024.76 159.581 1021.76 156.881 1019.76 153.531 1019.76 150.481 1019.76 148.281 1021.21 146.331 1024.36ZM203.318 1027.71C203.318 1024.56 202.768 1022.96 201.318 1021.76 199.668 1020.41 197.218 1019.76 194.018 1019.76 188.368 1019.76 184.268 1022.41 184.268 1026.06 184.268 1027.91 185.418 1029.11 187.168 1029.11 188.768 1029.11 189.868 1028.06 189.868 1026.56 189.868 1025.91 189.618 1025.21 189.118 1024.51 188.818 1024.16 188.768 1024.06 188.768 1023.81 188.768 1022.81 190.768 1021.91 193.168 1021.91 194.768 1021.91 196.518 1022.41 197.318 1023.16 198.268 1023.96 198.618 1025.16 198.618 1027.41L198.618 1029.36C193.418 1030.26 191.768 1030.66 189.318 1031.61 184.968 1033.21 182.918 1035.51 182.918 1038.71 182.918 1042.31 185.718 1044.56 190.168 1044.56 193.618 1044.56 196.718 1043.16 198.868 1040.61 199.668 1043.16 200.918 1044.16 203.268 1044.16 205.518 1044.16 207.868 1042.71 207.868 1041.26 207.868 1040.91 207.668 1040.66 207.368 1040.66 207.168 1040.66 206.968 1040.71 206.618 1040.86 205.918 1041.16 205.618 1041.21 205.218 1041.21 203.818 1041.21 203.318 1040.31 203.318 1037.76ZM198.618 1033.81C198.618 1036.81 198.468 1037.51 197.618 1038.81 196.368 1040.66 194.118 1041.91 191.918 1041.91 189.618 1041.91 187.968 1040.26 187.968 1038.01 187.968 1035.91 189.018 1034.41 191.218 1033.36 192.768 1032.66 194.718 1032.16 198.618 1031.51ZM216.465 1008.06C214.865 1008.06 213.565 1009.36 213.565 1010.96 213.565 1012.56 214.865 1013.86 216.415 1013.86 218.065 1013.86 219.365 1012.56 219.365 1010.96 219.365 1009.36 218.065 1008.06 216.465 1008.06M218.815 1020.51 209.415 1021.06 209.415 1023.21 211.965 1023.21C213.865 1023.26 214.115 1023.56 214.115 1025.71L214.115 1040.01C214.065 1040.76 214.015 1041.06 213.815 1041.31 213.465 1041.76 212.515 1041.96 210.365 1042.01L210.015 1042.01 210.015 1043.81 222.965 1043.81 222.965 1042.01 222.615 1042.01C219.265 1041.91 218.815 1041.66 218.815 1039.86ZM254.146 1029.91 254.146 1034.06 266.596 1034.06 266.596 1029.91ZM320.359 1020.51 311.709 1021.06 311.709 1023.21 313.509 1023.21C315.409 1023.26 315.659 1023.56 315.659 1025.71L315.659 1040.01C315.609 1040.76 315.559 1041.06 315.359 1041.31 315.009 1041.76 314.059 1041.96 311.909 1042.01L311.709 1042.01 311.709 1043.81 324.359 1043.81 324.359 1042.01 324.159 1042.01C320.809 1041.91 320.359 1041.66 320.359 1039.86L320.359 1032.46C320.359 1030.01 320.709 1027.76 321.259 1026.61 322.309 1024.36 324.559 1022.81 326.709 1022.81 328.009 1022.81 329.509 1023.51 330.259 1024.56 331.009 1025.66 331.359 1027.16 331.359 1029.56L331.359 1040.01C331.309 1040.76 331.259 1041.06 331.059 1041.31 330.709 1041.76 329.709 1041.96 327.559 1042.01L327.359 1042.01 327.359 1043.81 340.009 1043.81 340.009 1042.01 339.809 1042.01C336.509 1041.91 336.059 1041.66 336.059 1039.86L336.059 1029.81C336.059 1026.21 335.909 1025.31 335.009 1023.61 333.759 1021.21 331.259 1019.76 328.259 1019.76 325.009 1019.76 322.559 1021.26 320.359 1024.56ZM364.156 1032.56C364.206 1025.06 359.956 1019.76 353.856 1019.76 347.456 1019.76 342.656 1025.31 342.656 1032.81 342.656 1039.86 347.206 1044.56 353.956 1044.56 358.756 1044.56 362.106 1042.21 364.156 1037.46L362.406 1036.51C360.356 1040.36 358.256 1041.86 354.906 1041.86 352.356 1041.86 350.506 1040.81 349.206 1038.56 348.306 1037.06 347.906 1035.31 347.956 1032.56ZM348.006 1030.41C348.006 1026.91 349.606 1021.91 353.806 1021.91 356.806 1021.91 358.806 1024.56 358.806 1028.61 358.806 1030.01 358.356 1030.41 356.756 1030.41ZM375.806 1020.51 366.956 1021.06 366.956 1023.21 369.006 1023.21C370.906 1023.26 371.156 1023.56 371.156 1025.71L371.156 1040.01C371.106 1040.76 371.056 1041.06 370.856 1041.31 370.506 1041.76 369.506 1041.96 367.356 1042.01L367.156 1042.01 367.156 1043.81 380.506 1043.81 380.506 1042.01 379.606 1042.01C376.256 1041.91 375.806 1041.66 375.806 1039.86L375.806 1037.16C375.856 1028.76 378.856 1022.36 382.756 1022.16 382.056 1022.96 381.856 1023.46 381.856 1024.41 381.856 1026.01 383.006 1027.16 384.606 1027.16 386.456 1027.16 387.656 1025.81 387.656 1023.81 387.656 1021.36 385.956 1019.76 383.306 1019.76 380.156 1019.76 377.456 1022.26 375.806 1026.71ZM445.756 1029.91 445.756 1034.06 458.206 1034.06 458.206 1029.91ZM529.318 1037.36 524.418 1024.51C524.268 1024.16 524.218 1023.86 524.218 1023.46 524.218 1022.56 524.668 1022.31 526.318 1022.31L527.518 1022.31 527.518 1020.51 516.318 1020.51 516.318 1022.31 517.168 1022.31C518.768 1022.36 519.418 1022.76 519.818 1024.16L520.218 1025.46 515.818 1037.11 510.968 1024.56C510.868 1024.21 510.768 1023.76 510.768 1023.46 510.768 1022.61 511.318 1022.31 512.818 1022.31L513.718 1022.31 513.718 1020.51 502.718 1020.51 502.718 1022.31 503.618 1022.31C505.018 1022.36 505.668 1022.96 506.218 1024.76L513.718 1044.56 515.468 1044.56 521.418 1028.76 527.518 1044.56 529.068 1044.56 536.068 1026.11C537.168 1023.16 537.918 1022.36 539.768 1022.31L540.118 1022.31 540.118 1020.51 530.668 1020.51 530.668 1022.31 531.518 1022.31C533.268 1022.31 533.968 1022.81 533.968 1024.16 533.968 1024.66 533.818 1025.31 533.568 1025.96ZM549.652 1008.06C548.052 1008.06 546.752 1009.36 546.752 1010.96 546.752 1012.56 548.052 1013.86 549.602 1013.86 551.252 1013.86 552.552 1012.56 552.552 1010.96 552.552 1009.36 551.252 1008.06 549.652 1008.06M552.002 1020.51 542.602 1021.06 542.602 1023.21 545.152 1023.21C547.052 1023.26 547.302 1023.56 547.302 1025.71L547.302 1040.01C547.252 1040.76 547.202 1041.06 547.002 1041.31 546.652 1041.76 545.702 1041.96 543.552 1042.01L543.202 1042.01 543.202 1043.81 556.152 1043.81 556.152 1042.01 555.802 1042.01C552.452 1041.91 552.002 1041.66 552.002 1039.86ZM650.746 1031.71 650.746 1006.96 641.496 1007.51 641.496 1009.66 643.896 1009.66C645.796 1009.71 646.046 1010.01 646.046 1012.16L646.046 1040.06C645.996 1040.76 645.946 1041.06 645.746 1041.31 645.396 1041.76 644.446 1041.96 642.296 1042.01L642.096 1042.01 642.096 1043.81 654.746 1043.81 654.746 1042.01 654.546 1042.01C651.196 1041.91 650.746 1041.66 650.746 1039.86L650.746 1034.81 653.796 1031.91 659.746 1040.26C659.996 1040.66 660.096 1040.91 660.096 1041.11 660.096 1041.81 659.546 1042.01 657.896 1042.01L656.946 1042.01 656.946 1043.81 670.146 1043.81 670.146 1042.01C667.346 1041.76 666.346 1041.16 664.296 1038.56L657.196 1028.86 659.446 1026.66C662.396 1023.81 664.496 1022.71 667.896 1022.31L667.896 1020.51 654.746 1020.51 654.746 1022.31 656.296 1022.31C657.896 1022.31 658.646 1022.61 658.646 1023.26 658.646 1023.81 658.296 1024.41 657.496 1025.21ZM679.137 1008.06C677.537 1008.06 676.237 1009.36 676.237 1010.96 676.237 1012.56 677.537 1013.86 679.087 1013.86 680.737 1013.86 682.037 1012.56 682.037 1010.96 682.037 1009.36 680.737 1008.06 679.137 1008.06M681.487 1020.51 672.087 1021.06 672.087 1023.21 674.637 1023.21C676.537 1023.26 676.787 1023.56 676.787 1025.71L676.787 1040.01C676.737 1040.76 676.687 1041.06 676.487 1041.31 676.137 1041.76 675.187 1041.96 673.037 1042.01L672.687 1042.01 672.687 1043.81 685.637 1043.81 685.637 1042.01 685.287 1042.01C681.937 1041.91 681.487 1041.66 681.487 1039.86ZM716.818 1029.91 716.818 1034.06 729.268 1034.06 729.268 1029.91ZM782.731 1020.51 782.731 1010.61 780.681 1010.61C780.181 1017.11 777.981 1020.41 773.931 1020.71L773.931 1022.66 778.031 1022.66 778.031 1035.41C778.031 1038.91 778.131 1040.16 778.631 1041.31 779.431 1043.41 781.431 1044.56 784.331 1044.56 788.832 1044.56 791.732 1041.16 791.732 1035.86 791.732 1035.56 791.732 1035.21 791.682 1034.71L789.582 1034.71C789.432 1039.21 788.132 1041.51 785.681 1041.51 784.531 1041.51 783.531 1040.91 783.181 1040.06 782.881 1039.36 782.731 1038.11 782.731 1036.31L782.731 1022.66 790.082 1022.66 790.082 1020.51ZM815.162 1027.71C815.162 1024.56 814.612 1022.96 813.162 1021.76 811.512 1020.41 809.062 1019.76 805.862 1019.76 800.212 1019.76 796.112 1022.41 796.112 1026.06 796.112 1027.91 797.262 1029.11 799.012 1029.11 800.612 1029.11 801.712 1028.06 801.712 1026.56 801.712 1025.91 801.462 1025.21 800.962 1024.51 800.662 1024.16 800.612 1024.06 800.612 1023.81 800.612 1022.81 802.612 1021.91 805.012 1021.91 806.612 1021.91 808.362 1022.41 809.162 1023.16 810.112 1023.96 810.462 1025.16 810.462 1027.41L810.462 1029.36C805.262 1030.26 803.612 1030.66 801.162 1031.61 796.812 1033.21 794.762 1035.51 794.762 1038.71 794.762 1042.31 797.562 1044.56 802.012 1044.56 805.462 1044.56 808.562 1043.16 810.712 1040.61 811.512 1043.16 812.762 1044.16 815.112 1044.16 817.362 1044.16 819.712 1042.71 819.712 1041.26 819.712 1040.91 819.512 1040.66 819.212 1040.66 819.012 1040.66 818.812 1040.71 818.462 1040.86 817.762 1041.16 817.462 1041.21 817.062 1041.21 815.662 1041.21 815.162 1040.31 815.162 1037.76ZM810.462 1033.81C810.462 1036.81 810.312 1037.51 809.462 1038.81 808.212 1040.66 805.962 1041.91 803.762 1041.91 801.462 1041.91 799.812 1040.26 799.812 1038.01 799.812 1035.91 800.862 1034.41 803.062 1033.36 804.612 1032.66 806.562 1032.16 810.462 1031.51ZM850.242 1029.91 850.242 1034.06 862.692 1034.06 862.692 1029.91ZM902.512 1031.71 902.512 1006.96 893.262 1007.51 893.262 1009.66 895.662 1009.66C897.562 1009.71 897.812 1010.01 897.812 1012.16L897.812 1040.06C897.762 1040.76 897.712 1041.06 897.512 1041.31 897.162 1041.76 896.212 1041.96 894.062 1042.01L893.862 1042.01 893.862 1043.81 906.512 1043.81 906.512 1042.01 906.312 1042.01C902.962 1041.91 902.512 1041.66 902.512 1039.86L902.512 1034.81 905.562 1031.91 911.512 1040.26C911.762 1040.66 911.862 1040.91 911.862 1041.11 911.862 1041.81 911.312 1042.01 909.662 1042.01L908.712 1042.01 908.712 1043.81 921.912 1043.81 921.912 1042.01C919.112 1041.76 918.112 1041.16 916.062 1038.56L908.962 1028.86 911.212 1026.66C914.162 1023.81 916.262 1022.71 919.662 1022.31L919.662 1020.51 906.512 1020.51 906.512 1022.31 908.062 1022.31C909.662 1022.31 910.412 1022.61 910.412 1023.26 910.412 1023.81 910.062 1024.41 909.262 1025.21ZM942.712 1044.16 951.812 1043.81 951.812 1041.66 950.562 1041.66C947.662 1041.56 947.412 1041.26 947.412 1038.01L947.412 1020.51 938.012 1021.06 938.012 1023.21 940.562 1023.21C942.462 1023.26 942.712 1023.56 942.712 1025.71L942.712 1031.86C942.712 1036.21 941.662 1041.51 936.162 1041.51 934.612 1041.51 933.312 1040.96 932.662 1039.96 932.012 1039.01 931.912 1038.51 931.912 1035.76L931.912 1020.51 923.162 1021.06 923.162 1023.21 925.062 1023.21C926.962 1023.26 927.212 1023.56 927.212 1025.71L927.212 1036.51C927.212 1039.06 927.412 1040.21 928.162 1041.36 929.512 1043.41 931.912 1044.56 934.912 1044.56 938.212 1044.56 940.512 1043.21 942.712 1040.01ZM968.642 1029.91 968.642 1034.06 981.092 1034.06 981.092 1029.91ZM1024.43 1037.36 1019.53 1024.51C1019.38 1024.16 1019.33 1023.86 1019.33 1023.46 1019.33 1022.56 1019.78 1022.31 1021.43 1022.31L1022.63 1022.31 1022.63 1020.51 1011.43 1020.51 1011.43 1022.31 1012.28 1022.31C1013.88 1022.36 1014.53 1022.76 1014.93 1024.16L1015.33 1025.46 1010.93 1037.11 1006.08 1024.56C1005.98 1024.21 1005.88 1023.76 1005.88 1023.46 1005.88 1022.61 1006.43 1022.31 1007.93 1022.31L1008.83 1022.31 1008.83 1020.51 997.832 1020.51 997.832 1022.31 998.732 1022.31C1000.13 1022.36 1000.78 1022.96 1001.33 1024.76L1008.83 1044.56 1010.58 1044.56 1016.53 1028.76 1022.63 1044.56 1024.18 1044.56 1031.18 1026.11C1032.28 1023.16 1033.03 1022.36 1034.88 1022.31L1035.23 1022.31 1035.23 1020.51 1025.78 1020.51 1025.78 1022.31 1026.63 1022.31C1028.38 1022.31 1029.08 1022.81 1029.08 1024.16 1029.08 1024.66 1028.93 1025.31 1028.68 1025.96ZM1057.32 1044.16 1066.42 1043.81 1066.42 1041.66 1065.17 1041.66C1062.27 1041.56 1062.02 1041.26 1062.02 1038.01L1062.02 1020.51 1052.62 1021.06 1052.62 1023.21 1055.17 1023.21C1057.07 1023.26 1057.32 1023.56 1057.32 1025.71L1057.32 1031.86C1057.32 1036.21 1056.27 1041.51 1050.77 1041.51 1049.22 1041.51 1047.92 1040.96 1047.27 1039.96 1046.62 1039.01 1046.52 1038.51 1046.52 1035.76L1046.52 1020.51 1037.77 1021.06 1037.77 1023.21 1039.67 1023.21C1041.57 1023.26 1041.82 1023.56 1041.82 1025.71L1041.82 1036.51C1041.82 1039.06 1042.02 1040.21 1042.77 1041.36 1044.12 1043.41 1046.52 1044.56 1049.52 1044.56 1052.82 1044.56 1055.12 1043.21 1057.32 1040.01ZM1188.34 1031.71 1188.34 1006.96 1179.09 1007.51 1179.09 1009.66 1181.49 1009.66C1183.39 1009.71 1183.64 1010.01 1183.64 1012.16L1183.64 1040.06C1183.59 1040.76 1183.54 1041.06 1183.34 1041.31 1182.99 1041.76 1182.04 1041.96 1179.89 1042.01L1179.69 1042.01 1179.69 1043.81 1192.34 1043.81 1192.34 1042.01 1192.14 1042.01C1188.79 1041.91 1188.34 1041.66 1188.34 1039.86L1188.34 1034.81 1191.39 1031.91 1197.34 1040.26C1197.59 1040.66 1197.69 1040.91 1197.69 1041.11 1197.69 1041.81 1197.14 1042.01 1195.49 1042.01L1194.54 1042.01 1194.54 1043.81 1207.74 1043.81 1207.74 1042.01C1204.94 1041.76 1203.94 1041.16 1201.89 1038.56L1194.79 1028.86 1197.04 1026.66C1199.99 1023.81 1202.09 1022.71 1205.49 1022.31L1205.49 1020.51 1192.34 1020.51 1192.34 1022.31 1193.89 1022.31C1195.49 1022.31 1196.24 1022.61 1196.24 1023.26 1196.24 1023.81 1195.89 1024.41 1195.09 1025.21ZM1216.73 1008.06C1215.13 1008.06 1213.83 1009.36 1213.83 1010.96 1213.83 1012.56 1215.13 1013.86 1216.68 1013.86 1218.33 1013.86 1219.63 1012.56 1219.63 1010.96 1219.63 1009.36 1218.33 1008.06 1216.73 1008.06M1219.08 1020.51 1209.68 1021.06 1209.68 1023.21 1212.23 1023.21C1214.13 1023.26 1214.38 1023.56 1214.38 1025.71L1214.38 1040.01C1214.33 1040.76 1214.28 1041.06 1214.08 1041.31 1213.73 1041.76 1212.78 1041.96 1210.63 1042.01L1210.28 1042.01 1210.28 1043.81 1223.23 1043.81 1223.23 1042.01 1222.88 1042.01C1219.53 1041.91 1219.08 1041.66 1219.08 1039.86ZM1240.52 1029.91 1240.52 1034.06 1252.97 1034.06 1252.97 1029.91ZM1278.85 1020.51 1270 1021.06 1270 1023.21 1272.05 1023.21C1273.95 1023.26 1274.2 1023.56 1274.2 1025.71L1274.2 1040.01C1274.15 1040.76 1274.1 1041.06 1273.9 1041.31 1273.55 1041.76 1272.55 1041.96 1270.4 1042.01L1270.2 1042.01 1270.2 1043.81 1283.55 1043.81 1283.55 1042.01 1282.65 1042.01C1279.3 1041.91 1278.85 1041.66 1278.85 1039.86L1278.85 1037.16C1278.9 1028.76 1281.9 1022.36 1285.8 1022.16 1285.1 1022.96 1284.9 1023.46 1284.9 1024.41 1284.9 1026.01 1286.05 1027.16 1287.65 1027.16 1289.5 1027.16 1290.7 1025.81 1290.7 1023.81 1290.7 1021.36 1289 1019.76 1286.35 1019.76 1283.2 1019.76 1280.5 1022.26 1278.85 1026.71ZM1300.09 1008.06C1298.49 1008.06 1297.19 1009.36 1297.19 1010.96 1297.19 1012.56 1298.49 1013.86 1300.04 1013.86 1301.69 1013.86 1302.99 1012.56 1302.99 1010.96 1302.99 1009.36 1301.69 1008.06 1300.09 1008.06M1302.44 1020.51 1293.04 1021.06 1293.04 1023.21 1295.59 1023.21C1297.49 1023.26 1297.74 1023.56 1297.74 1025.71L1297.74 1040.01C1297.69 1040.76 1297.64 1041.06 1297.44 1041.31 1297.09 1041.76 1296.14 1041.96 1293.99 1042.01L1293.64 1042.01 1293.64 1043.81 1306.59 1043.81 1306.59 1042.01 1306.24 1042.01C1302.89 1041.91 1302.44 1041.66 1302.44 1039.86ZM1337.77 1029.91 1337.77 1034.06 1350.22 1034.06 1350.22 1029.91ZM1376.2 1020.51 1367.55 1021.06 1367.55 1023.21 1369.35 1023.21C1371.25 1023.26 1371.5 1023.56 1371.5 1025.71L1371.5 1040.01C1371.45 1040.76 1371.4 1041.06 1371.2 1041.31 1370.85 1041.76 1369.9 1041.96 1367.75 1042.01L1367.55 1042.01 1367.55 1043.81 1380.2 1043.81 1380.2 1042.01 1380 1042.01C1376.65 1041.91 1376.2 1041.66 1376.2 1039.86L1376.2 1032.46C1376.2 1030.01 1376.55 1027.76 1377.1 1026.61 1378.15 1024.36 1380.4 1022.81 1382.55 1022.81 1383.85 1022.81 1385.35 1023.51 1386.1 1024.56 1386.85 1025.66 1387.2 1027.16 1387.2 1029.56L1387.2 1040.01C1387.15 1040.76 1387.1 1041.06 1386.9 1041.31 1386.55 1041.76 1385.55 1041.96 1383.4 1042.01L1383.2 1042.01 1383.2 1043.81 1395.85 1043.81 1395.85 1042.01 1395.65 1042.01C1392.35 1041.91 1391.9 1041.66 1391.9 1039.86L1391.9 1029.81C1391.9 1026.21 1391.75 1025.31 1390.85 1023.61 1389.6 1021.21 1387.1 1019.76 1384.1 1019.76 1380.85 1019.76 1378.4 1021.26 1376.2 1024.56ZM1409.35 1019.76C1403.2 1019.76 1398.45 1025.21 1398.45 1032.21 1398.45 1039.06 1403.25 1044.56 1409.25 1044.56 1415.25 1044.56 1420.05 1039.06 1420.05 1032.16 1420.05 1025.31 1415.25 1019.76 1409.35 1019.76M1409.35 1021.91C1412.85 1021.91 1414.8 1025.56 1414.8 1032.16 1414.8 1038.81 1412.85 1042.41 1409.25 1042.41 1405.65 1042.41 1403.7 1038.81 1403.7 1032.21 1403.7 1025.41 1405.6 1021.91 1409.35 1021.91M1427.89 1038.26C1426.14 1038.26 1424.74 1039.66 1424.74 1041.36 1424.74 1043.11 1426.14 1044.51 1427.84 1044.51 1429.59 1044.51 1430.99 1043.11 1430.99 1041.36 1430.99 1039.66 1429.59 1038.26 1427.89 1038.26M368.873 935.724C368.873 938.502 371.056 940.685 373.834 940.685 376.612 940.685 378.794 938.502 378.794 935.724 378.794 932.946 376.612 930.763 373.834 930.763 371.056 930.763 368.873 932.946 368.873 935.724M189.977 960.524C189.977 963.302 192.16 965.485 194.938 965.485 197.716 965.485 199.898 963.302 199.898 960.524 199.898 957.746 197.716 955.563 194.938 955.563 192.16 955.563 189.977 957.746 189.977 960.524M822.772 935.724C822.772 938.502 824.955 940.685 827.733 940.685 830.511 940.685 832.693 938.502 832.693 935.724 832.693 932.946 830.511 930.763 827.733 930.763 824.955 930.763 822.772 932.946 822.772 935.724" style="fill-rule:nonzero"/>
</svg>
