<?xml version="1.0" encoding="utf-8"?>
<svg xmlns="http://www.w3.org/2000/svg" style="fill-rule:evenodd;clip-rule:evenodd;stroke-linejoin:round;stroke-miterlimit:2" xml:space="preserve" viewBox="0 0 120 276">
	<title>the three-quarter sharp symbol</title>
	<path d="M 114.925 94.6672 C 117.405 94.2506 119.475 91.3589 119.475 88.8797 L 119.475 64.4881 C 119.475 59.9422 116.58 58.7006 112.859 58.7006 L 100.046 61.5964 L 100.046 0.00050499 L 88.4712 0.00050499 L 88.4712 64.0756 L 64.0795 69.0339 L 64.0795 6.61301 L 52.917 6.61301 L 52.917 71.1006 L 31.0086 75.6506 L 31.0086 13.2297 L 19.8461 13.2297 L 19.8461 78.1297 L 4.55025 81.4381 C 2.07108 81.8506 0.0044132 84.3297 0.0044132 86.8131 L 0.0044132 110.788 C 0.0044132 115.334 3.31275 116.576 7.03359 116.576 L 19.8461 113.68 L 19.8461 182.305 L 4.55025 185.609 C 2.07108 186.026 0.0044132 188.505 0.0044132 190.984 L 0.0044132 214.963 C 0.0044132 219.509 3.31275 220.751 7.03359 220.751 L 19.8461 218.267 L 19.8461 275.73 L 31.0086 275.73 L 31.0086 215.788 L 52.917 211.242 L 52.917 269.53 L 64.0795 269.53 L 64.0795 209.176 L 88.4712 204.213 L 88.4712 262.501 L 100.046 262.501 L 100.046 201.734 L 114.925 198.838 C 117.405 198.426 119.888 195.534 119.888 193.051 L 119.888 168.663 C 119.888 164.113 116.58 162.876 112.859 162.876 L 100.046 165.767 L 100.046 97.5589 L 114.925 94.6672 Z M 64.0795 105.001 L 88.4712 100.038 L 88.4712 168.246 L 64.0795 173.209 L 64.0795 105.001 Z M 52.917 175.276 L 31.0086 179.821 L 31.0086 111.613 L 52.917 107.067 L 52.917 175.276 Z" style="fill-rule:nonzero"/>
</svg>
