<?xml version="1.0" encoding="utf-8"?>
<svg xmlns="http://www.w3.org/2000/svg" style="fill-rule:evenodd;clip-rule:evenodd;stroke-linejoin:round;stroke-miterlimit:2" xml:space="preserve" viewBox="0 0 175 260">
	<title>the three-quarter flat symbol</title>
	<path d="M 174.449 162.874 C 174.449 137.244 159.154 124.429 138.484 124.429 C 119.469 124.429 110.374 133.523 107.894 136.83 L 108.721 5.37355 C 108.721 2.47984 106.24 -0.000472 103.347 -0.000472 L 100.039 -0.000472 C 97.1457 -0.000472 94.6654 2.47984 94.6654 5.37355 L 96.3189 254.232 C 96.3189 257.126 98.7993 259.606 101.693 259.606 C 102.933 259.606 103.347 258.779 104.173 258.366 C 104.173 258.366 126.91 244.724 143.858 228.602 C 155.847 217.027 174.449 194.291 174.449 162.874 M 0 162.874 C 0 207.106 35.5512 237.696 70.2756 258.366 C 71.1024 258.779 71.5158 259.606 72.7559 259.606 C 75.6496 259.606 78.13 257.126 78.13 254.232 L 79.7835 5.37355 C 79.7835 2.47984 77.3032 -0.000472 74.4095 -0.000472 L 71.1024 -0.000472 C 68.2087 -0.000472 65.7284 2.47984 65.7284 5.37355 L 66.5551 136.83 C 64.0748 133.523 54.9803 124.429 35.9646 124.429 C 15.2953 124.429 0 137.244 0 162.874 M 131.87 142.618 C 146.752 142.618 147.992 156.673 147.992 165.354 C 147.992 198.425 131.043 217.854 107.067 238.11 L 107.48 156.259 C 107.48 157.5 107.894 158.326 107.894 157.5 C 107.894 153.779 113.681 142.618 131.87 142.618 M 42.5788 142.618 C 60.7677 142.618 66.5551 153.779 66.5551 157.5 C 66.5551 158.326 66.9685 157.5 66.9685 156.259 L 67.3819 238.11 C 43.4055 217.854 26.4567 198.425 26.4567 165.354 C 26.4567 156.673 27.6969 142.618 42.5788 142.618" style="fill-rule:nonzero"/>
</svg>
