<?xml version="1.0" encoding="utf-8"?>
<svg xmlns="http://www.w3.org/2000/svg" style="fill-rule:evenodd;clip-rule:evenodd;stroke-linejoin:bevel" xml:space="preserve" viewBox="0 0 701 125">
	<title>A bar of music demonstrating a close enharmonic tetrachord made up of G, G half-sharp, A, and C.</title>
	<path d="M 0.00028782 18.602 L 700.601 18.602 M 0.00028782 43.406 L 700.601 43.406 M 0.00028782 68.209 L 700.601 68.209 M 0.00028782 93.012 L 700.601 93.012 M 0.00028782 117.815 L 700.601 117.815" style="fill:none;fill-rule:nonzero;stroke:#000;stroke-width:1.8356687274669141"/>
	<path d="M 685.42 17.238 L 685.42 119.179 M 699.06 17.238 L 699.06 119.179" style="fill:none;fill-rule:nonzero;stroke:#000;stroke-width:4.46"/>
	<path d="M 286.996 83.0907 C 287.591 82.9915 288.087 82.297 288.087 81.7017 L 288.087 75.8482 C 288.087 75.0544 287.492 74.4592 286.599 74.4592 L 286.5 74.5584 L 286.401 74.5584 L 280.547 75.7489 L 280.547 61.2638 L 277.769 61.2638 L 277.769 76.3442 L 271.32 77.7332 C 270.725 77.8324 270.229 78.4277 270.229 79.023 L 270.229 84.7773 C 270.229 85.8687 271.023 86.1663 271.916 86.1663 L 277.769 84.9757 L 277.769 101.346 L 271.32 102.735 C 270.725 102.834 270.229 103.429 270.229 104.025 L 270.229 109.779 C 270.229 110.87 271.023 111.168 271.916 111.168 L 277.769 109.977 L 277.769 124.363 L 280.547 124.363 L 280.547 109.382 L 286.996 108.092 C 287.591 107.993 288.087 107.299 288.087 106.703 L 288.087 100.85 C 288.087 99.7585 287.294 99.5601 286.401 99.5601 L 280.547 100.751 L 280.547 84.3805 Z" style="fill-rule:nonzero"/>
	<path d="M 186.801 89.043 L 186.801 6.201 M 325.153 89.043 L 325.153 6.201 M 443.474 76.642 L 443.474 0" style="fill:none;fill-rule:nonzero;stroke:#000;stroke-width:2.73"/>
	<path d="M177.061 79.916C167.438 79.916 155.929 87.952 155.929 97.179 155.929 101.445 159.005 106.207 167.041 106.207 177.359 106.207 188.173 97.774 188.173 89.044 188.173 83.19 183.213 79.916 177.061 79.916M163.37 101.544C160.096 101.544 159.401 98.866 159.401 97.973 159.401 93.111 176.069 84.579 180.732 84.579 183.113 84.579 184.701 85.968 184.701 88.151 184.701 93.111 167.934 101.544 163.37 101.544M294.28 97.179C294.28 101.445 297.356 106.207 305.392 106.207 315.71 106.207 326.524 97.774 326.524 89.044 326.524 83.19 321.564 79.916 315.412 79.916 305.789 79.916 294.28 88.051 294.28 97.179M412.602 84.777C412.602 89.043 415.678 93.805 423.714 93.805 434.032 93.805 444.846 85.372 444.846 76.642 444.846 70.788 439.886 67.514 433.734 67.514 424.111 67.514 412.602 75.649 412.602 84.777M554.919 42.314C541.227 42.314 536.366 49.259 536.366 55.708 536.366 62.157 541.227 69.102 554.919 69.102 568.61 69.102 573.372 62.157 573.372 55.708 573.372 49.259 568.61 42.314 554.919 42.314M555.713 65.927C552.935 65.927 551.05 65.133 549.76 62.653 548.47 60.172 546.684 53.724 546.585 51.144 546.387 48.465 547.379 46.878 549.76 46.084 550.95 45.687 552.538 45.489 554.125 45.489 556.804 45.489 558.59 46.084 559.979 48.763 561.368 51.342 563.253 57.791 563.253 60.272 563.253 65.133 559.681 65.927 555.713 65.927M34.427 85.572C34.725 84.877 34.824 84.083 34.824 83.29 34.824 80.412 32.939 77.436 30.459 76.345 29.566 75.849 28.375 75.65 27.284 75.65 23.216 75.65 19.843 79.024 19.843 83.389 19.843 85.671 20.538 90.135 22.522 92.516L23.018 93.112C25.201 95.89 29.467 101.446 44.944 101.446 64.29 101.446 82.05 75.154 82.05 53.823 82.05 32.493 70.64 17.511 51.294 17.511 36.312 17.511 23.117 28.028 21.53 43.406L30.856 43.406C33.237 30.409 40.579 21.678 51.294 21.678 65.183 21.678 73.12 33.485 73.12 52.038 73.12 70.59 56.254 98.072 42.364 98.072 37.701 98.072 33.138 96.485 29.864 93.112 29.169 92.417 27.979 90.929 27.879 89.937 27.879 89.242 28.475 89.044 29.07 88.746 30.856 88.052 32.642 88.25 33.832 86.464ZM104.273 31.401C104.273 28.226 101.495 25.647 98.122 25.647 94.65 25.647 91.872 28.226 91.872 31.401 91.872 34.576 94.65 37.156 98.122 37.156 101.495 37.156 104.273 34.576 104.273 31.401M104.273 56.8C104.273 53.625 101.495 51.045 98.122 51.045 94.65 51.045 91.872 53.625 91.872 56.8 91.872 59.975 94.65 62.554 98.122 62.554 101.495 62.554 104.273 59.975 104.273 56.8" style="fill-rule:nonzero"/>
</svg>
