<?xml version="1.0" encoding="utf-8"?>
<svg xmlns="http://www.w3.org/2000/svg" style="fill-rule:evenodd;clip-rule:evenodd;stroke-linejoin:round;stroke-miterlimit:2" xml:space="preserve" viewBox="0 0 75 263">
	<title>half sharp symbol</title>
	<path d="M 69.8622 90.9444 C 72.3426 90.531 74.4095 87.6373 74.4095 85.157 L 74.4095 60.7672 C 74.4095 57.4601 71.9292 54.9798 68.2087 54.9798 L 67.7953 55.3932 L 67.3819 55.3932 L 42.9921 60.3538 L 42.9921 -0.00052 L 31.4173 -0.00052 L 31.4173 62.8342 L 4.54725 68.6216 C 2.06693 69.0349 0 71.5153 0 73.9956 L 0 97.972 C 0 102.519 3.30709 103.759 7.02756 103.759 L 31.4173 98.7987 L 31.4173 167.007 L 4.54725 172.795 C 2.06693 173.208 0 175.689 0 178.169 L 0 202.145 C 0 206.692 3.30709 207.933 7.02756 207.933 L 31.4173 202.972 L 31.4173 262.913 L 42.9921 262.913 L 42.9921 200.492 L 69.8622 195.118 C 72.3426 194.704 74.4095 191.811 74.4095 189.33 L 74.4095 164.94 C 74.4095 160.393 71.1024 159.566 67.3819 159.566 L 42.9921 164.527 L 42.9921 96.3184 Z" style="fill-rule:nonzero"/>
</svg>
