<?xml version="1.0" encoding="utf-8"?>
<svg xmlns="http://www.w3.org/2000/svg" style="fill-rule:evenodd;clip-rule:evenodd;stroke-linejoin:bevel" xml:space="preserve" viewBox="0 0 899 177">
	<title>A bar of music showing the progression G, A, A half-sharp, B, and D.</title>
	<path d="M 0.0004586 35.914 L 898.588 35.914 M 0.0004586 60.718 L 898.588 60.718 M 0.0004586 85.521 L 898.588 85.521 M 0.0004586 110.324 L 898.588 110.324 M 0.0004586 135.127 L 898.588 135.127" style="fill:none;fill-rule:nonzero;stroke:#000;stroke-width:2.078926816893755"/>
	<path d="M 502.411 88.0007 C 503.006 87.9015 503.502 87.207 503.502 86.6117 L 503.502 80.7582 C 503.502 79.9644 502.907 79.3692 502.014 79.3692 L 501.915 79.4684 L 501.816 79.4684 L 495.962 80.6589 L 495.962 66.1738 L 493.184 66.1738 L 493.184 81.2542 L 486.735 82.6432 C 486.14 82.7424 485.644 83.3377 485.644 83.933 L 485.644 89.6873 C 485.644 90.7787 486.438 91.0763 487.331 91.0763 L 493.184 89.8857 L 493.184 106.256 L 486.735 107.645 C 486.14 107.744 485.644 108.339 485.644 108.935 L 485.644 114.689 C 485.644 115.78 486.438 116.078 487.331 116.078 L 493.184 114.887 L 493.184 129.273 L 495.962 129.273 L 495.962 114.292 L 502.411 113.002 C 503.006 112.903 503.502 112.209 503.502 111.613 L 503.502 105.76 C 503.502 104.668 502.709 104.47 501.816 104.47 L 495.962 105.661 L 495.962 89.2905 Z" style="fill-rule:nonzero"/>
	<path d="M 248.729 106.355 L 248.729 23.513 M 375.308 93.954 L 375.308 17.51 M 540.567 93.954 L 540.567 17.51 M 669.846 81.552 L 669.846 5.109 M 781.346 64.884 L 781.346 147.529" style="fill:none;fill-rule:nonzero;stroke:#000;stroke-width:2.73"/>
	<path d="M217.857 114.491C217.857 118.757 220.933 123.519 228.969 123.519 239.287 123.519 250.101 115.086 250.101 106.355 250.101 100.502 245.141 97.228 238.989 97.228 229.366 97.228 217.857 105.363 217.857 114.491M344.436 102.089C344.436 106.355 347.512 111.117 355.548 111.117 365.866 111.117 376.68 102.684 376.68 93.954 376.68 88.1 371.72 84.826 365.568 84.826 355.945 84.826 344.436 92.961 344.436 102.089M509.695 102.089C509.695 106.355 512.771 111.117 520.807 111.117 531.125 111.117 541.939 102.684 541.939 93.954 541.939 88.1 536.979 84.826 530.827 84.826 521.204 84.826 509.695 92.961 509.695 102.089M638.971 89.688C638.971 93.954 642.047 98.716 650.083 98.716 660.401 98.716 671.215 90.283 671.215 81.553 671.215 75.699 666.255 72.425 660.103 72.425 650.48 72.425 638.971 80.56 638.971 89.688M779.986 64.885C779.986 69.151 783.062 73.913 791.098 73.913 801.416 73.913 812.23 65.48 812.23 56.75 812.23 50.896 807.27 47.622 801.118 47.622 791.495 47.622 779.986 55.757 779.986 64.885M32.046 161.22C32.046 167.768 37.007 176.4 50.401 176.4 55.064 176.4 59.131 175.209 62.703 173.027 68.061 169.257 69.45 162.708 69.45 156.458 69.45 152.589 68.854 148.124 67.862 142.469 67.565 140.485 66.969 137.508 66.374 133.639 76.097 130.464 83.339 120.345 83.339 110.126 83.339 95.144 72.724 85.025 58.238 85.025 57.246 79.072 56.254 73.218 55.461 67.662 65.878 56.65 73.12 44.248 73.12 28.473 73.12 19.445 70.342 12.103 68.755 8.531 66.374 3.472 63.497-.001 61.711-.001 61.016-.001 57.941 1.19 54.667 5.059 48.317 12.599 46.531 25.299 46.531 33.632 46.531 38.99 47.027 43.851 48.714 54.963 48.615 55.062 43.456 60.321 41.372 62.007 32.344 70.341 19.843 82.445 19.843 102.288 19.843 120.841 36.015 135.425 54.468 135.425 57.346 135.425 60.024 135.127 62.306 134.73 64.191 144.255 65.382 151.2 65.382 156.458 65.382 166.776 60.024 172.233 50.004 172.233 47.623 172.233 45.539 171.737 45.341 171.737 45.242 171.638 45.043 171.538 45.043 171.439 45.043 171.241 45.242 171.142 45.539 171.142 50.202 170.348 54.865 166.379 54.865 160.03 54.865 154.672 50.798 149.017 43.357 149.017 36.412 149.017 32.046 154.672 32.046 161.22M52.782 28.771C53.675 24.802 58.238 14.385 63.398 14.385 64.886 14.385 67.267 19.147 67.267 26.092 67.267 36.41 59.627 44.149 52.782 50.895 52.186 46.927 51.69 43.058 51.69 38.891 51.69 35.22 51.988 31.847 52.782 28.771M61.513 130.762C59.528 131.159 57.643 131.357 55.758 131.357 41.571 131.357 29.467 121.436 29.467 106.455 29.467 94.351 37.999 83.537 46.73 75.996 48.416 74.508 50.004 73.119 51.492 71.631 52.385 76.988 53.079 81.651 53.774 85.719 44.746 88.398 38.594 97.922 38.594 107.248 38.594 114.193 44.051 123.718 51.988 123.718 52.782 123.718 53.675 123.321 53.675 122.428 53.675 121.535 52.683 121.039 51.492 120.245 47.623 117.864 45.44 115.285 45.44 110.423 45.44 104.371 50.004 99.51 55.758 98.121ZM75.601 112.407C75.601 119.452 72.724 126.694 65.679 129.571 63.596 117.666 60.917 101.891 60.223 97.526 69.152 97.526 75.601 103.578 75.601 112.407M120.04 70.143C115.079 70.143 112.202 73.219 111.706 73.814L112.103 41.967C112.103 41.173 111.507 40.578 110.714 40.578L109.523 40.578C108.729 40.578 108.134 41.173 108.134 41.967L108.63 101.594C108.63 102.387 109.225 102.982 110.019 102.982 110.217 102.982 110.614 102.883 110.813 102.784 119.345 98.518 128.274 90.382 128.274 80.164 128.274 75.004 125.893 70.143 120.04 70.143M111.408 98.121 111.706 78.775C111.904 77.882 113.392 75.004 117.361 75.004 120.932 75.004 121.23 78.378 121.23 80.461 121.23 89.291 117.956 92.962 111.408 98.121M147.603 32.938C142.642 32.938 139.765 36.014 139.269 36.609L139.666 4.761C139.666 3.968 139.07 3.373 138.277 3.373L137.086 3.373C136.292 3.373 135.697 3.968 135.697 4.761L136.193 64.388C136.193 65.182 136.788 65.778 137.582 65.778 137.78 65.778 138.177 65.678 138.376 65.579 146.908 61.313 155.837 53.177 155.837 42.959 155.837 37.799 153.456 32.938 147.603 32.938M138.971 60.916 139.269 41.57C139.467 40.677 140.955 37.799 144.924 37.799 148.495 37.799 148.793 41.173 148.793 43.256 148.793 52.086 145.519 55.757 138.971 60.916M373.944 39.833C373.944 40.131 374.043 40.726 374.738 40.925 379.004 42.314 387.536 47.671 393.985 58.684 395.771 61.759 398.648 66.026 398.648 74.26 398.648 81.404 396.862 88.745 394.183 95.889 393.985 96.484 393.886 96.98 393.886 97.377 393.886 98.071 394.283 98.369 394.977 98.369 395.572 98.369 396.068 97.972 396.465 97.278 400.93 89.341 402.617 80.114 402.617 71.085 402.12 58.287 394.779 48.862 394.779 48.862 395.076 48.862 385.651 36.659 382.972 32.492 379.302 26.836 377.615 21.181 377.416 20.785 377.317 20.487 376.424 16.915 376.424 16.915 376.325 16.518 375.829 16.121 375.234 16.121 374.539 16.121 373.944 16.717 373.944 17.411ZM539.203 39.833C539.203 40.131 539.302 40.726 539.997 40.925 544.263 42.314 552.795 47.671 559.244 58.684 561.03 61.759 563.907 66.026 563.907 74.26 563.907 81.404 562.121 88.745 559.442 95.889 559.244 96.484 559.145 96.98 559.145 97.377 559.145 98.071 559.542 98.369 560.236 98.369 560.831 98.369 561.327 97.972 561.724 97.278 566.189 89.341 567.876 80.114 567.876 71.085 567.379 58.287 560.038 48.862 560.038 48.862 560.335 48.862 550.91 36.659 548.231 32.492 544.561 26.836 542.874 21.181 542.675 20.785 542.576 20.487 541.683 16.915 541.683 16.915 541.584 16.518 541.088 16.121 540.493 16.121 539.798 16.121 539.203 16.717 539.203 17.411ZM668.476 27.431C668.476 27.729 668.575 28.324 669.27 28.523 673.536 29.912 682.068 35.269 688.517 46.282 690.303 49.357 693.18 53.624 693.18 61.858 693.18 69.002 691.394 76.343 688.715 83.487 688.517 84.082 688.418 84.578 688.418 84.975 688.418 85.669 688.815 85.967 689.509 85.967 690.104 85.967 690.6 85.57 690.997 84.876 695.462 76.939 697.149 67.712 697.149 58.683 696.652 45.885 689.311 36.46 689.311 36.46 689.608 36.46 680.183 24.257 677.504 20.09 673.834 14.434 672.147 8.779 671.948 8.382 671.849 8.085 670.956 4.513 670.956 4.513 670.857 4.116 670.361 3.719 669.766 3.719 669.071 3.719 668.476 4.315 668.476 5.009ZM262.495 97.922C262.495 100.7 264.678 102.883 267.456 102.883 270.234 102.883 272.416 100.7 272.416 97.922 272.416 95.144 270.234 92.961 267.456 92.961 264.678 92.961 262.495 95.144 262.495 97.922" style="fill-rule:nonzero"/>
	<path d="M 882.965 34.55 L 882.965 136.491 M 896.606 34.55 L 896.606 136.491" style="fill:none;fill-rule:nonzero;stroke:#000;stroke-width:4.46"/>
</svg>
