<?xml version="1.0" encoding="UTF-8" standalone="no"?>
<svg xmlns="http://www.w3.org/2000/svg" xml:space="preserve" style="fill-rule:evenodd;clip-rule:evenodd;stroke-linejoin:round;stroke-miterlimit:2" viewBox="0 0 794 177">
<title>A bar of music showing E half-flat, E natural, E half-sharp, and E natural.</title>
  <path d="M -0.0001241 34.549 L 793.142 34.549 L 793.142 37.279 L -0.0001241 37.279 Z M -0.0001241 59.353 L 793.142 59.353 L 793.142 62.083 L -0.0001241 62.083 Z M -0.0001241 84.156 L 793.142 84.156 L 793.142 86.886 L -0.0001241 86.886 Z M -0.0001241 108.959 L 793.142 108.959 L 793.142 111.689 L -0.0001241 111.689 Z M -0.0001241 133.762 L 793.142 133.762 L 793.142 136.492 L -0.0001241 136.492 Z"/>
  <path d="M 788.956 34.55 L 793.416 34.55 L 793.416 136.491 L 788.956 136.491 Z"/>
  <path d="M101.933 129.373C101.933 139.988 110.465 147.33 118.799 152.291 118.998 152.39 119.097 152.588 119.394 152.588 120.089 152.588 120.684 151.993 120.684 151.299L121.081 91.573C121.081 90.878 120.486 90.283 119.791 90.283L118.998 90.283C118.303 90.283 117.708 90.878 117.708 91.573L117.906 123.122C117.311 122.329 115.128 120.146 110.565 120.146 105.604 120.146 101.933 123.221 101.933 129.373M112.152 124.511C116.517 124.511 117.906 127.19 117.906 128.083 117.906 128.281 118.006 128.083 118.006 127.785L118.105 147.429C112.35 142.568 108.283 137.905 108.283 129.968 108.283 127.884 108.58 124.511 112.152 124.511M437.25 125.206C437.845 125.106 438.341 124.412 438.341 123.817L438.341 117.963C438.341 117.169 437.746 116.574 436.853 116.574L436.754 116.673 436.655 116.673 430.801 117.864 430.801 103.379 428.023 103.379 428.023 118.459 421.574 119.848C420.979 119.947 420.483 120.543 420.483 121.138L420.483 126.892C420.483 127.984 421.277 128.281 422.17 128.281L428.023 127.091 428.023 143.461 421.574 144.85C420.979 144.949 420.483 145.544 420.483 146.14L420.483 151.894C420.483 152.985 421.277 153.283 422.17 153.283L428.023 152.092 428.023 166.478 430.801 166.478 430.801 151.497 437.25 150.207C437.845 150.108 438.341 149.414 438.341 148.818L438.341 142.965C438.341 141.873 437.548 141.675 436.655 141.675L430.801 142.866 430.801 126.495Z" style="fill-rule:nonzero"/>
  <path d="M 156.786 48.316 L 159.516 48.316 L 159.516 131.159 L 156.786 131.159 Z M 320.522 48.514 L 323.252 48.514 L 323.252 131.159 L 320.522 131.159 Z M 474.042 48.514 L 476.772 48.514 L 476.772 131.159 L 474.042 131.159 Z M 603.194 48.316 L 605.924 48.316 L 605.924 131.159 L 603.194 131.159 Z"/>
  <path d="M127.279 139.294C127.279 143.56 130.355 148.322 138.391 148.322 148.709 148.322 159.523 139.889 159.523 131.158 159.523 125.305 154.563 122.031 148.411 122.031 138.788 122.031 127.279 130.166 127.279 139.294M291.015 139.294C291.015 143.56 294.091 148.322 302.127 148.322 312.445 148.322 323.259 139.889 323.259 131.158 323.259 125.305 318.299 122.031 312.147 122.031 302.524 122.031 291.015 130.166 291.015 139.294M444.535 139.294C444.535 143.56 447.611 148.322 455.647 148.322 465.965 148.322 476.779 139.889 476.779 131.158 476.779 125.305 471.819 122.031 465.667 122.031 456.044 122.031 444.535 130.166 444.535 139.294M573.687 139.294C573.687 143.56 576.763 148.322 584.799 148.322 595.117 148.322 605.931 139.889 605.931 131.158 605.931 125.305 600.971 122.031 594.819 122.031 585.196 122.031 573.687 130.166 573.687 139.294M32.046 161.22C32.046 167.768 37.007 176.4 50.401 176.4 55.064 176.4 59.131 175.209 62.703 173.027 68.061 169.257 69.45 162.708 69.45 156.458 69.45 152.589 68.854 148.124 67.862 142.469 67.565 140.485 66.969 137.508 66.374 133.639 76.097 130.464 83.339 120.345 83.339 110.126 83.339 95.144 72.724 85.025 58.238 85.025 57.246 79.072 56.254 73.218 55.461 67.662 65.878 56.65 73.12 44.248 73.12 28.473 73.12 19.445 70.342 12.103 68.755 8.531 66.374 3.472 63.497-.001 61.711-.001 61.016-.001 57.941 1.19 54.667 5.059 48.317 12.599 46.531 25.299 46.531 33.632 46.531 38.99 47.027 43.851 48.714 54.963 48.615 55.062 43.456 60.321 41.372 62.007 32.344 70.341 19.843 82.445 19.843 102.288 19.843 120.841 36.015 135.425 54.468 135.425 57.346 135.425 60.024 135.127 62.306 134.73 64.191 144.255 65.382 151.2 65.382 156.458 65.382 166.776 60.024 172.233 50.004 172.233 47.623 172.233 45.539 171.737 45.341 171.737 45.242 171.638 45.043 171.538 45.043 171.439 45.043 171.241 45.242 171.142 45.539 171.142 50.202 170.348 54.865 166.379 54.865 160.03 54.865 154.672 50.798 149.017 43.357 149.017 36.412 149.017 32.046 154.672 32.046 161.22M52.782 28.771C53.675 24.802 58.238 14.385 63.398 14.385 64.886 14.385 67.267 19.147 67.267 26.092 67.267 36.41 59.627 44.149 52.782 50.895 52.186 46.927 51.69 43.058 51.69 38.891 51.69 35.22 51.988 31.847 52.782 28.771M61.513 130.762C59.528 131.159 57.643 131.357 55.758 131.357 41.571 131.357 29.467 121.436 29.467 106.455 29.467 94.351 37.999 83.537 46.73 75.996 48.416 74.508 50.004 73.119 51.492 71.631 52.385 76.988 53.079 81.651 53.774 85.719 44.746 88.398 38.594 97.922 38.594 107.248 38.594 114.193 44.051 123.718 51.988 123.718 52.782 123.718 53.675 123.321 53.675 122.428 53.675 121.535 52.683 121.039 51.492 120.245 47.623 117.864 45.44 115.285 45.44 110.423 45.44 104.371 50.004 99.51 55.758 98.121ZM75.601 112.407C75.601 119.452 72.724 126.694 65.679 129.571 63.596 117.666 60.917 101.891 60.223 97.526 69.152 97.526 75.601 103.578 75.601 112.407M729.336 65.381C729.237 65.381 729.038 65.281 728.939 65.281 728.344 65.281 727.848 65.579 727.649 66.075 725.367 70.639 720.605 76.79 715.248 77.782 716.339 76.493 717.033 74.905 717.033 73.02 717.033 69.151 713.859 65.976 709.989 65.976 706.021 65.976 702.846 69.151 702.846 73.02 702.846 78.378 708.104 80.858 712.767 80.858 718.026 80.858 721.498 78.378 724.871 74.707L713.561 110.027 716.24 110.82 730.13 67.067C730.229 66.968 730.229 66.77 730.229 66.571 730.229 66.075 729.931 65.678 729.336 65.381M320.523 70.837C320.523 71.135 320.622 71.73 321.317 71.929 325.583 73.318 334.115 78.675 340.564 89.688 342.35 92.763 345.227 97.03 345.227 105.264 345.227 112.408 343.441 119.749 340.762 126.893 340.564 127.488 340.465 127.984 340.465 128.381 340.465 129.075 340.862 129.373 341.556 129.373 342.151 129.373 342.647 128.976 343.044 128.282 347.509 120.345 349.196 111.118 349.196 102.089 348.699 89.291 341.358 79.866 341.358 79.866 341.655 79.866 332.23 67.663 329.551 63.496 325.881 57.84 324.194 52.185 323.995 51.789 323.896 51.491 323.003 47.919 323.003 47.919 322.904 47.522 322.408 47.125 321.813 47.125 321.118 47.125 320.523 47.721 320.523 48.415ZM474.043 70.837C474.043 71.135 474.142 71.73 474.837 71.929 479.103 73.318 487.635 78.675 494.084 89.688 495.87 92.763 498.747 97.03 498.747 105.264 498.747 112.408 496.961 119.749 494.282 126.893 494.084 127.488 493.985 127.984 493.985 128.381 493.985 129.075 494.382 129.373 495.076 129.373 495.671 129.373 496.167 128.976 496.564 128.282 501.029 120.345 502.716 111.118 502.716 102.089 502.219 89.291 494.878 79.866 494.878 79.866 495.175 79.866 485.75 67.663 483.071 63.496 479.401 57.84 477.714 52.185 477.515 51.789 477.416 51.491 476.523 47.919 476.523 47.919 476.424 47.522 475.928 47.125 475.333 47.125 474.638 47.125 474.043 47.721 474.043 48.415ZM171.917 122.725C171.917 125.503 174.1 127.686 176.878 127.686 179.656 127.686 181.838 125.503 181.838 122.725 181.838 119.947 179.656 117.764 176.878 117.764 174.1 117.764 171.917 119.947 171.917 122.725" style="fill-rule:nonzero"/>
</svg>
