<?xml version="1.0" encoding="UTF-8" standalone="no"?>
<svg xmlns="http://www.w3.org/2000/svg" xml:space="preserve" style="fill-rule:evenodd;clip-rule:evenodd;stroke-linejoin:round;stroke-miterlimit:2" viewBox="0 0 789 177">
<title>A bar of music demonstrating a scale made up of C, D, E flat, G, A flat, and C.</title>
  <path d="M -0.00154082 34.824 L 787.748 34.824 L 787.748 37.005 L -0.00154082 37.005 Z M -0.00154082 59.628 L 787.748 59.628 L 787.748 61.809 L -0.00154082 61.809 Z M -0.00154082 84.431 L 787.748 84.431 L 787.748 86.612 L -0.00154082 86.612 Z M -0.00154082 109.234 L 787.748 109.234 L 787.748 111.415 L -0.00154082 111.415 Z M -0.00154082 134.037 L 787.748 134.037 L 787.748 136.218 L -0.00154082 136.218 Z"/>
  <path d="M 770.067 34.55 L 774.527 34.55 L 774.527 136.491 L 770.067 136.491 Z M 783.707 34.55 L 788.167 34.55 L 788.167 136.491 L 783.707 136.491 Z"/>
  <path d="M331.07 119.749C326.109 119.749 323.232 122.825 322.736 123.42L323.133 91.573C323.133 90.779 322.537 90.184 321.744 90.184L320.553 90.184C319.759 90.184 319.164 90.779 319.164 91.573L319.66 151.2C319.66 151.993 320.255 152.588 321.049 152.588 321.247 152.588 321.644 152.489 321.843 152.39 330.375 148.124 339.304 139.988 339.304 129.769 339.304 124.61 336.923 119.749 331.07 119.749M322.438 147.727 322.736 128.381C322.934 127.488 324.422 124.61 328.391 124.61 331.962 124.61 332.26 127.984 332.26 130.067 332.26 138.897 328.986 142.568 322.438 147.727M543.35 82.544C538.389 82.544 535.512 85.62 535.016 86.215L535.413 54.368C535.413 53.574 534.817 52.979 534.024 52.979L532.833 52.979C532.039 52.979 531.444 53.574 531.444 54.368L531.94 113.995C531.94 114.788 532.535 115.383 533.329 115.383 533.527 115.383 533.924 115.284 534.123 115.185 542.655 110.919 551.584 102.783 551.584 92.565 551.584 87.405 549.203 82.544 543.35 82.544M534.718 110.522 535.016 91.176C535.214 90.283 536.702 87.405 540.671 87.405 544.242 87.405 544.54 90.779 544.54 92.862 544.54 101.692 541.266 105.363 534.718 110.522" style="fill-rule:nonzero"/>
  <path d="M 124.54 157.945 L 174.139 157.945 L 174.139 161.915 L 124.54 161.915 Z M 162.728 73.119 L 165.458 73.119 L 165.458 155.962 L 162.728 155.962 Z M 268.869 60.718 L 271.599 60.718 L 271.599 143.56 L 268.869 143.56 Z M 375.009 48.316 L 377.739 48.316 L 377.739 131.159 L 375.009 131.159 Z M 481.149 23.513 L 483.879 23.513 L 483.879 106.355 L 481.149 106.355 Z M 587.289 17.312 L 590.019 17.312 L 590.019 93.954 L 587.289 93.954 Z M 663.927 77.286 L 666.657 77.286 L 666.657 153.729 L 663.927 153.729 Z"/>
  <path d="M133.221 164.097C133.221 168.363 136.297 173.125 144.333 173.125 154.651 173.125 165.465 164.692 165.465 155.961 165.465 150.108 160.505 146.834 154.353 146.834 144.73 146.834 133.221 154.969 133.221 164.097M239.361 151.696C239.361 155.962 242.437 160.724 250.473 160.724 260.791 160.724 271.605 152.291 271.605 143.56 271.605 137.707 266.645 134.433 260.493 134.433 250.87 134.433 239.361 142.568 239.361 151.696M345.502 139.294C345.502 143.56 348.578 148.322 356.614 148.322 366.932 148.322 377.746 139.889 377.746 131.158 377.746 125.305 372.786 122.031 366.634 122.031 357.011 122.031 345.502 130.166 345.502 139.294M451.642 114.491C451.642 118.757 454.718 123.519 462.754 123.519 473.072 123.519 483.886 115.086 483.886 106.355 483.886 100.502 478.926 97.228 472.774 97.228 463.151 97.228 451.642 105.363 451.642 114.491M557.782 102.089C557.782 106.355 560.858 111.117 568.894 111.117 579.212 111.117 590.026 102.684 590.026 93.954 590.026 88.1 585.066 84.826 578.914 84.826 569.291 84.826 557.782 92.961 557.782 102.089M663.916 77.286C663.916 81.552 666.992 86.314 675.028 86.314 685.346 86.314 696.16 77.881 696.16 69.151 696.16 63.297 691.2 60.023 685.048 60.023 675.425 60.023 663.916 68.158 663.916 77.286M32.046 161.22C32.046 167.768 37.007 176.4 50.401 176.4 55.064 176.4 59.131 175.209 62.703 173.027 68.061 169.257 69.45 162.708 69.45 156.458 69.45 152.589 68.854 148.124 67.862 142.469 67.565 140.485 66.969 137.508 66.374 133.639 76.097 130.464 83.339 120.345 83.339 110.126 83.339 95.144 72.724 85.025 58.238 85.025 57.246 79.072 56.254 73.218 55.461 67.662 65.878 56.65 73.12 44.248 73.12 28.473 73.12 19.445 70.342 12.103 68.755 8.531 66.374 3.472 63.497-.001 61.711-.001 61.016-.001 57.941 1.19 54.667 5.059 48.317 12.599 46.531 25.299 46.531 33.632 46.531 38.99 47.027 43.851 48.714 54.963 48.615 55.062 43.456 60.321 41.372 62.007 32.344 70.341 19.843 82.445 19.843 102.288 19.843 120.841 36.015 135.425 54.468 135.425 57.346 135.425 60.024 135.127 62.306 134.73 64.191 144.255 65.382 151.2 65.382 156.458 65.382 166.776 60.024 172.233 50.004 172.233 47.623 172.233 45.539 171.737 45.341 171.737 45.242 171.638 45.043 171.538 45.043 171.439 45.043 171.241 45.242 171.142 45.539 171.142 50.202 170.348 54.865 166.379 54.865 160.03 54.865 154.672 50.798 149.017 43.357 149.017 36.412 149.017 32.046 154.672 32.046 161.22M52.782 28.771C53.675 24.802 58.238 14.385 63.398 14.385 64.886 14.385 67.267 19.147 67.267 26.092 67.267 36.41 59.627 44.149 52.782 50.895 52.186 46.927 51.69 43.058 51.69 38.891 51.69 35.22 51.988 31.847 52.782 28.771M61.513 130.762C59.528 131.159 57.643 131.357 55.758 131.357 41.571 131.357 29.467 121.436 29.467 106.455 29.467 94.351 37.999 83.537 46.73 75.996 48.416 74.508 50.004 73.119 51.492 71.631 52.385 76.988 53.079 81.651 53.774 85.719 44.746 88.398 38.594 97.922 38.594 107.248 38.594 114.193 44.051 123.718 51.988 123.718 52.782 123.718 53.675 123.321 53.675 122.428 53.675 121.535 52.683 121.039 51.492 120.245 47.623 117.864 45.44 115.285 45.44 110.423 45.44 104.371 50.004 99.51 55.758 98.121ZM75.601 112.407C75.601 119.452 72.724 126.694 65.679 129.571 63.596 117.666 60.917 101.891 60.223 97.526 69.152 97.526 75.601 103.578 75.601 112.407" style="fill-rule:nonzero"/>
</svg>
