<?xml version="1.0" encoding="UTF-8" standalone="no"?>
<svg xmlns="http://www.w3.org/2000/svg" xml:space="preserve" style="fill-rule:evenodd;clip-rule:evenodd;stroke-linejoin:round;stroke-miterlimit:2" viewBox="0 0 684 177">
<title>A bar of music showing the chromatic progression E flat, E natural, F, and E.</title>
  <path d="M -0.00076144 34.549 L 683.417 34.549 L 683.417 37.279 L -0.00076144 37.279 Z M -0.00076144 59.353 L 683.417 59.353 L 683.417 62.083 L -0.00076144 62.083 Z M -0.00076144 84.156 L 683.417 84.156 L 683.417 86.886 L -0.00076144 86.886 Z M -0.00076144 108.959 L 683.417 108.959 L 683.417 111.689 L -0.00076144 111.689 Z M -0.00076144 133.762 L 683.417 133.762 L 683.417 136.492 L -0.00076144 136.492 Z"/>
  <path d="M 679.516 34.55 L 683.976 34.55 L 683.976 136.491 L 679.516 136.491 Z"/>
  <path d="M113.839 119.749C108.878 119.749 106.001 122.825 105.505 123.42L105.902 91.573C105.902 90.779 105.306 90.184 104.513 90.184L103.322 90.184C102.528 90.184 101.933 90.779 101.933 91.573L102.429 151.2C102.429 151.993 103.024 152.588 103.818 152.588 104.016 152.588 104.413 152.489 104.612 152.39 113.144 148.124 122.073 139.988 122.073 129.769 122.073 124.61 119.692 119.749 113.839 119.749M105.207 147.727 105.505 128.381C105.703 127.488 107.191 124.61 111.16 124.61 114.731 124.61 115.029 127.984 115.029 130.067 115.029 138.897 111.755 142.568 105.207 147.727M283.947 116.971C283.749 116.773 283.451 116.673 283.054 116.673L282.856 116.773 282.757 116.773 270.256 120.245 270.256 102.883 267.478 102.883 267.478 151.993C267.478 153.085 268.371 153.283 269.264 153.283L281.765 149.811 281.765 167.173 284.443 167.173 284.443 118.062C284.443 117.666 284.245 117.169 283.947 116.971M270.256 144.751 270.256 128.48 281.765 125.206 281.765 141.576ZM373.967 104.569C373.769 104.371 373.471 104.271 373.074 104.271L372.876 104.371 372.777 104.371 360.276 107.843 360.276 90.481 357.498 90.481 357.498 139.591C357.498 140.683 358.391 140.881 359.284 140.881L371.785 137.409 371.785 154.771 374.463 154.771 374.463 105.66C374.463 105.264 374.265 104.767 373.967 104.569M360.276 132.349 360.276 116.078 371.785 112.804 371.785 129.174Z" style="fill-rule:nonzero"/>
  <path d="M 157.778 48.316 L 160.508 48.316 L 160.508 131.159 L 157.778 131.159 Z M 320.145 48.514 L 322.875 48.514 L 322.875 131.159 L 320.145 131.159 Z M 410.165 36.113 L 412.895 36.113 L 412.895 118.757 L 410.165 118.757 Z M 495.553 48.316 L 498.283 48.316 L 498.283 131.159 L 495.553 131.159 Z"/>
  <path d="M128.271 139.294C128.271 143.56 131.347 148.322 139.383 148.322 149.701 148.322 160.515 139.889 160.515 131.158 160.515 125.305 155.555 122.031 149.403 122.031 139.78 122.031 128.271 130.166 128.271 139.294M290.638 139.294C290.638 143.56 293.714 148.322 301.75 148.322 312.068 148.322 322.882 139.889 322.882 131.158 322.882 125.305 317.922 122.031 311.77 122.031 302.147 122.031 290.638 130.166 290.638 139.294M380.658 126.892C380.658 131.158 383.734 135.92 391.77 135.92 402.088 135.92 412.902 127.487 412.902 118.756 412.902 112.903 407.942 109.629 401.79 109.629 392.167 109.629 380.658 117.764 380.658 126.892M466.046 139.294C466.046 143.56 469.122 148.322 477.158 148.322 487.476 148.322 498.29 139.889 498.29 131.158 498.29 125.305 493.33 122.031 487.178 122.031 477.555 122.031 466.046 130.166 466.046 139.294M32.046 161.22C32.046 167.768 37.007 176.4 50.401 176.4 55.064 176.4 59.131 175.209 62.703 173.027 68.061 169.257 69.45 162.708 69.45 156.458 69.45 152.589 68.854 148.124 67.862 142.469 67.565 140.485 66.969 137.508 66.374 133.639 76.097 130.464 83.339 120.345 83.339 110.126 83.339 95.144 72.724 85.025 58.238 85.025 57.246 79.072 56.254 73.218 55.461 67.662 65.878 56.65 73.12 44.248 73.12 28.473 73.12 19.445 70.342 12.103 68.755 8.531 66.374 3.472 63.497-.001 61.711-.001 61.016-.001 57.941 1.19 54.667 5.059 48.317 12.599 46.531 25.299 46.531 33.632 46.531 38.99 47.027 43.851 48.714 54.963 48.615 55.062 43.456 60.321 41.372 62.007 32.344 70.341 19.843 82.445 19.843 102.288 19.843 120.841 36.015 135.425 54.468 135.425 57.346 135.425 60.024 135.127 62.306 134.73 64.191 144.255 65.382 151.2 65.382 156.458 65.382 166.776 60.024 172.233 50.004 172.233 47.623 172.233 45.539 171.737 45.341 171.737 45.242 171.638 45.043 171.538 45.043 171.439 45.043 171.241 45.242 171.142 45.539 171.142 50.202 170.348 54.865 166.379 54.865 160.03 54.865 154.672 50.798 149.017 43.357 149.017 36.412 149.017 32.046 154.672 32.046 161.22M52.782 28.771C53.675 24.802 58.238 14.385 63.398 14.385 64.886 14.385 67.267 19.147 67.267 26.092 67.267 36.41 59.627 44.149 52.782 50.895 52.186 46.927 51.69 43.058 51.69 38.891 51.69 35.22 51.988 31.847 52.782 28.771M61.513 130.762C59.528 131.159 57.643 131.357 55.758 131.357 41.571 131.357 29.467 121.436 29.467 106.455 29.467 94.351 37.999 83.537 46.73 75.996 48.416 74.508 50.004 73.119 51.492 71.631 52.385 76.988 53.079 81.651 53.774 85.719 44.746 88.398 38.594 97.922 38.594 107.248 38.594 114.193 44.051 123.718 51.988 123.718 52.782 123.718 53.675 123.321 53.675 122.428 53.675 121.535 52.683 121.039 51.492 120.245 47.623 117.864 45.44 115.285 45.44 110.423 45.44 104.371 50.004 99.51 55.758 98.121ZM75.601 112.407C75.601 119.452 72.724 126.694 65.679 129.571 63.596 117.666 60.917 101.891 60.223 97.526 69.152 97.526 75.601 103.578 75.601 112.407M620.618 65.381C620.519 65.381 620.32 65.281 620.221 65.281 619.626 65.281 619.13 65.579 618.931 66.075 616.649 70.639 611.887 76.79 606.53 77.782 607.621 76.493 608.315 74.905 608.315 73.02 608.315 69.151 605.141 65.976 601.271 65.976 597.303 65.976 594.128 69.151 594.128 73.02 594.128 78.378 599.386 80.858 604.049 80.858 609.308 80.858 612.78 78.378 616.153 74.707L604.843 110.027 607.522 110.82 621.412 67.067C621.511 66.968 621.511 66.77 621.511 66.571 621.511 66.075 621.213 65.678 620.618 65.381M320.146 70.837C320.146 71.135 320.245 71.73 320.94 71.929 325.206 73.318 333.738 78.675 340.187 89.688 341.973 92.763 344.85 97.03 344.85 105.264 344.85 112.408 343.064 119.749 340.385 126.893 340.187 127.488 340.088 127.984 340.088 128.381 340.088 129.075 340.485 129.373 341.179 129.373 341.774 129.373 342.27 128.976 342.667 128.282 347.132 120.345 348.819 111.118 348.819 102.089 348.322 89.291 340.981 79.866 340.981 79.866 341.278 79.866 331.853 67.663 329.174 63.496 325.504 57.84 323.817 52.185 323.618 51.789 323.519 51.491 322.626 47.919 322.626 47.919 322.527 47.522 322.031 47.125 321.436 47.125 320.741 47.125 320.146 47.721 320.146 48.415ZM410.166 58.435C410.166 58.733 410.265 59.328 410.96 59.527 415.226 60.916 423.758 66.273 430.207 77.286 431.993 80.361 434.87 84.628 434.87 92.862 434.87 100.006 433.084 107.347 430.405 114.491 430.207 115.086 430.108 115.582 430.108 115.979 430.108 116.673 430.505 116.971 431.199 116.971 431.794 116.971 432.29 116.574 432.687 115.88 437.152 107.943 438.839 98.716 438.839 89.687 438.342 76.889 431.001 67.464 431.001 67.464 431.298 67.464 421.873 55.261 419.194 51.094 415.524 45.438 413.837 39.783 413.638 39.387 413.539 39.089 412.646 35.517 412.646 35.517 412.547 35.12 412.051 34.723 411.456 34.723 410.761 34.723 410.166 35.319 410.166 36.013ZM172.909 122.725C172.909 125.503 175.092 127.686 177.87 127.686 180.648 127.686 182.83 125.503 182.83 122.725 182.83 119.947 180.648 117.764 177.87 117.764 175.092 117.764 172.909 119.947 172.909 122.725" style="fill-rule:nonzero"/>
</svg>
