<?xml version="1.0" encoding="UTF-8" standalone="no"?>
<svg xmlns="http://www.w3.org/2000/svg" xml:space="preserve" style="fill-rule:evenodd;clip-rule:evenodd;stroke-linejoin:round;stroke-miterlimit:2" viewBox="0 0 594 181">
<title>A bar of music showing the diatonic progression D sharp, E, F sharp, and E.</title>
  <path d="M -0.00020414 34.549 L 593.466 34.549 L 593.466 37.279 L -0.00020414 37.279 Z M -0.00020414 59.353 L 593.466 59.353 L 593.466 62.083 L -0.00020414 62.083 Z M -0.00020414 84.156 L 593.466 84.156 L 593.466 86.886 L -0.00020414 86.886 Z M -0.00020414 108.959 L 593.466 108.959 L 593.466 111.689 L -0.00020414 111.689 Z M -0.00020414 133.762 L 593.466 133.762 L 593.466 136.492 L -0.00020414 136.492 Z"/>
  <path d="M 575.604 34.55 L 580.064 34.55 L 580.064 136.491 L 575.604 136.491 Z M 589.242 34.55 L 593.702 34.55 L 593.702 136.491 L 589.242 136.491 Z"/>
  <path d="M137.552 137.112C138.147 137.012 138.643 136.318 138.643 135.723L138.643 129.869C138.643 128.877 137.948 128.48 137.056 128.48L133.782 129.175 133.782 114.392 131.004 114.392 131.004 129.77 122.174 131.556 122.174 117.567 119.396 117.567 119.396 132.151 115.526 132.945C114.931 133.044 114.435 133.738 114.435 134.334L114.435 140.088C114.435 141.179 115.229 141.477 116.122 141.477L119.396 140.783 119.396 157.153 115.526 157.946C114.931 158.046 114.435 158.74 114.435 159.335L114.435 165.09C114.435 166.181 115.229 166.479 116.122 166.479L119.396 165.784 119.396 180.567 122.174 180.567 122.174 165.189 131.004 163.403 131.004 177.392 133.782 177.392 133.782 162.808 137.552 162.113C138.147 162.014 138.643 161.32 138.643 160.724L138.643 154.871C138.643 153.879 137.948 153.482 137.056 153.482L133.782 154.176 133.782 137.806ZM122.174 140.187 131.004 138.401 131.004 154.772 122.174 156.657ZM352.932 112.308C353.527 112.208 354.023 111.514 354.023 110.919L354.023 105.065C354.023 104.073 353.328 103.676 352.436 103.676L349.162 104.371 349.162 89.588 346.384 89.588 346.384 104.966 337.554 106.752 337.554 92.763 334.776 92.763 334.776 107.347 330.906 108.141C330.311 108.24 329.815 108.934 329.815 109.53L329.815 115.284C329.815 116.375 330.609 116.673 331.502 116.673L334.776 115.979 334.776 132.349 330.906 133.142C330.311 133.242 329.815 133.936 329.815 134.531L329.815 140.286C329.815 141.377 330.609 141.675 331.502 141.675L334.776 140.98 334.776 155.763 337.554 155.763 337.554 140.385 346.384 138.599 346.384 152.588 349.162 152.588 349.162 138.004 352.932 137.309C353.527 137.21 354.023 136.516 354.023 135.92L354.023 130.067C354.023 129.075 353.328 128.678 352.436 128.678L349.162 129.372 349.162 113.002ZM337.554 115.383 346.384 113.597 346.384 129.968 337.554 131.853Z" style="fill-rule:nonzero"/>
  <path d="M 174.349 42.115 L 177.079 42.115 L 177.079 143.56 L 174.349 143.56 Z M 282.039 42.115 L 284.769 42.115 L 284.769 131.159 L 282.039 131.159 Z M 389.729 42.115 L 392.459 42.115 L 392.459 118.757 L 389.729 118.757 Z M 497.419 42.115 L 500.149 42.115 L 500.149 131.159 L 497.419 131.159 Z"/>
  <path d="M144.842 151.696C144.842 155.962 147.918 160.724 155.954 160.724 166.272 160.724 177.086 152.291 177.086 143.56 177.086 137.707 172.126 134.433 165.974 134.433 156.351 134.433 144.842 142.568 144.842 151.696M252.532 139.294C252.532 143.56 255.608 148.322 263.644 148.322 273.962 148.322 284.776 139.889 284.776 131.158 284.776 125.305 279.816 122.031 273.664 122.031 264.041 122.031 252.532 130.166 252.532 139.294M360.222 126.892C360.222 131.158 363.298 135.92 371.334 135.92 381.652 135.92 392.466 127.487 392.466 118.756 392.466 112.903 387.506 109.629 381.354 109.629 371.731 109.629 360.222 117.764 360.222 126.892M467.912 139.294C467.912 143.56 470.988 148.322 479.024 148.322 489.342 148.322 500.156 139.889 500.156 131.158 500.156 125.305 495.196 122.031 489.044 122.031 479.421 122.031 467.912 130.166 467.912 139.294M32.046 161.22C32.046 167.768 37.007 176.4 50.401 176.4 55.064 176.4 59.131 175.209 62.703 173.027 68.061 169.257 69.45 162.708 69.45 156.458 69.45 152.589 68.854 148.124 67.862 142.469 67.565 140.485 66.969 137.508 66.374 133.639 76.097 130.464 83.339 120.345 83.339 110.126 83.339 95.144 72.724 85.025 58.238 85.025 57.246 79.072 56.254 73.218 55.461 67.662 65.878 56.65 73.12 44.248 73.12 28.473 73.12 19.445 70.342 12.103 68.755 8.531 66.374 3.472 63.497-.001 61.711-.001 61.016-.001 57.941 1.19 54.667 5.059 48.317 12.599 46.531 25.299 46.531 33.632 46.531 38.99 47.027 43.851 48.714 54.963 48.615 55.062 43.456 60.321 41.372 62.007 32.344 70.341 19.843 82.445 19.843 102.288 19.843 120.841 36.015 135.425 54.468 135.425 57.346 135.425 60.024 135.127 62.306 134.73 64.191 144.255 65.382 151.2 65.382 156.458 65.382 166.776 60.024 172.233 50.004 172.233 47.623 172.233 45.539 171.737 45.341 171.737 45.242 171.638 45.043 171.538 45.043 171.439 45.043 171.241 45.242 171.142 45.539 171.142 50.202 170.348 54.865 166.379 54.865 160.03 54.865 154.672 50.798 149.017 43.357 149.017 36.412 149.017 32.046 154.672 32.046 161.22M52.782 28.771C53.675 24.802 58.238 14.385 63.398 14.385 64.886 14.385 67.267 19.147 67.267 26.092 67.267 36.41 59.627 44.149 52.782 50.895 52.186 46.927 51.69 43.058 51.69 38.891 51.69 35.22 51.988 31.847 52.782 28.771M61.513 130.762C59.528 131.159 57.643 131.357 55.758 131.357 41.571 131.357 29.467 121.436 29.467 106.455 29.467 94.351 37.999 83.537 46.73 75.996 48.416 74.508 50.004 73.119 51.492 71.631 52.385 76.988 53.079 81.651 53.774 85.719 44.746 88.398 38.594 97.922 38.594 107.248 38.594 114.193 44.051 123.718 51.988 123.718 52.782 123.718 53.675 123.321 53.675 122.428 53.675 121.535 52.683 121.039 51.492 120.245 47.623 117.864 45.44 115.285 45.44 110.423 45.44 104.371 50.004 99.51 55.758 98.121ZM75.601 112.407C75.601 119.452 72.724 126.694 65.679 129.571 63.596 117.666 60.917 101.891 60.223 97.526 69.152 97.526 75.601 103.578 75.601 112.407" style="fill-rule:nonzero"/>
  <path d="M 174.35 35.914 L 500.148 35.914 L 500.148 48.316 L 174.35 48.316 Z"/>
</svg>
