<?xml version="1.0" encoding="utf-8"?>
<svg xmlns="http://www.w3.org/2000/svg" style="fill-rule:evenodd;clip-rule:evenodd;stroke-linejoin:round;stroke-miterlimit:2" xml:space="preserve" viewBox="0 0 1205 254">
	<title>Two bars of music for voice with the lyrics "O Mohamed Allah"</title>
	<path d="M 0.00114888 34.549 L 1203.89 34.549 L 1203.89 37.279 L 0.00114888 37.279 Z M 0.00114888 59.353 L 1203.89 59.353 L 1203.89 62.083 L 0.00114888 62.083 Z M 0.00114888 84.156 L 1203.89 84.156 L 1203.89 86.886 L 0.00114888 86.886 Z M 0.00114888 108.959 L 1203.89 108.959 L 1203.89 111.689 L 0.00114888 111.689 Z M 0.00114888 133.762 L 1203.89 133.762 L 1203.89 136.492 L 0.00114888 136.492 Z"/>
	<path d="M 712.766 34.55 L 717.226 34.55 L 717.226 136.491 L 712.766 136.491 Z M 749.476 64.884 L 752.206 64.884 L 752.206 147.638 L 749.476 147.638 Z M 392.958 17.51 L 395.688 17.51 L 395.688 93.954 L 392.958 93.954 Z M 483.061 89.688 L 485.791 89.688 L 485.791 159.93 L 483.061 159.93 Z M 597.912 64.884 L 600.642 64.884 L 600.642 147.529 L 597.912 147.529 Z M 826.036 77.286 L 828.766 77.286 L 828.766 153.766 L 826.036 153.766 Z M 902.616 89.688 L 905.346 89.688 L 905.346 159.894 L 902.616 159.894 Z M 979.176 102.089 L 981.906 102.089 L 981.906 166.022 L 979.176 166.022 Z M 1085.26 23.513 L 1087.99 23.513 L 1087.99 106.355 L 1085.26 106.355 Z M 247.364 23.513 L 250.094 23.513 L 250.094 106.355 L 247.364 106.355 Z"/>
	<path d="M363.451 102.089C363.451 106.355 366.527 111.117 374.563 111.117 384.881 111.117 395.695 102.684 395.695 93.954 395.695 88.1 390.735 84.826 384.583 84.826 374.96 84.826 363.451 92.961 363.451 102.089M483.062 89.688C483.062 93.954 486.138 98.716 494.174 98.716 504.492 98.716 515.306 90.283 515.306 81.553 515.306 75.699 510.346 72.425 504.194 72.425 494.571 72.425 483.062 80.56 483.062 89.688M597.913 64.885C597.913 69.151 600.989 73.913 609.025 73.913 619.343 73.913 630.157 65.48 630.157 56.75 630.157 50.896 625.197 47.622 619.045 47.622 609.422 47.622 597.913 55.757 597.913 64.885M217.857 114.491C217.857 118.757 220.933 123.519 228.969 123.519 239.287 123.519 250.101 115.086 250.101 106.355 250.101 100.502 245.141 97.228 238.989 97.228 229.366 97.228 217.857 105.363 217.857 114.491M749.476 64.885C749.476 69.151 752.552 73.913 760.588 73.913 770.906 73.913 781.72 65.48 781.72 56.75 781.72 50.896 776.76 47.622 770.608 47.622 760.985 47.622 749.476 55.757 749.476 64.885M826.036 77.286C826.036 81.552 829.112 86.314 837.148 86.314 847.466 86.314 858.28 77.881 858.28 69.151 858.28 63.297 853.32 60.023 847.168 60.023 837.545 60.023 826.036 68.158 826.036 77.286M902.606 89.688C902.606 93.954 905.682 98.716 913.718 98.716 924.036 98.716 934.85 90.283 934.85 81.553 934.85 75.699 929.89 72.425 923.738 72.425 914.115 72.425 902.606 80.56 902.606 89.688M979.176 102.089C979.176 106.355 982.252 111.117 990.288 111.117 1000.61 111.117 1011.42 102.684 1011.42 93.954 1011.42 88.1 1006.46 84.826 1000.31 84.826 990.685 84.826 979.176 92.961 979.176 102.089M1076.88 97.228C1067.26 97.228 1055.75 105.264 1055.75 114.491 1055.75 118.757 1058.83 123.519 1066.86 123.519 1077.18 123.519 1087.99 115.086 1087.99 106.355 1087.99 100.502 1083.03 97.228 1076.88 97.228M1063.19 118.856C1059.92 118.856 1059.22 116.178 1059.22 115.285 1059.22 110.423 1075.89 101.891 1080.55 101.891 1082.93 101.891 1084.52 103.28 1084.52 105.463 1084.52 110.423 1067.75 118.856 1063.19 118.856M32.046 161.22C32.046 167.768 37.007 176.4 50.401 176.4 55.064 176.4 59.131 175.209 62.703 173.027 68.061 169.257 69.45 162.708 69.45 156.458 69.45 152.589 68.854 148.124 67.862 142.469 67.565 140.485 66.969 137.508 66.374 133.639 76.097 130.464 83.339 120.345 83.339 110.126 83.339 95.144 72.724 85.025 58.238 85.025 57.246 79.072 56.254 73.218 55.461 67.662 65.878 56.65 73.12 44.248 73.12 28.473 73.12 19.445 70.342 12.103 68.755 8.531 66.374 3.472 63.497-.001 61.711-.001 61.016-.001 57.941 1.19 54.667 5.059 48.317 12.599 46.531 25.299 46.531 33.632 46.531 38.99 47.027 43.851 48.714 54.963 48.615 55.062 43.456 60.321 41.372 62.007 32.344 70.341 19.843 82.445 19.843 102.288 19.843 120.841 36.015 135.425 54.468 135.425 57.346 135.425 60.024 135.127 62.306 134.73 64.191 144.255 65.382 151.2 65.382 156.458 65.382 166.776 60.024 172.233 50.004 172.233 47.623 172.233 45.539 171.737 45.341 171.737 45.242 171.638 45.043 171.538 45.043 171.439 45.043 171.241 45.242 171.142 45.539 171.142 50.202 170.348 54.865 166.379 54.865 160.03 54.865 154.672 50.798 149.017 43.357 149.017 36.412 149.017 32.046 154.672 32.046 161.22M52.782 28.771C53.675 24.802 58.238 14.385 63.398 14.385 64.886 14.385 67.267 19.147 67.267 26.092 67.267 36.41 59.627 44.149 52.782 50.895 52.186 46.927 51.69 43.058 51.69 38.891 51.69 35.22 51.988 31.847 52.782 28.771M61.513 130.762C59.528 131.159 57.643 131.357 55.758 131.357 41.571 131.357 29.467 121.436 29.467 106.455 29.467 94.351 37.999 83.537 46.73 75.996 48.416 74.508 50.004 73.119 51.492 71.631 52.385 76.988 53.079 81.651 53.774 85.719 44.746 88.398 38.594 97.922 38.594 107.248 38.594 114.193 44.051 123.718 51.988 123.718 52.782 123.718 53.675 123.321 53.675 122.428 53.675 121.535 52.683 121.039 51.492 120.245 47.623 117.864 45.44 115.285 45.44 110.423 45.44 104.371 50.004 99.51 55.758 98.121ZM75.601 112.407C75.601 119.452 72.724 126.694 65.679 129.571 63.596 117.666 60.917 101.891 60.223 97.526 69.152 97.526 75.601 103.578 75.601 112.407M120.04 70.143C115.079 70.143 112.202 73.219 111.706 73.814L112.103 41.967C112.103 41.173 111.507 40.578 110.714 40.578L109.523 40.578C108.729 40.578 108.134 41.173 108.134 41.967L108.63 101.594C108.63 102.387 109.225 102.982 110.019 102.982 110.217 102.982 110.614 102.883 110.813 102.784 119.345 98.518 128.274 90.382 128.274 80.164 128.274 75.004 125.893 70.143 120.04 70.143M111.408 98.121 111.706 78.775C111.904 77.882 113.392 75.004 117.361 75.004 120.932 75.004 121.23 78.378 121.23 80.461 121.23 89.291 117.956 92.962 111.408 98.121M147.603 32.938C142.642 32.938 139.765 36.014 139.269 36.609L139.666 4.761C139.666 3.968 139.07 3.373 138.277 3.373L137.086 3.373C136.292 3.373 135.697 3.968 135.697 4.761L136.193 64.388C136.193 65.182 136.788 65.778 137.582 65.778 137.78 65.778 138.177 65.678 138.376 65.579 146.908 61.313 155.837 53.177 155.837 42.959 155.837 37.799 153.456 32.938 147.603 32.938M138.971 60.916 139.269 41.57C139.467 40.677 140.955 37.799 144.924 37.799 148.495 37.799 148.793 41.173 148.793 43.256 148.793 52.086 145.519 55.757 138.971 60.916" style="fill-rule:nonzero"/>
	<path d="M 749.476 141.308 L 981.906 159.91 L 981.906 172.352 L 749.476 153.749 Z"/>
	<path d="M392.959 39.833C392.959 40.131 393.058 40.726 393.753 40.925 398.019 42.314 406.551 47.671 413 58.684 414.786 61.759 417.663 66.026 417.663 74.26 417.663 81.404 415.877 88.745 413.198 95.889 413 96.484 412.901 96.98 412.901 97.377 412.901 98.071 413.298 98.369 413.992 98.369 414.587 98.369 415.083 97.972 415.48 97.278 419.945 89.341 421.632 80.114 421.632 71.085 421.135 58.287 413.794 48.862 413.794 48.862 414.091 48.862 404.666 36.659 401.987 32.492 398.317 26.836 396.63 21.181 396.431 20.785 396.332 20.487 395.439 16.915 395.439 16.915 395.34 16.518 394.844 16.121 394.249 16.121 393.554 16.121 392.959 16.717 392.959 17.411ZM231.344 215.545C220.794 215.545 213.944 224.195 213.944 234.395 213.944 244.345 220.794 253.145 231.144 253.145 240.944 253.145 248.344 245.045 248.344 234.345 248.344 223.745 240.944 215.545 231.344 215.545M231.294 217.895C234.644 217.895 237.444 219.445 239.244 222.195 241.094 225.145 241.744 228.195 241.744 234.345 241.744 240.445 241.094 243.495 239.244 246.495 237.444 249.295 234.694 250.795 231.144 250.795 227.594 250.795 224.844 249.345 223.044 246.495 221.144 243.495 220.544 240.445 220.544 234.245 220.544 228.195 221.194 225.195 223.044 222.195 224.894 219.295 227.544 217.895 231.294 217.895M362.169 216.295 349.269 216.295 349.269 218.645 350.219 218.645C353.069 218.695 354.019 218.845 354.369 219.345 354.719 219.795 354.719 219.845 354.719 222.445L354.719 241.595C354.719 248.395 353.769 249.795 348.919 250.045L348.919 252.395 363.169 252.395 363.169 250.045C358.369 249.795 357.419 248.395 357.419 241.595L357.419 219.495 369.319 252.395 371.319 252.395 382.469 219.495 382.469 246.245C382.469 248.795 382.469 248.895 382.169 249.395 381.769 249.895 380.819 250.045 377.969 250.045L377.069 250.045 377.069 252.395 393.469 252.395 393.469 250.045 392.569 250.045C389.719 250.045 388.769 249.895 388.369 249.395 388.069 248.895 388.069 248.845 388.069 246.245L388.069 222.445C388.069 219.895 388.069 219.795 388.369 219.345 388.769 218.845 389.719 218.695 392.569 218.645L393.469 218.645 393.469 216.295 380.919 216.295 371.769 242.945ZM407.606 228.345C401.456 228.345 396.706 233.795 396.706 240.795 396.706 247.645 401.506 253.145 407.506 253.145 413.506 253.145 418.306 247.645 418.306 240.745 418.306 233.895 413.506 228.345 407.606 228.345M407.606 230.495C411.106 230.495 413.056 234.145 413.056 240.745 413.056 247.395 411.106 250.995 407.506 250.995 403.906 250.995 401.956 247.395 401.956 240.795 401.956 233.995 403.856 230.495 407.606 230.495M435.997 238.495 435.997 242.645 448.447 242.645 448.447 238.495ZM474.428 215.545 465.178 216.095 465.178 218.245 467.578 218.245C469.478 218.295 469.728 218.595 469.728 220.745L469.728 248.645C469.678 249.345 469.628 249.645 469.428 249.895 469.078 250.345 468.128 250.545 465.978 250.595L465.778 250.595 465.778 252.395 478.428 252.395 478.428 250.595 478.228 250.595C474.878 250.495 474.428 250.245 474.428 248.445L474.428 241.045C474.428 238.595 474.778 236.345 475.328 235.195 476.428 232.945 478.628 231.395 480.778 231.395 482.078 231.395 483.578 232.145 484.278 233.145 485.078 234.245 485.428 235.745 485.428 238.195L485.428 248.645C485.378 249.345 485.328 249.645 485.128 249.895 484.778 250.345 483.778 250.545 481.628 250.595L481.428 250.595 481.428 252.395 494.078 252.395 494.078 250.595 493.878 250.595C490.578 250.495 490.128 250.245 490.128 248.445L490.128 238.395C490.128 234.795 489.978 233.895 489.078 232.195 487.828 229.745 485.328 228.345 482.328 228.345 479.078 228.345 476.678 229.795 474.428 233.145ZM517.575 236.295C517.575 233.145 517.025 231.545 515.575 230.345 513.925 228.995 511.475 228.345 508.275 228.345 502.625 228.345 498.525 230.995 498.525 234.645 498.525 236.495 499.675 237.695 501.425 237.695 503.025 237.695 504.125 236.645 504.125 235.145 504.125 234.495 503.875 233.795 503.375 233.095 503.075 232.745 503.025 232.645 503.025 232.395 503.025 231.395 505.025 230.495 507.425 230.495 509.025 230.495 510.775 230.995 511.575 231.745 512.525 232.545 512.875 233.745 512.875 235.995L512.875 237.945C507.675 238.845 506.025 239.245 503.575 240.195 499.225 241.795 497.175 244.095 497.175 247.295 497.175 250.895 499.975 253.145 504.425 253.145 507.875 253.145 510.975 251.745 513.125 249.195 513.925 251.745 515.175 252.745 517.525 252.745 519.775 252.745 522.125 251.295 522.125 249.845 522.125 249.495 521.925 249.245 521.625 249.245 521.425 249.245 521.225 249.295 520.875 249.445 520.175 249.745 519.875 249.795 519.475 249.795 518.075 249.795 517.575 248.895 517.575 246.345ZM512.875 242.395C512.875 245.395 512.725 246.095 511.875 247.395 510.625 249.245 508.375 250.495 506.175 250.495 503.875 250.495 502.225 248.845 502.225 246.595 502.225 244.495 503.275 242.995 505.475 241.945 507.025 241.245 508.975 240.745 512.875 240.095ZM538.763 238.495 538.763 242.645 551.213 242.645 551.213 238.495ZM577.244 229.095 568.344 229.645 568.344 231.795 570.394 231.795C572.294 231.845 572.544 232.145 572.544 234.295L572.544 248.595C572.494 249.345 572.444 249.645 572.244 249.895 571.894 250.345 570.944 250.545 568.794 250.595L568.594 250.595 568.594 252.395 581.194 252.395 581.194 250.595 580.994 250.595C577.694 250.495 577.244 250.245 577.244 248.395L577.244 239.145C577.244 234.695 579.694 231.395 582.944 231.395 585.794 231.395 587.244 233.445 587.244 237.495L587.244 248.645C587.194 249.295 587.144 249.645 586.894 249.895 586.594 250.345 585.594 250.545 583.444 250.595L583.244 250.595 583.244 252.395 595.894 252.395 595.894 250.595 595.694 250.595C592.394 250.495 591.944 250.245 591.944 248.445L591.944 239.595C591.944 234.595 594.194 231.395 597.694 231.395 600.544 231.395 601.944 233.545 601.944 238.045L601.944 248.595C601.894 249.295 601.844 249.645 601.594 249.895 601.294 250.345 600.294 250.545 598.144 250.595L597.944 250.595 597.944 252.395 610.594 252.395 610.594 250.595 610.394 250.595C607.094 250.495 606.644 250.245 606.644 248.395L606.644 237.045C606.644 233.945 606.344 232.895 605.044 231.195 603.594 229.345 601.544 228.345 599.144 228.345 595.894 228.345 593.494 229.895 591.344 233.345 590.494 230.345 587.794 228.345 584.444 228.345 581.394 228.345 579.194 229.795 577.244 232.945ZM634.881 241.145C634.931 233.645 630.681 228.345 624.581 228.345 618.181 228.345 613.381 233.895 613.381 241.395 613.381 248.445 617.931 253.145 624.681 253.145 629.481 253.145 632.831 250.795 634.881 246.045L633.131 245.095C631.081 248.945 628.981 250.445 625.631 250.445 623.081 250.445 621.231 249.395 619.931 247.145 619.031 245.645 618.631 243.895 618.681 241.145ZM618.731 238.995C618.731 235.495 620.331 230.495 624.531 230.495 627.531 230.495 629.531 233.145 629.531 237.195 629.531 238.595 629.081 238.995 627.481 238.995ZM655.631 252.745 664.336 252.395 664.336 250.245 663.436 250.245C660.581 250.095 660.331 249.795 660.331 246.595L660.331 215.545 650.531 216.095 650.531 218.245 653.481 218.245C655.381 218.295 655.631 218.595 655.631 220.745L655.631 232.045C653.781 229.495 651.631 228.345 648.731 228.345 643.081 228.345 638.781 233.795 638.781 240.995 638.781 248.095 642.931 253.145 648.731 253.145 651.881 253.145 654.031 251.795 655.631 248.795ZM649.731 231.045C651.781 231.045 653.731 232.545 654.631 234.845 655.281 236.345 655.581 238.395 655.581 240.845 655.581 246.695 653.281 250.445 649.681 250.445 646.131 250.445 644.031 247.145 644.031 241.595 644.031 238.595 644.331 236.345 644.981 234.695 645.831 232.445 647.681 231.045 649.731 231.045M837.016 215.595 834.916 215.595 823.416 244.745C822.066 248.645 820.766 249.845 817.916 250.045L817.716 250.045 817.716 252.395 830.966 252.395 830.966 250.045 829.966 250.045C827.266 250.045 825.916 249.095 825.916 247.195 825.916 246.545 826.066 245.945 826.366 245.095L828.016 240.695 841.266 240.695 843.966 247.395C844.266 248.195 844.366 248.495 844.366 248.745 844.366 249.545 843.116 250.045 841.266 250.045L839.166 250.045 839.166 252.395 854.666 252.395 854.666 250.045 853.966 250.045C851.366 249.995 850.916 249.695 849.766 246.845ZM834.566 223.795 840.216 237.995 829.016 237.995ZM864.406 215.545 855.156 216.095 855.156 218.245 857.606 218.245C859.456 218.295 859.706 218.595 859.706 220.745L859.706 248.595C859.656 249.345 859.606 249.645 859.406 249.895 859.056 250.345 858.106 250.545 855.956 250.595L855.606 250.595 855.606 252.395 868.556 252.395 868.556 250.595 868.206 250.595C864.856 250.495 864.406 250.245 864.406 248.445ZM955.406 238.495 955.406 242.645 967.856 242.645 967.856 238.495ZM1049.6 215.545 1040.35 216.095 1040.35 218.245 1042.8 218.245C1044.65 218.295 1044.9 218.595 1044.9 220.745L1044.9 248.595C1044.85 249.345 1044.8 249.645 1044.6 249.895 1044.25 250.345 1043.3 250.545 1041.15 250.595L1040.8 250.595 1040.8 252.395 1053.75 252.395 1053.75 250.595 1053.4 250.595C1050.05 250.495 1049.6 250.245 1049.6 248.445ZM1077.75 236.295C1077.75 233.145 1077.2 231.545 1075.75 230.345 1074.1 228.995 1071.65 228.345 1068.45 228.345 1062.8 228.345 1058.7 230.995 1058.7 234.645 1058.7 236.495 1059.85 237.695 1061.6 237.695 1063.2 237.695 1064.3 236.645 1064.3 235.145 1064.3 234.495 1064.05 233.795 1063.55 233.095 1063.25 232.745 1063.2 232.645 1063.2 232.395 1063.2 231.395 1065.2 230.495 1067.6 230.495 1069.2 230.495 1070.95 230.995 1071.75 231.745 1072.7 232.545 1073.05 233.745 1073.05 235.995L1073.05 237.945C1067.85 238.845 1066.2 239.245 1063.75 240.195 1059.4 241.795 1057.35 244.095 1057.35 247.295 1057.35 250.895 1060.15 253.145 1064.6 253.145 1068.05 253.145 1071.15 251.745 1073.3 249.195 1074.1 251.745 1075.35 252.745 1077.7 252.745 1079.95 252.745 1082.3 251.295 1082.3 249.845 1082.3 249.495 1082.1 249.245 1081.8 249.245 1081.6 249.245 1081.4 249.295 1081.05 249.445 1080.35 249.745 1080.05 249.795 1079.65 249.795 1078.25 249.795 1077.75 248.895 1077.75 246.345ZM1073.05 242.395C1073.05 245.395 1072.9 246.095 1072.05 247.395 1070.8 249.245 1068.55 250.495 1066.35 250.495 1064.05 250.495 1062.4 248.845 1062.4 246.595 1062.4 244.495 1063.45 242.995 1065.65 241.945 1067.2 241.245 1069.15 240.745 1073.05 240.095ZM1092.95 215.545 1083.7 216.095 1083.7 218.245 1086.1 218.245C1088 218.295 1088.25 218.595 1088.25 220.745L1088.25 248.645C1088.2 249.345 1088.15 249.645 1087.95 249.895 1087.6 250.345 1086.65 250.545 1084.5 250.595L1084.3 250.595 1084.3 252.395 1096.95 252.395 1096.95 250.595 1096.75 250.595C1093.4 250.495 1092.95 250.245 1092.95 248.445L1092.95 241.045C1092.95 238.595 1093.3 236.345 1093.85 235.195 1094.95 232.945 1097.15 231.395 1099.3 231.395 1100.6 231.395 1102.1 232.145 1102.8 233.145 1103.6 234.245 1103.95 235.745 1103.95 238.195L1103.95 248.645C1103.9 249.345 1103.85 249.645 1103.65 249.895 1103.3 250.345 1102.3 250.545 1100.15 250.595L1099.95 250.595 1099.95 252.395 1112.6 252.395 1112.6 250.595 1112.4 250.595C1109.1 250.495 1108.65 250.245 1108.65 248.445L1108.65 238.395C1108.65 234.795 1108.5 233.895 1107.6 232.195 1106.35 229.745 1103.85 228.345 1100.85 228.345 1097.6 228.345 1095.2 229.795 1092.95 233.145ZM1120.34 246.845C1118.59 246.845 1117.19 248.245 1117.19 249.945 1117.19 251.695 1118.59 253.095 1120.29 253.095 1122.04 253.095 1123.44 251.695 1123.44 249.945 1123.44 248.245 1122.04 246.845 1120.34 246.845M262.495 97.922C262.495 100.7 264.678 102.883 267.456 102.883 270.234 102.883 272.416 100.7 272.416 97.922 272.416 95.144 270.234 92.961 267.456 92.961 264.678 92.961 262.495 95.144 262.495 97.922" style="fill-rule:nonzero"/>
	<path d="M 1186.02 34.55 L 1190.48 34.55 L 1190.48 136.491 L 1186.02 136.491 Z M 1199.66 34.55 L 1204.12 34.55 L 1204.12 136.491 L 1199.66 136.491 Z"/>
</svg>
