<?xml version="1.0" encoding="UTF-8" standalone="no"?>
<svg xmlns="http://www.w3.org/2000/svg" xml:space="preserve" style="fill-rule:evenodd;clip-rule:evenodd;stroke-linejoin:round;stroke-miterlimit:2" viewBox="0 0 1188 236">
<title>2 bars of music for voice.</title>
  <path d="M 0.00875356 34.54 L 1186.94 34.54 L 1186.94 37.27 L 0.00875356 37.27 Z M 0.00875356 59.35 L 1186.94 59.35 L 1186.94 62.08 L 0.00875356 62.08 Z M 0.00875356 84.14 L 1186.94 84.14 L 1186.94 86.87 L 0.00875356 86.87 Z M 0.00875356 108.96 L 1186.94 108.96 L 1186.94 111.69 L 0.00875356 111.69 Z M 0.00875356 133.75 L 1186.94 133.75 L 1186.94 136.48 L 0.00875356 136.48 Z"/>
  <path d="M 1169.26 34.54 L 1173.72 34.54 L 1173.72 136.48 L 1169.26 136.48 Z M 1182.9 34.54 L 1187.36 34.54 L 1187.36 136.48 L 1182.9 136.48 Z M 579.97 34.54 L 584.43 34.54 L 584.43 136.48 L 579.97 136.48 Z M 976.38 182.73 L 1025.98 182.73 L 1025.98 186.7 L 976.38 186.7 Z M 129.22 157.94 L 178.819 157.94 L 178.819 161.91 L 129.22 161.91 Z M 1050.06 207.54 L 1099.66 207.54 L 1099.66 211.51 L 1050.06 211.51 Z M 681.67 157.94 L 731.27 157.94 L 731.27 161.91 L 681.67 161.91 Z M 976.38 207.54 L 1025.98 207.54 L 1025.98 211.51 L 976.38 211.51 Z M 976.38 157.94 L 1025.98 157.94 L 1025.98 161.91 L 976.38 161.91 Z M 1050.06 182.73 L 1099.66 182.73 L 1099.66 186.7 L 1050.06 186.7 Z M 755.35 157.94 L 804.95 157.94 L 804.95 161.91 L 755.35 161.91 Z M 1050.06 157.94 L 1099.66 157.94 L 1099.66 161.91 L 1050.06 161.91 Z M 829.03 182.73 L 878.63 182.73 L 878.63 186.7 L 829.03 186.7 Z M 829.03 157.94 L 878.63 157.94 L 878.63 161.91 L 829.03 161.91 Z M 902.7 182.73 L 952.3 182.73 L 952.3 186.7 L 902.7 186.7 Z M 902.7 157.94 L 952.3 157.94 L 952.3 161.91 L 902.7 161.91 Z"/>
  <path d="M940.89 89.21 943.62 89.21 943.62 193.16 940.89 193.16ZM1014.57 91.67 1017.3 91.67 1017.3 205.56 1014.57 205.56ZM867.22 86.74 869.95 86.74 869.95 180.76 867.22 180.76ZM793.54 84.28 796.27 84.28 796.27 168.35 793.54 168.35ZM167.408 73.11 170.138 73.11 170.138 155.95 167.408 155.95ZM719.86 81.82 722.59 81.82 722.59 155.95 719.86 155.95ZM498.96 48.31 501.69 48.31 501.69 131.15 498.96 131.15ZM388.45 48.31 391.18 48.31 391.18 131.15 388.45 131.15ZM646.19 79.36 648.92 79.36 648.92 143.55 646.19 143.55ZM1088.25 85.51 1090.98 85.51 1090.98 217.96 1088.25 217.96Z"/>
  <path d="M616.68 151.687C616.68 155.953 619.756 160.715 627.792 160.715 638.11 160.715 648.924 152.282 648.924 143.551 648.924 137.698 643.964 134.424 637.812 134.424 628.189 134.424 616.68 142.559 616.68 151.687M469.45 139.287C469.45 143.553 472.526 148.315 480.562 148.315 490.88 148.315 501.694 139.882 501.694 131.151 501.694 125.298 496.734 122.024 490.582 122.024 480.959 122.024 469.45 130.159 469.45 139.287M985.06 213.697C985.06 217.963 988.136 222.725 996.172 222.725 1006.49 222.725 1017.3 214.292 1017.3 205.561 1017.3 199.708 1012.34 196.434 1006.19 196.434 996.569 196.434 985.06 204.569 985.06 213.697M137.9 164.087C137.9 168.353 140.976 173.115 149.012 173.115 159.33 173.115 170.144 164.682 170.144 155.951 170.144 150.098 165.184 146.824 159.032 146.824 149.409 146.824 137.9 154.959 137.9 164.087M690.35 164.087C690.35 168.353 693.426 173.115 701.462 173.115 711.78 173.115 722.594 164.682 722.594 155.951 722.594 150.098 717.634 146.824 711.482 146.824 701.859 146.824 690.35 154.959 690.35 164.087M764.03 176.487C764.03 180.753 767.106 185.515 775.142 185.515 785.46 185.515 796.274 177.082 796.274 168.351 796.274 162.498 791.314 159.224 785.162 159.224 775.539 159.224 764.03 167.359 764.03 176.487M837.71 188.887C837.71 193.153 840.786 197.915 848.822 197.915 859.14 197.915 869.954 189.482 869.954 180.751 869.954 174.898 864.994 171.624 858.842 171.624 849.219 171.624 837.71 179.759 837.71 188.887M1058.74 226.097C1058.74 230.363 1061.82 235.125 1069.85 235.125 1080.17 235.125 1090.98 226.692 1090.98 217.961 1090.98 212.108 1086.02 208.834 1079.87 208.834 1070.25 208.834 1058.74 216.969 1058.74 226.097M911.39 201.297C911.39 205.563 914.466 210.325 922.502 210.325 932.82 210.325 943.634 201.892 943.634 193.161 943.634 187.308 938.674 184.034 932.522 184.034 922.899 184.034 911.39 192.169 911.39 201.297M32.053 161.216C32.053 167.764 37.014 176.396 50.408 176.396 55.071 176.396 59.138 175.205 62.71 173.023 68.068 169.253 69.457 162.704 69.457 156.454 69.457 152.585 68.861 148.12 67.869 142.465 67.572 140.481 66.976 137.504 66.381 133.635 76.104 130.46 83.346 120.341 83.346 110.122 83.346 95.14 72.731 85.021 58.245 85.021 57.253 79.068 56.261 73.214 55.468 67.658 65.885 56.646 73.127 44.244 73.127 28.469 73.127 19.441 70.349 12.099 68.762 8.527 66.381 3.468 63.504-.005 61.718-.005 61.023-.005 57.948 1.186 54.674 5.055 48.324 12.595 46.538 25.295 46.538 33.628 46.538 38.986 47.034 43.847 48.721 54.959 48.622 55.058 43.463 60.317 41.379 62.003 32.351 70.337 19.85 82.441 19.85 102.284 19.85 120.837 36.022 135.421 54.475 135.421 57.353 135.421 60.031 135.123 62.313 134.726 64.198 144.251 65.389 151.196 65.389 156.454 65.389 166.772 60.031 172.229 50.011 172.229 47.63 172.229 45.546 171.733 45.348 171.733 45.249 171.634 45.05 171.534 45.05 171.435 45.05 171.237 45.249 171.138 45.546 171.138 50.209 170.344 54.872 166.375 54.872 160.026 54.872 154.668 50.805 149.013 43.364 149.013 36.419 149.013 32.053 154.668 32.053 161.216M52.789 28.767C53.682 24.798 58.245 14.381 63.405 14.381 64.893 14.381 67.274 19.143 67.274 26.088 67.274 36.406 59.634 44.145 52.789 50.891 52.193 46.923 51.697 43.054 51.697 38.887 51.697 35.216 51.995 31.843 52.789 28.767M61.52 130.758C59.535 131.155 57.65 131.353 55.765 131.353 41.578 131.353 29.474 121.432 29.474 106.451 29.474 94.347 38.006 83.533 46.737 75.992 48.423 74.504 50.011 73.115 51.499 71.627 52.392 76.984 53.086 81.647 53.781 85.715 44.753 88.394 38.601 97.918 38.601 107.244 38.601 114.189 44.058 123.714 51.995 123.714 52.789 123.714 53.682 123.317 53.682 122.424 53.682 121.531 52.69 121.035 51.499 120.241 47.63 117.86 45.447 115.281 45.447 110.419 45.447 104.367 50.011 99.506 55.765 98.117ZM75.608 112.403C75.608 119.448 72.731 126.69 65.686 129.567 63.603 117.662 60.924 101.887 60.23 97.522 69.159 97.522 75.608 103.574 75.608 112.403" style="fill-rule:nonzero"/>
  <path d="M646.18 73.11 1017.3 85.51 1017.3 97.92 646.18 85.52ZM277.927 60.71 280.657 60.71 280.657 143.55 277.927 143.55Z"/>
  <path d="M351.541 124.217C352.136 124.117 352.633 123.423 352.633 122.828L352.633 116.974C352.633 115.883 351.938 115.585 351.045 115.585L347.97 116.28 347.97 101.497 345.192 101.497 345.192 116.875 339.338 118.065 339.338 103.084 336.659 103.084 336.659 118.561 331.401 119.653 331.401 104.672 328.722 104.672 328.722 120.248 325.051 121.042C324.456 121.141 323.96 121.736 323.96 122.332L323.96 128.086C323.96 129.177 324.754 129.475 325.647 129.475L328.722 128.78 328.722 145.25 325.051 146.043C324.456 146.143 323.96 146.738 323.96 147.333L323.96 153.088C323.96 154.179 324.754 154.477 325.647 154.477L328.722 153.881 328.722 167.672 331.401 167.672 331.401 153.286 336.659 152.195 336.659 166.184 339.338 166.184 339.338 151.699 345.192 150.508 345.192 164.497 347.97 164.497 347.97 149.913 351.541 149.218C352.136 149.119 352.732 148.425 352.732 147.829L352.732 141.976C352.732 140.884 351.938 140.587 351.045 140.587L347.97 141.281 347.97 124.911ZM339.338 126.697 345.192 125.506 345.192 141.876 339.338 143.067ZM336.659 143.563 331.401 144.654 331.401 128.284 336.659 127.193ZM358.93 139.297C358.93 143.563 362.006 148.325 370.042 148.325 380.36 148.325 391.174 139.892 391.174 131.161 391.174 125.308 386.214 122.034 380.062 122.034 370.439 122.034 358.93 130.169 358.93 139.297M241.127 137.113C241.722 137.013 242.218 136.319 242.218 135.724L242.218 129.87C242.218 128.878 241.523 128.481 240.631 128.481L237.357 129.176 237.357 114.393 234.579 114.393 234.579 129.771 225.749 131.557 225.749 117.568 222.971 117.568 222.971 132.152 219.101 132.946C218.506 133.045 218.01 133.739 218.01 134.335L218.01 140.089C218.01 141.18 218.804 141.478 219.697 141.478L222.971 140.784 222.971 157.154 219.101 157.947C218.506 158.047 218.01 158.741 218.01 159.336L218.01 165.091C218.01 166.182 218.804 166.48 219.697 166.48L222.971 165.785 222.971 180.568 225.749 180.568 225.749 165.19 234.579 163.404 234.579 177.393 237.357 177.393 237.357 162.809 241.127 162.114C241.722 162.015 242.218 161.321 242.218 160.725L242.218 154.872C242.218 153.88 241.523 153.483 240.631 153.483L237.357 154.177 237.357 137.807ZM225.749 140.188 234.579 138.402 234.579 154.773 225.749 156.658ZM248.41 151.697C248.41 155.963 251.486 160.725 259.522 160.725 269.84 160.725 280.654 152.292 280.654 143.561 280.654 137.708 275.694 134.434 269.542 134.434 259.919 134.434 248.41 142.569 248.41 151.697" style="fill-rule:nonzero"/>
</svg>
