<?xml version="1.0" encoding="UTF-8" standalone="no"?>
<svg xmlns="http://www.w3.org/2000/svg" xml:space="preserve" style="fill-rule:evenodd;clip-rule:evenodd;stroke-linejoin:bevel" viewBox="0 0 899 177">
<title>A bar of music showing the progression E, A, B half-flat, B, and D.</title>
  <path d="M -0.0025414 35.914 L 898.585 35.914 M -0.0025414 60.718 L 898.585 60.718 M -0.0025414 85.521 L 898.585 85.521 M -0.0025414 110.324 L 898.585 110.324 M -0.0025414 135.127 L 898.585 135.127" style="fill:none;fill-rule:nonzero;stroke:#000;stroke-width:2.078926816893755"/>
  <path d="M 485.447 79.7666 C 485.447 90.3824 493.979 97.7242 502.313 102.685 C 502.512 102.784 502.611 102.982 502.908 102.982 C 503.603 102.982 504.198 102.387 504.198 101.693 L 504.595 41.9665 C 504.595 41.272 504 40.6767 503.305 40.6767 L 502.512 40.6767 C 501.817 40.6767 501.222 41.272 501.222 41.9665 L 501.42 73.5162 C 500.825 72.7225 498.642 70.5398 494.079 70.5398 C 489.118 70.5398 485.447 73.6154 485.447 79.7666 M 495.666 74.9052 C 500.031 74.9052 501.42 77.584 501.42 78.4769 C 501.42 78.6753 501.52 78.4769 501.52 78.1792 L 501.619 97.8234 C 495.864 92.962 491.797 88.299 491.797 80.3619 C 491.797 78.2785 492.094 74.9052 495.666 74.9052" style="fill-rule:nonzero"/>
  <path d="M 248.729 106.355 L 248.729 23.513 M 375.111 93.954 L 375.111 17.51 M 541.665 81.552 L 541.665 5.109 M 670.946 81.552 L 670.946 5.109 M 782.446 64.884 L 782.446 147.529" style="fill:none;fill-rule:nonzero;stroke:#000;stroke-width:2.73"/>
  <path d="M217.857 114.491C217.857 118.757 220.933 123.519 228.969 123.519 239.287 123.519 250.101 115.086 250.101 106.355 250.101 100.502 245.141 97.228 238.989 97.228 229.366 97.228 217.857 105.363 217.857 114.491M344.239 102.089C344.239 106.355 347.315 111.117 355.351 111.117 365.669 111.117 376.483 102.684 376.483 93.954 376.483 88.1 371.523 84.826 365.371 84.826 355.748 84.826 344.239 92.961 344.239 102.089M510.793 89.688C510.793 93.954 513.869 98.716 521.905 98.716 532.223 98.716 543.037 90.283 543.037 81.553 543.037 75.699 538.077 72.425 531.925 72.425 522.302 72.425 510.793 80.56 510.793 89.688M640.069 89.688C640.069 93.954 643.145 98.716 651.181 98.716 661.499 98.716 672.313 90.283 672.313 81.553 672.313 75.699 667.353 72.425 661.201 72.425 651.578 72.425 640.069 80.56 640.069 89.688M781.086 64.885C781.086 69.151 784.162 73.913 792.198 73.913 802.516 73.913 813.33 65.48 813.33 56.75 813.33 50.896 808.37 47.622 802.218 47.622 792.595 47.622 781.086 55.757 781.086 64.885M32.046 161.22C32.046 167.768 37.007 176.4 50.401 176.4 55.064 176.4 59.131 175.209 62.703 173.027 68.061 169.257 69.45 162.708 69.45 156.458 69.45 152.589 68.854 148.124 67.862 142.469 67.565 140.485 66.969 137.508 66.374 133.639 76.097 130.464 83.339 120.345 83.339 110.126 83.339 95.144 72.724 85.025 58.238 85.025 57.246 79.072 56.254 73.218 55.461 67.662 65.878 56.65 73.12 44.248 73.12 28.473 73.12 19.445 70.342 12.103 68.755 8.531 66.374 3.472 63.497-.001 61.711-.001 61.016-.001 57.941 1.19 54.667 5.059 48.317 12.599 46.531 25.299 46.531 33.632 46.531 38.99 47.027 43.851 48.714 54.963 48.615 55.062 43.456 60.321 41.372 62.007 32.344 70.341 19.843 82.445 19.843 102.288 19.843 120.841 36.015 135.425 54.468 135.425 57.346 135.425 60.024 135.127 62.306 134.73 64.191 144.255 65.382 151.2 65.382 156.458 65.382 166.776 60.024 172.233 50.004 172.233 47.623 172.233 45.539 171.737 45.341 171.737 45.242 171.638 45.043 171.538 45.043 171.439 45.043 171.241 45.242 171.142 45.539 171.142 50.202 170.348 54.865 166.379 54.865 160.03 54.865 154.672 50.798 149.017 43.357 149.017 36.412 149.017 32.046 154.672 32.046 161.22M52.782 28.771C53.675 24.802 58.238 14.385 63.398 14.385 64.886 14.385 67.267 19.147 67.267 26.092 67.267 36.41 59.627 44.149 52.782 50.895 52.186 46.927 51.69 43.058 51.69 38.891 51.69 35.22 51.988 31.847 52.782 28.771M61.513 130.762C59.528 131.159 57.643 131.357 55.758 131.357 41.571 131.357 29.467 121.436 29.467 106.455 29.467 94.351 37.999 83.537 46.73 75.996 48.416 74.508 50.004 73.119 51.492 71.631 52.385 76.988 53.079 81.651 53.774 85.719 44.746 88.398 38.594 97.922 38.594 107.248 38.594 114.193 44.051 123.718 51.988 123.718 52.782 123.718 53.675 123.321 53.675 122.428 53.675 121.535 52.683 121.039 51.492 120.245 47.623 117.864 45.44 115.285 45.44 110.423 45.44 104.371 50.004 99.51 55.758 98.121ZM75.601 112.407C75.601 119.452 72.724 126.694 65.679 129.571 63.596 117.666 60.917 101.891 60.223 97.526 69.152 97.526 75.601 103.578 75.601 112.407M120.04 70.143C115.079 70.143 112.202 73.219 111.706 73.814L112.103 41.967C112.103 41.173 111.507 40.578 110.714 40.578L109.523 40.578C108.729 40.578 108.134 41.173 108.134 41.967L108.63 101.594C108.63 102.387 109.225 102.982 110.019 102.982 110.217 102.982 110.614 102.883 110.813 102.784 119.345 98.518 128.274 90.382 128.274 80.164 128.274 75.004 125.893 70.143 120.04 70.143M111.408 98.121 111.706 78.775C111.904 77.882 113.392 75.004 117.361 75.004 120.932 75.004 121.23 78.378 121.23 80.461 121.23 89.291 117.956 92.962 111.408 98.121M147.603 32.938C142.642 32.938 139.765 36.014 139.269 36.609L139.666 4.761C139.666 3.968 139.07 3.373 138.277 3.373L137.086 3.373C136.292 3.373 135.697 3.968 135.697 4.761L136.193 64.388C136.193 65.182 136.788 65.778 137.582 65.778 137.78 65.778 138.177 65.678 138.376 65.579 146.908 61.313 155.837 53.177 155.837 42.959 155.837 37.799 153.456 32.938 147.603 32.938M138.971 60.916 139.269 41.57C139.467 40.677 140.955 37.799 144.924 37.799 148.495 37.799 148.793 41.173 148.793 43.256 148.793 52.086 145.519 55.757 138.971 60.916M373.747 39.833C373.747 40.131 373.846 40.726 374.541 40.925 378.807 42.314 387.339 47.671 393.788 58.684 395.574 61.759 398.451 66.026 398.451 74.26 398.451 81.404 396.665 88.745 393.986 95.889 393.788 96.484 393.689 96.98 393.689 97.377 393.689 98.071 394.086 98.369 394.78 98.369 395.375 98.369 395.871 97.972 396.268 97.278 400.733 89.341 402.42 80.114 402.42 71.085 401.923 58.287 394.582 48.862 394.582 48.862 394.879 48.862 385.454 36.659 382.775 32.492 379.105 26.836 377.418 21.181 377.219 20.785 377.12 20.487 376.227 16.915 376.227 16.915 376.128 16.518 375.632 16.121 375.037 16.121 374.342 16.121 373.747 16.717 373.747 17.411ZM540.301 27.431C540.301 27.729 540.4 28.324 541.095 28.523 545.361 29.912 553.893 35.269 560.342 46.282 562.128 49.357 565.005 53.624 565.005 61.858 565.005 69.002 563.219 76.343 560.54 83.487 560.342 84.082 560.243 84.578 560.243 84.975 560.243 85.669 560.64 85.967 561.334 85.967 561.929 85.967 562.425 85.57 562.822 84.876 567.287 76.939 568.974 67.712 568.974 58.683 568.477 45.885 561.136 36.46 561.136 36.46 561.433 36.46 552.008 24.257 549.329 20.09 545.659 14.434 543.972 8.779 543.773 8.382 543.674 8.085 542.781 4.513 542.781 4.513 542.682 4.116 542.186 3.719 541.591 3.719 540.896 3.719 540.301 4.315 540.301 5.009ZM669.576 27.431C669.576 27.729 669.675 28.324 670.37 28.523 674.636 29.912 683.168 35.269 689.617 46.282 691.403 49.357 694.28 53.624 694.28 61.858 694.28 69.002 692.494 76.343 689.815 83.487 689.617 84.082 689.518 84.578 689.518 84.975 689.518 85.669 689.915 85.967 690.609 85.967 691.204 85.967 691.7 85.57 692.097 84.876 696.562 76.939 698.249 67.712 698.249 58.683 697.752 45.885 690.411 36.46 690.411 36.46 690.708 36.46 681.283 24.257 678.604 20.09 674.934 14.434 673.247 8.779 673.048 8.382 672.949 8.085 672.056 4.513 672.056 4.513 671.957 4.116 671.461 3.719 670.866 3.719 670.171 3.719 669.576 4.315 669.576 5.009ZM262.495 97.922C262.495 100.7 264.678 102.883 267.456 102.883 270.234 102.883 272.416 100.7 272.416 97.922 272.416 95.144 270.234 92.961 267.456 92.961 264.678 92.961 262.495 95.144 262.495 97.922" style="fill-rule:nonzero"/>
  <path d="M 882.965 34.55 L 882.965 136.491 M 896.606 34.55 L 896.606 136.491" style="fill:none;fill-rule:nonzero;stroke:#000;stroke-width:4.46"/>
</svg>
