<?xml version="1.0" encoding="UTF-8" standalone="no"?>
<svg xmlns="http://www.w3.org/2000/svg" xml:space="preserve" style="fill-rule:evenodd;clip-rule:evenodd;stroke-linejoin:round;stroke-miterlimit:2" viewBox="0 0 716 179">
<title>A bar of music demonstrating the addition of a quarter tone made up of D, D half-sharp, E flat, and G.</title>
  <path d="M 0.00098312 34.549 L 714.472 34.549 L 714.472 37.279 L 0.00098312 37.279 Z M 0.00098312 59.353 L 714.472 59.353 L 714.472 62.083 L 0.00098312 62.083 Z M 0.00098312 84.156 L 714.472 84.156 L 714.472 86.886 L 0.00098312 86.886 Z M 0.00098312 108.959 L 714.472 108.959 L 714.472 111.689 L 0.00098312 111.689 Z M 0.00098312 133.762 L 714.472 133.762 L 714.472 136.492 L 0.00098312 136.492 Z"/>
  <path d="M 697.006 34.55 L 701.466 34.55 L 701.466 136.491 L 697.006 136.491 Z M 710.656 34.55 L 715.116 34.55 L 715.116 136.491 L 710.656 136.491 Z"/>
  <path d="M275.972 137.608C276.567 137.508 277.063 136.814 277.063 136.219L277.063 130.365C277.063 129.571 276.468 128.976 275.575 128.976L275.476 129.075 275.377 129.075 269.523 130.266 269.523 115.781 266.745 115.781 266.745 130.861 260.296 132.25C259.701 132.349 259.205 132.945 259.205 133.54L259.205 139.294C259.205 140.386 259.999 140.683 260.892 140.683L266.745 139.493 266.745 155.863 260.296 157.252C259.701 157.351 259.205 157.946 259.205 158.542L259.205 164.296C259.205 165.387 259.999 165.685 260.892 165.685L266.745 164.494 266.745 178.88 269.523 178.88 269.523 163.899 275.972 162.609C276.567 162.51 277.063 161.816 277.063 161.22L277.063 155.367C277.063 154.275 276.27 154.077 275.377 154.077L269.523 155.268 269.523 138.897ZM406.742 119.749C401.781 119.749 398.904 122.825 398.408 123.42L398.805 91.573C398.805 90.779 398.209 90.184 397.416 90.184L396.225 90.184C395.431 90.184 394.836 90.779 394.836 91.573L395.332 151.2C395.332 151.993 395.927 152.588 396.721 152.588 396.919 152.588 397.316 152.489 397.515 152.39 406.047 148.124 414.976 139.988 414.976 129.769 414.976 124.61 412.595 119.749 406.742 119.749M398.11 147.727 398.408 128.381C398.606 127.488 400.094 124.61 404.063 124.61 407.634 124.61 407.932 127.984 407.932 130.067 407.932 138.897 404.658 142.568 398.11 147.727" style="fill-rule:nonzero"/>
  <path d="M 174.846 60.718 L 177.576 60.718 L 177.576 143.56 L 174.846 143.56 Z M 312.763 60.718 L 315.493 60.718 L 315.493 143.56 L 312.763 143.56 Z M 450.681 48.316 L 453.411 48.316 L 453.411 131.159 L 450.681 131.159 Z M 588.598 23.513 L 591.328 23.513 L 591.328 106.355 L 588.598 106.355 Z"/>
  <path d="M145.339 151.696C145.339 155.962 148.415 160.724 156.451 160.724 166.769 160.724 177.583 152.291 177.583 143.56 177.583 137.707 172.623 134.433 166.471 134.433 156.848 134.433 145.339 142.568 145.339 151.696M283.256 151.696C283.256 155.962 286.332 160.724 294.368 160.724 304.686 160.724 315.5 152.291 315.5 143.56 315.5 137.707 310.54 134.433 304.388 134.433 294.765 134.433 283.256 142.568 283.256 151.696M421.174 139.294C421.174 143.56 424.25 148.322 432.286 148.322 442.604 148.322 453.418 139.889 453.418 131.158 453.418 125.305 448.458 122.031 442.306 122.031 432.683 122.031 421.174 130.166 421.174 139.294M559.091 114.491C559.091 118.757 562.167 123.519 570.203 123.519 580.521 123.519 591.335 115.086 591.335 106.355 591.335 100.502 586.375 97.228 580.223 97.228 570.6 97.228 559.091 105.363 559.091 114.491M32.046 161.22C32.046 167.768 37.007 176.4 50.401 176.4 55.064 176.4 59.131 175.209 62.703 173.027 68.061 169.257 69.45 162.708 69.45 156.458 69.45 152.589 68.854 148.124 67.862 142.469 67.565 140.485 66.969 137.508 66.374 133.639 76.097 130.464 83.339 120.345 83.339 110.126 83.339 95.144 72.724 85.025 58.238 85.025 57.246 79.072 56.254 73.218 55.461 67.662 65.878 56.65 73.12 44.248 73.12 28.473 73.12 19.445 70.342 12.103 68.755 8.531 66.374 3.472 63.497-.001 61.711-.001 61.016-.001 57.941 1.19 54.667 5.059 48.317 12.599 46.531 25.299 46.531 33.632 46.531 38.99 47.027 43.851 48.714 54.963 48.615 55.062 43.456 60.321 41.372 62.007 32.344 70.341 19.843 82.445 19.843 102.288 19.843 120.841 36.015 135.425 54.468 135.425 57.346 135.425 60.024 135.127 62.306 134.73 64.191 144.255 65.382 151.2 65.382 156.458 65.382 166.776 60.024 172.233 50.004 172.233 47.623 172.233 45.539 171.737 45.341 171.737 45.242 171.638 45.043 171.538 45.043 171.439 45.043 171.241 45.242 171.142 45.539 171.142 50.202 170.348 54.865 166.379 54.865 160.03 54.865 154.672 50.798 149.017 43.357 149.017 36.412 149.017 32.046 154.672 32.046 161.22M52.782 28.771C53.675 24.802 58.238 14.385 63.398 14.385 64.886 14.385 67.267 19.147 67.267 26.092 67.267 36.41 59.627 44.149 52.782 50.895 52.186 46.927 51.69 43.058 51.69 38.891 51.69 35.22 51.988 31.847 52.782 28.771M61.513 130.762C59.528 131.159 57.643 131.357 55.758 131.357 41.571 131.357 29.467 121.436 29.467 106.455 29.467 94.351 37.999 83.537 46.73 75.996 48.416 74.508 50.004 73.119 51.492 71.631 52.385 76.988 53.079 81.651 53.774 85.719 44.746 88.398 38.594 97.922 38.594 107.248 38.594 114.193 44.051 123.718 51.988 123.718 52.782 123.718 53.675 123.321 53.675 122.428 53.675 121.535 52.683 121.039 51.492 120.245 47.623 117.864 45.44 115.285 45.44 110.423 45.44 104.371 50.004 99.51 55.758 98.121ZM75.601 112.407C75.601 119.452 72.724 126.694 65.679 129.571 63.596 117.666 60.917 101.891 60.223 97.526 69.152 97.526 75.601 103.578 75.601 112.407" style="fill-rule:nonzero"/>
</svg>
