<?xml version="1.0" encoding="utf-8"?>
<!DOCTYPE score-partwise PUBLIC "-//Recordare//DTD MusicXML 4.0 Partwise//EN" "http://www.musicxml.org/dtds/partwise.dtd">
<score-partwise version="4.0">
	<work>
		<work-title>Polynesian Mythology</work-title>
	</work>
	<identification>
		<encoding>
			<software>MuseScore 4.1.1</software>
			<encoding-date>2023-07-29</encoding-date>
			<supports element="accidental" type="yes"/>
			<supports element="beam" type="yes"/>
			<supports attribute="new-page" element="print" type="no"/>
			<supports attribute="new-system" element="print" type="no"/>
			<supports element="stem" type="yes"/>
		</encoding>
	</identification>
	<defaults>
		<scaling>
			<millimeters>7</millimeters>
			<tenths>40</tenths>
		</scaling>
		<page-layout>
			<page-height>1200.34</page-height>
			<page-width>846.171</page-width>
			<page-margins type="even">
				<left-margin>85.7143</left-margin>
				<right-margin>85.7143</right-margin>
				<top-margin>85.7143</top-margin>
				<bottom-margin>85.7143</bottom-margin>
			</page-margins>
			<page-margins type="odd">
				<left-margin>85.7143</left-margin>
				<right-margin>85.7143</right-margin>
				<top-margin>85.7143</top-margin>
				<bottom-margin>85.7143</bottom-margin>
			</page-margins>
		</page-layout>
		<word-font font-family="Edwin" font-size="10"/>
		<lyric-font font-family="Edwin" font-size="10"/>
	</defaults>
	<part-list>
		<score-part id="P1">
			<part-name>Piano</part-name>
			<part-abbreviation>Pno.</part-abbreviation>
			<score-instrument id="P1-I1">
				<instrument-name>Piano</instrument-name>
				<instrument-sound>keyboard.piano</instrument-sound>
			</score-instrument>
			<midi-device id="P1-I1" port="1"/>
			<midi-instrument id="P1-I1">
				<midi-channel>1</midi-channel>
				<midi-program>1</midi-program>
				<volume>78.7402</volume>
				<pan>0</pan>
			</midi-instrument>
		</score-part>
	</part-list>
	<part id="P1">
		<measure number="1" width="279.39">
			<print>
				<system-layout>
					<system-margins>
						<left-margin>0.00</left-margin>
						<right-margin>0.00</right-margin>
					</system-margins>
					<top-system-distance>70.00</top-system-distance>
				</system-layout>
			</print>
			<attributes>
				<divisions>4</divisions>
				<key>
					<fifths>0</fifths>
				</key>
				<time symbol="common">
					<beats>4</beats>
					<beat-type>4</beat-type>
				</time>
				<clef>
					<sign>G</sign>
					<line>2</line>
				</clef>
			</attributes>
			<direction placement="below">
				<direction-type>
					<words default-y="-40.00" relative-x="-2.27" relative-y="-38.31">Te - ra - te pu - ko - hu mau to - nu </words>
				</direction-type>
			</direction>
			<note default-x="82.12" default-y="-40.00">
				<pitch>
					<step>E</step>
					<octave>4</octave>
				</pitch>
				<duration>4</duration>
				<voice>1</voice>
				<type>quarter</type>
				<stem>up</stem>
			</note>
			<note default-x="131.70" default-y="-40.00">
				<pitch>
					<step>E</step>
					<octave>4</octave>
				</pitch>
				<duration>4</duration>
				<voice>1</voice>
				<type>quarter</type>
				<stem>up</stem>
			</note>
			<note default-x="181.28" default-y="-40.00">
				<pitch>
					<step>E</step>
					<octave>4</octave>
				</pitch>
				<duration>6</duration>
				<voice>1</voice>
				<type>quarter</type>
				<dot/>
				<stem>up</stem>
				<notations>
					<slur number="1" placement="below" type="start"/>
				</notations>
			</note>
			<note default-x="244.13" default-y="-35.00">
				<pitch>
					<step>F</step>
					<octave>4</octave>
				</pitch>
				<duration>2</duration>
				<voice>1</voice>
				<type>eighth</type>
				<stem>up</stem>
				<notations>
					<slur number="1" type="stop"/>
					<articulations>
						<staccato placement="above"/>
					</articulations>
				</notations>
			</note>
		</measure>
		<measure number="2" width="210.27">
			<note default-x="13.00" default-y="-40.00">
				<pitch>
					<step>E</step>
					<octave>4</octave>
				</pitch>
				<duration>4</duration>
				<voice>1</voice>
				<type>quarter</type>
				<stem>up</stem>
			</note>
			<note default-x="62.58" default-y="-40.00">
				<pitch>
					<step>E</step>
					<octave>4</octave>
				</pitch>
				<duration>4</duration>
				<voice>1</voice>
				<type>quarter</type>
				<stem>up</stem>
			</note>
			<note default-x="112.16" default-y="-40.00">
				<pitch>
					<step>E</step>
					<octave>4</octave>
				</pitch>
				<duration>6</duration>
				<voice>1</voice>
				<type>quarter</type>
				<dot/>
				<stem>up</stem>
				<notations>
					<slur number="1" placement="below" type="start"/>
				</notations>
			</note>
			<note default-x="175.02" default-y="-35.00">
				<pitch>
					<step>F</step>
					<octave>4</octave>
				</pitch>
				<duration>2</duration>
				<voice>1</voice>
				<type>eighth</type>
				<stem>up</stem>
				<notations>
					<slur number="1" type="stop"/>
					<articulations>
						<staccato placement="above"/>
					</articulations>
				</notations>
			</note>
		</measure>
		<measure number="3" width="185.08">
			<note default-x="13.00" default-y="-40.00">
				<pitch>
					<step>E</step>
					<octave>4</octave>
				</pitch>
				<duration>6</duration>
				<voice>1</voice>
				<type>quarter</type>
				<dot/>
				<stem>up</stem>
				<notations>
					<articulations>
						<staccato placement="above"/>
					</articulations>
				</notations>
			</note>
			<note default-x="75.85" default-y="-40.00">
				<pitch>
					<step>E</step>
					<octave>4</octave>
				</pitch>
				<duration>2</duration>
				<voice>1</voice>
				<type>eighth</type>
				<stem>up</stem>
			</note>
			<direction>
				<direction-type>
					<words relative-x="-164.07" relative-y="15.27">Reduced by James Davies</words>
				</direction-type>
			</direction>
			<note default-x="108.91" default-y="-40.00">
				<pitch>
					<step>E</step>
					<octave>4</octave>
				</pitch>
				<duration>8</duration>
				<voice>1</voice>
				<type>half</type>
				<stem>up</stem>
			</note>
		</measure>
		<measure number="4" width="226.04">
			<direction placement="below">
				<direction-type>
					<words default-y="-40.00" relative-x="-3.84" relative-y="-40.99">mai Pu - ke - hi - na; Ko - te - ar - a</words>
				</direction-type>
			</direction>
			<note default-x="58.82" default-y="-40.00">
				<pitch>
					<step>E</step>
					<alter>-0.5</alter>
					<octave>4</octave>
				</pitch>
				<duration>8</duration>
				<voice>1</voice>
				<type>half</type>
				<accidental>quarter-flat</accidental>
				<stem>up</stem>
			</note>
			<note default-x="129.71" default-y="-40.00">
				<pitch>
					<step>E</step>
					<octave>4</octave>
				</pitch>
				<duration>4</duration>
				<voice>1</voice>
				<type>quarter</type>
				<stem>up</stem>
			</note>
			<note default-x="176.98" default-y="-40.00">
				<pitch>
					<step>E</step>
					<alter>0.5</alter>
					<octave>4</octave>
				</pitch>
				<duration>4</duration>
				<voice>1</voice>
				<type>quarter</type>
				<accidental>quarter-sharp</accidental>
				<stem>up</stem>
			</note>
		</measure>
		<measure number="5" width="225.37">
			<note default-x="16.72" default-y="-40.00">
				<pitch>
					<step>E</step>
					<alter>-0.5</alter>
					<octave>4</octave>
				</pitch>
				<duration>6</duration>
				<voice>1</voice>
				<type>quarter</type>
				<dot/>
				<accidental>quarter-flat</accidental>
				<stem>up</stem>
			</note>
			<note default-x="76.63" default-y="-40.00">
				<pitch>
					<step>E</step>
					<octave>4</octave>
				</pitch>
				<duration>2</duration>
				<voice>1</voice>
				<type>eighth</type>
				<stem>up</stem>
			</note>
			<note default-x="113.29" default-y="-40.00">
				<pitch>
					<step>E</step>
					<alter>0.5</alter>
					<octave>4</octave>
				</pitch>
				<duration>2</duration>
				<voice>1</voice>
				<type>eighth</type>
				<accidental>quarter-sharp</accidental>
				<stem>up</stem>
			</note>
			<note default-x="144.80" default-y="-40.00">
				<pitch>
					<step>E</step>
					<octave>4</octave>
				</pitch>
				<duration>4</duration>
				<voice>1</voice>
				<type>quarter</type>
				<stem>up</stem>
			</note>
			<note default-x="192.06" default-y="-20.00">
				<rest/>
				<duration>2</duration>
				<voice>1</voice>
				<type>eighth</type>
			</note>
		</measure>
		<measure number="6" width="223.33">
			<note default-x="16.72" default-y="-40.00">
				<pitch>
					<step>E</step>
					<alter>-0.5</alter>
					<octave>4</octave>
				</pitch>
				<duration>4</duration>
				<voice>1</voice>
				<type>quarter</type>
				<accidental>quarter-flat</accidental>
				<stem>up</stem>
			</note>
			<note default-x="63.98" default-y="-40.00">
				<pitch>
					<step>E</step>
					<octave>4</octave>
				</pitch>
				<duration>4</duration>
				<voice>1</voice>
				<type>quarter</type>
				<stem>up</stem>
			</note>
			<note default-x="111.25" default-y="-40.00">
				<pitch>
					<step>E</step>
					<alter>0.5</alter>
					<octave>4</octave>
				</pitch>
				<duration>2</duration>
				<voice>1</voice>
				<type>eighth</type>
				<accidental>quarter-sharp</accidental>
				<stem>up</stem>
			</note>
			<note default-x="142.76" default-y="-40.00">
				<pitch>
					<step>E</step>
					<octave>4</octave>
				</pitch>
				<duration>4</duration>
				<voice>1</voice>
				<type>quarter</type>
				<stem>up</stem>
			</note>
			<note default-x="190.02" default-y="-20.00">
				<rest/>
				<duration>2</duration>
				<voice>1</voice>
				<type>eighth</type>
			</note>
		</measure>
		<measure number="7" width="243.99">
			<direction placement="below">
				<direction-type>
					<words default-y="-40.00" relative-x="-3.84" relative-y="-44.83">to - nu - i - a i - ha - e - re ar - ta - ku</words>
				</direction-type>
			</direction>
			<note default-x="58.82" default-y="-40.00">
				<pitch>
					<step>E</step>
					<alter>-0.5</alter>
					<octave>4</octave>
				</pitch>
				<duration>4</duration>
				<voice>1</voice>
				<type>quarter</type>
				<accidental>quarter-flat</accidental>
				<stem>up</stem>
			</note>
			<note default-x="104.70" default-y="-40.00">
				<pitch>
					<step>E</step>
					<octave>4</octave>
				</pitch>
				<duration>4</duration>
				<voice>1</voice>
				<type>quarter</type>
				<stem>up</stem>
			</note>
			<note default-x="150.58" default-y="-40.00">
				<pitch>
					<step>E</step>
					<alter>0.5</alter>
					<octave>4</octave>
				</pitch>
				<duration>6</duration>
				<voice>1</voice>
				<type>quarter</type>
				<dot/>
				<accidental>quarter-sharp</accidental>
				<stem>up</stem>
			</note>
			<note default-x="208.74" default-y="-40.00">
				<pitch>
					<step>E</step>
					<alter>2</alter>
					<octave>4</octave>
				</pitch>
				<duration>2</duration>
				<voice>1</voice>
				<type>eighth</type>
				<accidental>double-sharp</accidental>
				<stem>up</stem>
			</note>
		</measure>
		<measure number="8" width="210.60">
			<note default-x="13.00" default-y="-55.00">
				<pitch>
					<step>B</step>
					<octave>3</octave>
				</pitch>
				<duration>4</duration>
				<voice>1</voice>
				<type>quarter</type>
				<stem>up</stem>
			</note>
			<note default-x="58.88" default-y="-40.00">
				<pitch>
					<step>E</step>
					<alter>-0.5</alter>
					<octave>4</octave>
				</pitch>
				<duration>6</duration>
				<voice>1</voice>
				<type>quarter</type>
				<dot/>
				<accidental>quarter-flat</accidental>
				<stem>up</stem>
			</note>
			<note default-x="117.04" default-y="-40.00">
				<pitch>
					<step>E</step>
					<alter>0.5</alter>
					<octave>4</octave>
				</pitch>
				<duration>2</duration>
				<voice>1</voice>
				<type>eighth</type>
				<accidental>quarter-sharp</accidental>
				<stem>up</stem>
				<notations>
					<articulations>
						<staccato placement="above"/>
					</articulations>
				</notations>
			</note>
			<note default-x="147.63" default-y="-40.00">
				<pitch>
					<step>E</step>
					<octave>4</octave>
				</pitch>
				<duration>2</duration>
				<voice>1</voice>
				<type>eighth</type>
				<stem>up</stem>
				<notations>
					<articulations>
						<staccato placement="above"/>
					</articulations>
				</notations>
			</note>
			<note default-x="178.22" default-y="-20.00">
				<rest/>
				<duration>2</duration>
				<voice>1</voice>
				<type>eighth</type>
			</note>
		</measure>
		<measure number="9" width="220.15">
			<note default-x="13.00" default-y="-45.00">
				<pitch>
					<step>D</step>
					<octave>4</octave>
				</pitch>
				<duration>2</duration>
				<voice>1</voice>
				<type>eighth</type>
				<stem>up</stem>
			</note>
			<note default-x="50.18" default-y="-40.00">
				<pitch>
					<step>E</step>
					<alter>-0.5</alter>
					<octave>4</octave>
				</pitch>
				<duration>4</duration>
				<tie type="start"/>
				<voice>1</voice>
				<type>quarter</type>
				<accidental>quarter-flat</accidental>
				<stem>up</stem>
				<notations>
					<tied type="start"/>
				</notations>
			</note>
			<note default-x="96.06" default-y="-40.00">
				<pitch>
					<step>E</step>
					<octave>4</octave>
				</pitch>
				<duration>2</duration>
				<tie type="stop"/>
				<voice>1</voice>
				<type>eighth</type>
				<stem>up</stem>
				<notations>
					<tied type="stop"/>
				</notations>
			</note>
			<note default-x="126.64" default-y="-40.00">
				<pitch>
					<step>E</step>
					<octave>4</octave>
				</pitch>
				<duration>1</duration>
				<voice>1</voice>
				<type>16th</type>
				<stem>up</stem>
			</note>
			<note default-x="154.70" default-y="-40.00">
				<pitch>
					<step>E</step>
					<octave>4</octave>
				</pitch>
				<duration>7</duration>
				<voice>1</voice>
				<type>quarter</type>
				<dot/>
				<dot/>
				<stem>up</stem>
			</note>
		</measure>
		<measure number="10" width="253.48">
			<direction placement="below">
				<direction-type>
					<words default-y="-40.00" relative-x="-5.13" relative-y="-43.55">to - re - re. Ta - hu - ri-mai ki - mu - ri - ra</words>
				</direction-type>
			</direction>
			<note default-x="58.82" default-y="-40.00">
				<pitch>
					<step>E</step>
					<alter>-0.5</alter>
					<octave>4</octave>
				</pitch>
				<duration>4</duration>
				<voice>1</voice>
				<type>quarter</type>
				<accidental>quarter-flat</accidental>
				<stem>up</stem>
			</note>
			<note default-x="102.72" default-y="-40.00">
				<pitch>
					<step>E</step>
					<octave>4</octave>
				</pitch>
				<duration>6</duration>
				<voice>1</voice>
				<type>quarter</type>
				<dot/>
				<stem>up</stem>
			</note>
			<note default-x="158.37" default-y="-40.00">
				<pitch>
					<step>E</step>
					<alter>0.5</alter>
					<octave>4</octave>
				</pitch>
				<duration>2</duration>
				<voice>1</voice>
				<type>eighth</type>
				<accidental>quarter-sharp</accidental>
				<stem>up</stem>
			</note>
			<note default-x="187.64" default-y="-40.00">
				<pitch>
					<step>E</step>
					<octave>4</octave>
				</pitch>
				<duration>2</duration>
				<voice>1</voice>
				<type>eighth</type>
				<stem>up</stem>
			</note>
			<note default-x="216.91" default-y="-20.00">
				<rest/>
				<duration>2</duration>
				<voice>1</voice>
				<type>eighth</type>
			</note>
			<barline location="right">
				<bar-style>light-light</bar-style>
			</barline>
		</measure>
		<measure number="11" width="212.11">
			<note default-x="13.00" default-y="-50.00">
				<pitch>
					<step>C</step>
					<octave>4</octave>
				</pitch>
				<duration>2</duration>
				<voice>1</voice>
				<type>eighth</type>
				<stem>up</stem>
			</note>
			<note default-x="52.22" default-y="-45.00">
				<pitch>
					<step>D</step>
					<alter>1</alter>
					<octave>4</octave>
				</pitch>
				<duration>4</duration>
				<voice>1</voice>
				<type>quarter</type>
				<accidental>sharp</accidental>
				<stem>up</stem>
			</note>
			<note default-x="96.12" default-y="-40.00">
				<pitch>
					<step>E</step>
					<alter>-0.5</alter>
					<octave>4</octave>
				</pitch>
				<duration>2</duration>
				<voice>1</voice>
				<type>eighth</type>
				<accidental>quarter-flat</accidental>
				<stem>up</stem>
			</note>
			<note default-x="125.39" default-y="-40.00">
				<pitch>
					<step>E</step>
					<octave>4</octave>
				</pitch>
				<duration>6</duration>
				<voice>1</voice>
				<type>quarter</type>
				<dot/>
				<stem>up</stem>
			</note>
			<note default-x="181.04" default-y="-20.00">
				<rest/>
				<duration>2</duration>
				<voice>1</voice>
				<type>eighth</type>
			</note>
		</measure>
		<measure number="12" width="209.16">
			<note default-x="17.12" default-y="-40.00">
				<pitch>
					<step>E</step>
					<alter>-1</alter>
					<octave>4</octave>
				</pitch>
				<duration>4</duration>
				<voice>1</voice>
				<type>quarter</type>
				<accidental>flat</accidental>
				<stem>up</stem>
			</note>
			<note default-x="61.02" default-y="-40.00">
				<pitch>
					<step>E</step>
					<alter>-1</alter>
					<octave>4</octave>
				</pitch>
				<duration>4</duration>
				<voice>1</voice>
				<type>quarter</type>
				<stem>up</stem>
			</note>
			<note default-x="104.92" default-y="-40.00">
				<pitch>
					<step>E</step>
					<alter>-1</alter>
					<octave>4</octave>
				</pitch>
				<duration>2</duration>
				<voice>1</voice>
				<type>eighth</type>
				<stem>up</stem>
			</note>
			<note default-x="134.19" default-y="-40.00">
				<pitch>
					<step>E</step>
					<alter>-1</alter>
					<octave>4</octave>
				</pitch>
				<duration>4</duration>
				<voice>1</voice>
				<type>quarter</type>
				<stem>up</stem>
			</note>
			<note default-x="178.09" default-y="-20.00">
				<rest/>
				<duration>2</duration>
				<voice>1</voice>
				<type>eighth</type>
			</note>
		</measure>
		<measure number="13" width="239.82">
			<direction placement="below">
				<direction-type>
					<words default-y="-40.00" relative-x="-2.56" relative-y="-47.39">ki - a - rin - gia a - tu - he - wai ke - i - a - ku- ka -mo</words>
				</direction-type>
			</direction>
			<note default-x="58.60" default-y="-45.00">
				<pitch>
					<step>D</step>
					<octave>4</octave>
				</pitch>
				<duration>4</duration>
				<voice>1</voice>
				<type>quarter</type>
				<stem>up</stem>
			</note>
			<note default-x="103.27" default-y="-40.00">
				<pitch>
					<step>E</step>
					<octave>4</octave>
				</pitch>
				<duration>4</duration>
				<voice>1</voice>
				<type>quarter</type>
				<stem>up</stem>
			</note>
			<note default-x="147.94" default-y="-40.00">
				<pitch>
					<step>E</step>
					<octave>4</octave>
				</pitch>
				<duration>6</duration>
				<voice>1</voice>
				<type>quarter</type>
				<dot/>
				<stem>up</stem>
			</note>
			<note default-x="204.56" default-y="-40.00">
				<pitch>
					<step>E</step>
					<alter>0.5</alter>
					<octave>4</octave>
				</pitch>
				<duration>2</duration>
				<voice>1</voice>
				<type>eighth</type>
				<accidental>quarter-sharp</accidental>
				<stem>up</stem>
			</note>
		</measure>
		<measure number="14" width="191.33">
			<note default-x="16.72" default-y="-40.00">
				<pitch>
					<step>E</step>
					<alter>-0.5</alter>
					<octave>4</octave>
				</pitch>
				<duration>2</duration>
				<voice>1</voice>
				<type>eighth</type>
				<accidental>quarter-flat</accidental>
				<stem>up</stem>
			</note>
			<note default-x="46.50" default-y="-40.00">
				<pitch>
					<step>E</step>
					<octave>4</octave>
				</pitch>
				<duration>6</duration>
				<voice>1</voice>
				<type>quarter</type>
				<dot/>
				<stem>up</stem>
			</note>
			<note default-x="103.13" default-y="-40.00">
				<pitch>
					<step>E</step>
					<octave>4</octave>
				</pitch>
				<duration>2</duration>
				<voice>1</voice>
				<type>eighth</type>
				<stem>up</stem>
			</note>
			<note default-x="132.91" default-y="-40.00">
				<pitch>
					<step>E</step>
					<octave>4</octave>
				</pitch>
				<duration>6</duration>
				<voice>1</voice>
				<type>quarter</type>
				<dot/>
				<stem>up</stem>
			</note>
		</measure>
		<measure number="15" width="243.59">
			<note default-x="17.12" default-y="-40.00">
				<pitch>
					<step>E</step>
					<alter>-1</alter>
					<octave>4</octave>
				</pitch>
				<duration>2</duration>
				<voice>1</voice>
				<type>eighth</type>
				<accidental>flat</accidental>
				<stem>up</stem>
			</note>
			<note default-x="46.90" default-y="-40.00">
				<pitch>
					<step>E</step>
					<alter>-1</alter>
					<octave>4</octave>
				</pitch>
				<duration>6</duration>
				<voice>1</voice>
				<type>quarter</type>
				<dot/>
				<stem>up</stem>
			</note>
			<note default-x="103.53" default-y="-40.00">
				<pitch>
					<step>E</step>
					<alter>-1</alter>
					<octave>4</octave>
				</pitch>
				<duration>2</duration>
				<voice>1</voice>
				<type>eighth</type>
				<stem>up</stem>
			</note>
			<note default-x="133.31" default-y="-40.00">
				<pitch>
					<step>E</step>
					<alter>-1</alter>
					<octave>4</octave>
				</pitch>
				<duration>2</duration>
				<voice>1</voice>
				<type>eighth</type>
				<stem>up</stem>
			</note>
			<note default-x="170.48" default-y="-40.00">
				<pitch>
					<step>E</step>
					<alter>-0.5</alter>
					<octave>4</octave>
				</pitch>
				<duration>1</duration>
				<voice>1</voice>
				<type>16th</type>
				<accidental>quarter-flat</accidental>
				<stem>up</stem>
			</note>
			<note default-x="198.54" default-y="-40.00">
				<pitch>
					<step>E</step>
					<octave>4</octave>
				</pitch>
				<duration>3</duration>
				<voice>1</voice>
				<type>eighth</type>
				<dot/>
				<stem>up</stem>
			</note>
			<barline location="right">
				<bar-style>light-light</bar-style>
			</barline>
		</measure>
		<measure number="16" width="266.72">
			<direction placement="below">
				<direction-type>
					<words default-y="-40.00" relative-x="-1.42" relative-y="-48.28">E ha-ra -i - a - an na - na -ra -wai Tu - a - ta - hi;</words>
				</direction-type>
			</direction>
			<note default-x="58.60" default-y="-50.00">
				<pitch>
					<step>C</step>
					<octave>4</octave>
				</pitch>
				<duration>2</duration>
				<voice>1</voice>
				<type>eighth</type>
				<stem>up</stem>
			</note>
			<note default-x="88.07" default-y="-40.00">
				<pitch>
					<step>E</step>
					<octave>4</octave>
				</pitch>
				<duration>2</duration>
				<voice>1</voice>
				<type>eighth</type>
				<stem>up</stem>
				<beam number="1">begin</beam>
			</note>
			<note default-x="117.55" default-y="-40.00">
				<pitch>
					<step>E</step>
					<octave>4</octave>
				</pitch>
				<duration>2</duration>
				<voice>1</voice>
				<type>eighth</type>
				<stem>up</stem>
				<beam number="1">end</beam>
			</note>
			<note default-x="147.02" default-y="-45.00">
				<pitch>
					<step>D</step>
					<alter>1</alter>
					<octave>4</octave>
				</pitch>
				<duration>4</duration>
				<voice>1</voice>
				<type>quarter</type>
				<accidental>sharp</accidental>
				<stem>up</stem>
			</note>
			<note default-x="191.23" default-y="-40.00">
				<pitch>
					<step>E</step>
					<alter>-0.5</alter>
					<octave>4</octave>
				</pitch>
				<duration>2</duration>
				<voice>1</voice>
				<type>eighth</type>
				<accidental>quarter-flat</accidental>
				<stem>up</stem>
			</note>
			<direction placement="above">
				<direction-type>
					<wedge default-y="14.13" number="1" relative-x="-0.81" type="diminuendo"/>
				</direction-type>
			</direction>
			<note default-x="220.71" default-y="-40.00">
				<pitch>
					<step>E</step>
					<octave>4</octave>
				</pitch>
				<duration>4</duration>
				<voice>1</voice>
				<type>quarter</type>
				<stem>up</stem>
			</note>
			<direction placement="above">
				<direction-type>
					<wedge number="1" relative-x="-7.29" type="stop"/>
				</direction-type>
			</direction>
		</measure>
		<measure number="17" width="219.28">
			<note default-x="17.12" default-y="-40.00">
				<pitch>
					<step>E</step>
					<alter>-1</alter>
					<octave>4</octave>
				</pitch>
				<duration>2</duration>
				<voice>1</voice>
				<type>eighth</type>
				<accidental>flat</accidental>
				<stem>up</stem>
			</note>
			<note default-x="54.29" default-y="-40.00">
				<pitch>
					<step>E</step>
					<alter>-0.5</alter>
					<octave>4</octave>
				</pitch>
				<duration>2</duration>
				<voice>1</voice>
				<type>eighth</type>
				<accidental>quarter-flat</accidental>
				<stem>up</stem>
			</note>
			<note default-x="83.77" default-y="-40.00">
				<pitch>
					<step>E</step>
					<octave>4</octave>
				</pitch>
				<duration>4</duration>
				<voice>1</voice>
				<type>quarter</type>
				<stem>up</stem>
			</note>
			<note default-x="127.98" default-y="-40.00">
				<pitch>
					<step>E</step>
					<octave>4</octave>
				</pitch>
				<duration>6</duration>
				<voice>1</voice>
				<type>quarter</type>
				<dot/>
				<stem>up</stem>
			</note>
			<note default-x="184.03" default-y="-35.00">
				<pitch>
					<step>F</step>
					<octave>4</octave>
				</pitch>
				<duration>2</duration>
				<voice>1</voice>
				<type>eighth</type>
				<stem>up</stem>
			</note>
		</measure>
		<measure number="18" width="188.74">
			<note default-x="13.00" default-y="-45.00">
				<pitch>
					<step>D</step>
					<octave>4</octave>
				</pitch>
				<duration>4</duration>
				<voice>1</voice>
				<type>quarter</type>
				<stem>up</stem>
			</note>
			<note default-x="57.21" default-y="-45.00">
				<pitch>
					<step>D</step>
					<alter>0.5</alter>
					<octave>4</octave>
				</pitch>
				<duration>4</duration>
				<voice>1</voice>
				<type>quarter</type>
				<accidental>quarter-sharp</accidental>
				<stem>up</stem>
			</note>
			<note default-x="101.42" default-y="-45.00">
				<pitch>
					<step>D</step>
					<alter>1</alter>
					<octave>4</octave>
				</pitch>
				<duration>2</duration>
				<voice>1</voice>
				<type>eighth</type>
				<accidental>sharp</accidental>
				<stem>up</stem>
			</note>
			<note default-x="130.90" default-y="-40.00">
				<pitch>
					<step>E</step>
					<octave>4</octave>
				</pitch>
				<duration>6</duration>
				<voice>1</voice>
				<type>quarter</type>
				<dot/>
				<stem>up</stem>
			</note>
		</measure>
		<measure number="19" width="217.16">
			<direction placement="below">
				<direction-type>
					<words default-y="-40.00" relative-x="-11.40" relative-y="-51.13">Naw ra - wa - i tna - pe-ka ke - te - i - ti Ta - hau</words>
				</direction-type>
			</direction>
			<note default-x="58.60" default-y="-45.00">
				<pitch>
					<step>D</step>
					<octave>4</octave>
				</pitch>
				<duration>4</duration>
				<voice>1</voice>
				<type>quarter</type>
				<stem>up</stem>
			</note>
			<note default-x="97.86" default-y="-45.00">
				<pitch>
					<step>D</step>
					<alter>0.5</alter>
					<octave>4</octave>
				</pitch>
				<duration>4</duration>
				<voice>1</voice>
				<type>quarter</type>
				<accidental>quarter-sharp</accidental>
				<stem>up</stem>
			</note>
			<note default-x="137.13" default-y="-45.00">
				<pitch>
					<step>D</step>
					<alter>1</alter>
					<octave>4</octave>
				</pitch>
				<duration>2</duration>
				<voice>1</voice>
				<type>eighth</type>
				<accidental>sharp</accidental>
				<stem>up</stem>
			</note>
			<note default-x="165.59" default-y="-40.00">
				<pitch>
					<step>E</step>
					<octave>4</octave>
				</pitch>
				<duration>6</duration>
				<voice>1</voice>
				<type>quarter</type>
				<dot/>
				<stem>up</stem>
			</note>
		</measure>
		<measure number="20" width="280.51">
			<note default-x="13.00" default-y="-40.00">
				<pitch>
					<step>E</step>
					<octave>4</octave>
				</pitch>
				<duration>2</duration>
				<voice>1</voice>
				<type>eighth</type>
				<stem>up</stem>
			</note>
			<note default-x="41.46" default-y="-40.00">
				<pitch>
					<step>E</step>
					<octave>4</octave>
				</pitch>
				<duration>2</duration>
				<voice>1</voice>
				<type>eighth</type>
				<stem>up</stem>
			</note>
			<note default-x="78.11" default-y="-40.00">
				<pitch>
					<step>E</step>
					<alter>0.5</alter>
					<octave>4</octave>
				</pitch>
				<duration>1</duration>
				<voice>1</voice>
				<type>16th</type>
				<accidental>quarter-sharp</accidental>
				<stem>up</stem>
			</note>
			<note default-x="106.17" default-y="-40.00">
				<pitch>
					<step>E</step>
					<octave>4</octave>
				</pitch>
				<duration>3</duration>
				<voice>1</voice>
				<type>eighth</type>
				<dot/>
				<stem>up</stem>
			</note>
			<note default-x="139.35" default-y="-45.00">
				<pitch>
					<step>D</step>
					<octave>4</octave>
				</pitch>
				<duration>2</duration>
				<voice>1</voice>
				<type>eighth</type>
				<stem>up</stem>
			</note>
			<note default-x="176.93" default-y="-40.00">
				<pitch>
					<step>E</step>
					<alter>-1</alter>
					<octave>4</octave>
				</pitch>
				<duration>2</duration>
				<voice>1</voice>
				<type>eighth</type>
				<accidental>flat</accidental>
				<stem>up</stem>
			</note>
			<note default-x="214.10" default-y="-40.00">
				<pitch>
					<step>E</step>
					<alter>-0.5</alter>
					<octave>4</octave>
				</pitch>
				<duration>1</duration>
				<voice>1</voice>
				<type>16th</type>
				<accidental>quarter-flat</accidental>
				<stem>up</stem>
			</note>
			<note default-x="242.16" default-y="-40.00">
				<pitch>
					<step>E</step>
					<octave>4</octave>
				</pitch>
				<duration>3</duration>
				<voice>1</voice>
				<type>eighth</type>
				<dot/>
				<stem>up</stem>
			</note>
		</measure>
		<measure number="21" width="177.07">
			<note default-x="13.00" default-y="-45.00">
				<pitch>
					<step>D</step>
					<octave>4</octave>
				</pitch>
				<duration>6</duration>
				<voice>1</voice>
				<type>quarter</type>
				<dot/>
				<stem>up</stem>
			</note>
			<note default-x="62.78" default-y="-40.00">
				<pitch>
					<step>E</step>
					<alter>-1</alter>
					<octave>4</octave>
				</pitch>
				<duration>4</duration>
				<voice>1</voice>
				<type>quarter</type>
				<accidental>flat</accidental>
				<stem>up</stem>
			</note>
			<note default-x="102.04" default-y="-40.00">
				<pitch>
					<step>E</step>
					<alter>-0.5</alter>
					<octave>4</octave>
				</pitch>
				<duration>2</duration>
				<voice>1</voice>
				<type>eighth</type>
				<accidental>quarter-flat</accidental>
				<stem>up</stem>
				<notations>
					<slur number="1" placement="below" type="start"/>
				</notations>
			</note>
			<note default-x="130.50" default-y="-40.00">
				<pitch>
					<step>E</step>
					<octave>4</octave>
				</pitch>
				<duration>4</duration>
				<voice>1</voice>
				<type>quarter</type>
				<stem>up</stem>
				<notations>
					<slur number="1" type="stop"/>
				</notations>
			</note>
			<barline location="right">
				<bar-style>light-light</bar-style>
			</barline>
		</measure>
		<measure number="22" width="254.22">
			<direction placement="below">
				<direction-type>
					<words default-y="-40.00" relative-x="-2.85" relative-y="-48.28">No - rei - ra - te ngā - kau i - wha - ha -war</words>
				</direction-type>
			</direction>
			<note default-x="58.82" default-y="-40.00">
				<pitch>
					<step>E</step>
					<alter>-0.5</alter>
					<octave>4</octave>
				</pitch>
				<duration>4</duration>
				<voice>1</voice>
				<type>quarter</type>
				<accidental>quarter-flat</accidental>
				<stem>up</stem>
			</note>
			<note default-x="108.02" default-y="-40.00">
				<pitch>
					<step>E</step>
					<octave>4</octave>
				</pitch>
				<duration>4</duration>
				<voice>1</voice>
				<type>quarter</type>
				<stem>up</stem>
			</note>
			<note default-x="157.23" default-y="-40.00">
				<pitch>
					<step>E</step>
					<alter>0.5</alter>
					<octave>4</octave>
				</pitch>
				<duration>2</duration>
				<voice>1</voice>
				<type>eighth</type>
				<accidental>quarter-sharp</accidental>
				<stem>up</stem>
			</note>
			<note default-x="190.04" default-y="-40.00">
				<pitch>
					<step>E</step>
					<octave>4</octave>
				</pitch>
				<duration>6</duration>
				<voice>1</voice>
				<type>quarter</type>
				<dot/>
				<stem>up</stem>
			</note>
		</measure>
		<measure number="23" width="212.12">
			<note default-x="16.72" default-y="-40.00">
				<pitch>
					<step>E</step>
					<alter>-0.5</alter>
					<octave>4</octave>
				</pitch>
				<duration>4</duration>
				<voice>1</voice>
				<type>quarter</type>
				<accidental>quarter-flat</accidental>
				<stem>up</stem>
				<notations>
					<slur number="1" placement="below" type="start"/>
				</notations>
			</note>
			<note default-x="65.93" default-y="-40.00">
				<pitch>
					<step>E</step>
					<octave>4</octave>
				</pitch>
				<duration>4</duration>
				<voice>1</voice>
				<type>quarter</type>
				<stem>up</stem>
				<notations>
					<slur number="1" type="stop"/>
				</notations>
			</note>
			<note default-x="115.14" default-y="-40.00">
				<pitch>
					<step>E</step>
					<octave>4</octave>
				</pitch>
				<duration>2</duration>
				<voice>1</voice>
				<type>eighth</type>
				<stem>up</stem>
			</note>
			<note default-x="147.94" default-y="-40.00">
				<pitch>
					<step>E</step>
					<octave>4</octave>
				</pitch>
				<duration>6</duration>
				<voice>1</voice>
				<type>quarter</type>
				<dot/>
				<stem>up</stem>
			</note>
		</measure>
		<measure number="24" width="208.40">
			<note default-x="13.00" default-y="-45.00">
				<pitch>
					<step>D</step>
					<octave>4</octave>
				</pitch>
				<duration>4</duration>
				<voice>1</voice>
				<type>quarter</type>
				<stem>up</stem>
			</note>
			<note default-x="62.21" default-y="-40.00">
				<pitch>
					<step>E</step>
					<alter>-1</alter>
					<octave>4</octave>
				</pitch>
				<duration>4</duration>
				<voice>1</voice>
				<type>quarter</type>
				<accidental>flat</accidental>
				<stem>up</stem>
			</note>
			<note default-x="111.42" default-y="-40.00">
				<pitch>
					<step>E</step>
					<alter>-0.5</alter>
					<octave>4</octave>
				</pitch>
				<duration>2</duration>
				<voice>1</voice>
				<type>eighth</type>
				<accidental>quarter-flat</accidental>
				<stem>up</stem>
			</note>
			<note default-x="144.22" default-y="-40.00">
				<pitch>
					<step>E</step>
					<octave>4</octave>
				</pitch>
				<duration>6</duration>
				<voice>1</voice>
				<type>quarter</type>
				<dot/>
				<stem>up</stem>
			</note>
		</measure>
		<measure number="25" width="246.61">
			<direction placement="below">
				<direction-type>
					<words default-y="-40.00" relative-x="-4.27" relative-y="-62.53">Ran- gi - ar; He - ko - no - hi a - ro - ha</words>
				</direction-type>
			</direction>
			<note default-x="58.60" default-y="-55.00">
				<pitch>
					<step>B</step>
					<octave>3</octave>
				</pitch>
				<duration>4</duration>
				<voice>1</voice>
				<type>quarter</type>
				<stem>up</stem>
			</note>
			<note default-x="105.93" default-y="-40.00">
				<pitch>
					<step>E</step>
					<octave>4</octave>
				</pitch>
				<duration>4</duration>
				<voice>1</voice>
				<type>quarter</type>
				<stem>up</stem>
			</note>
			<note default-x="153.26" default-y="-40.00">
				<pitch>
					<step>E</step>
					<octave>4</octave>
				</pitch>
				<duration>6</duration>
				<voice>1</voice>
				<type>quarter</type>
				<dot/>
				<stem>up</stem>
			</note>
			<note default-x="213.26" default-y="-20.00">
				<rest/>
				<duration>2</duration>
				<voice>1</voice>
				<type>eighth</type>
			</note>
		</measure>
		<measure number="26" width="204.12">
			<note default-x="13.00" default-y="-50.00">
				<pitch>
					<step>C</step>
					<octave>4</octave>
				</pitch>
				<duration>4</duration>
				<voice>1</voice>
				<type>quarter</type>
				<stem>up</stem>
			</note>
			<note default-x="60.33" default-y="-40.00">
				<pitch>
					<step>E</step>
					<octave>4</octave>
				</pitch>
				<duration>4</duration>
				<voice>1</voice>
				<type>quarter</type>
				<stem>up</stem>
			</note>
			<note default-x="107.66" default-y="-40.00">
				<pitch>
					<step>E</step>
					<octave>4</octave>
				</pitch>
				<duration>4</duration>
				<voice>1</voice>
				<type>quarter</type>
				<stem>up</stem>
			</note>
			<note default-x="154.99" default-y="-40.00">
				<pitch>
					<step>E</step>
					<alter>-0.5</alter>
					<octave>4</octave>
				</pitch>
				<duration>4</duration>
				<voice>1</voice>
				<type>quarter</type>
				<accidental>quarter-flat</accidental>
				<stem>up</stem>
			</note>
		</measure>
		<measure number="27" width="224.01">
			<note default-x="17.12" default-y="-40.00">
				<pitch>
					<step>E</step>
					<alter>-1</alter>
					<octave>4</octave>
				</pitch>
				<duration>4</duration>
				<voice>1</voice>
				<type>quarter</type>
				<accidental>flat</accidental>
				<stem>up</stem>
			</note>
			<note default-x="64.45" default-y="-40.00">
				<pitch>
					<step>E</step>
					<alter>-0.5</alter>
					<octave>4</octave>
				</pitch>
				<duration>4</duration>
				<voice>1</voice>
				<type>quarter</type>
				<accidental>quarter-flat</accidental>
				<stem>up</stem>
				<notations>
					<slur number="1" placement="below" type="start"/>
				</notations>
			</note>
			<note default-x="111.78" default-y="-40.00">
				<pitch>
					<step>E</step>
					<octave>4</octave>
				</pitch>
				<duration>4</duration>
				<voice>1</voice>
				<type>quarter</type>
				<stem>up</stem>
				<notations>
					<slur number="1" type="stop"/>
				</notations>
			</note>
			<note default-x="159.11" default-y="-40.00">
				<pitch>
					<step>E</step>
					<octave>4</octave>
				</pitch>
				<duration>2</duration>
				<voice>1</voice>
				<type>eighth</type>
				<stem>up</stem>
			</note>
			<note default-x="190.66" default-y="-20.00">
				<rest/>
				<duration>2</duration>
				<voice>1</voice>
				<type>eighth</type>
			</note>
		</measure>
		<measure number="28" width="238.63">
			<direction placement="below">
				<direction-type>
					<words default-y="-40.00" relative-x="-1.42" relative-y="-61.10">no - ku - ki A - ko - e - ra.</words>
				</direction-type>
			</direction>
			<note default-x="58.60" default-y="-55.00">
				<pitch>
					<step>B</step>
					<octave>3</octave>
				</pitch>
				<duration>4</duration>
				<voice>1</voice>
				<type>quarter</type>
				<stem>up</stem>
				<notations>
					<slur number="1" placement="below" type="start"/>
				</notations>
			</note>
			<note default-x="103.15" default-y="-45.00">
				<pitch>
					<step>D</step>
					<octave>4</octave>
				</pitch>
				<duration>4</duration>
				<voice>1</voice>
				<type>quarter</type>
				<stem>up</stem>
				<notations>
					<slur number="1" type="stop"/>
				</notations>
			</note>
			<note default-x="147.71" default-y="-45.00">
				<pitch>
					<step>D</step>
					<alter>0.5</alter>
					<octave>4</octave>
				</pitch>
				<duration>4</duration>
				<voice>1</voice>
				<type>quarter</type>
				<accidental>quarter-sharp</accidental>
				<stem>up</stem>
			</note>
			<note default-x="192.27" default-y="-45.00">
				<pitch>
					<step>D</step>
					<alter>1</alter>
					<octave>4</octave>
				</pitch>
				<duration>4</duration>
				<voice>1</voice>
				<type>quarter</type>
				<accidental>sharp</accidental>
				<stem>up</stem>
			</note>
		</measure>
		<measure number="29" width="193.03">
			<note default-x="13.00" default-y="-50.00">
				<pitch>
					<step>C</step>
					<octave>4</octave>
				</pitch>
				<duration>4</duration>
				<voice>1</voice>
				<type>quarter</type>
				<stem>up</stem>
			</note>
			<note default-x="57.56" default-y="-40.00">
				<pitch>
					<step>E</step>
					<alter>-1</alter>
					<octave>4</octave>
				</pitch>
				<duration>4</duration>
				<voice>1</voice>
				<type>quarter</type>
				<accidental>flat</accidental>
				<stem>up</stem>
			</note>
			<note default-x="102.11" default-y="-40.00">
				<pitch>
					<step>E</step>
					<alter>-0.5</alter>
					<octave>4</octave>
				</pitch>
				<duration>4</duration>
				<voice>1</voice>
				<type>quarter</type>
				<accidental>quarter-flat</accidental>
				<stem>up</stem>
			</note>
			<note default-x="146.67" default-y="-40.00">
				<pitch>
					<step>E</step>
					<octave>4</octave>
				</pitch>
				<duration>4</duration>
				<voice>1</voice>
				<type>quarter</type>
				<stem>up</stem>
			</note>
		</measure>
		<measure number="30" width="243.09">
			<direction placement="above">
				<direction-type>
					<wedge default-y="20.00" number="1" type="diminuendo"/>
				</direction-type>
			</direction>
			<note default-x="13.00" default-y="-45.00">
				<pitch>
					<step>D</step>
					<octave>4</octave>
				</pitch>
				<duration>2</duration>
				<voice>1</voice>
				<type>eighth</type>
				<stem>up</stem>
				<beam number="1">begin</beam>
			</note>
			<note default-x="42.70" default-y="-50.00">
				<pitch>
					<step>C</step>
					<octave>4</octave>
				</pitch>
				<duration>2</duration>
				<voice>1</voice>
				<type>eighth</type>
				<stem>up</stem>
				<beam number="1">continue</beam>
			</note>
			<note default-x="72.41" default-y="-55.00">
				<pitch>
					<step>B</step>
					<octave>3</octave>
				</pitch>
				<duration>2</duration>
				<voice>1</voice>
				<type>eighth</type>
				<stem>up</stem>
				<beam number="1">continue</beam>
			</note>
			<note default-x="102.11" default-y="-60.00">
				<pitch>
					<step>A</step>
					<octave>3</octave>
				</pitch>
				<duration>2</duration>
				<voice>1</voice>
				<type>eighth</type>
				<stem>up</stem>
				<beam number="1">continue</beam>
			</note>
			<direction placement="above">
				<direction-type>
					<wedge number="1" type="stop"/>
				</direction-type>
			</direction>
			<note default-x="131.82" default-y="-65.00">
				<pitch>
					<step>G</step>
					<octave>3</octave>
				</pitch>
				<duration>2</duration>
				<voice>1</voice>
				<type>eighth</type>
				<stem>up</stem>
				<beam number="1">continue</beam>
			</note>
			<note default-x="161.52" default-y="-70.00">
				<pitch>
					<step>F</step>
					<octave>3</octave>
				</pitch>
				<duration>2</duration>
				<voice>1</voice>
				<type>eighth</type>
				<stem>up</stem>
				<beam number="1">end</beam>
			</note>
			<note default-x="191.23" default-y="-75.00">
				<pitch>
					<step>E</step>
					<octave>3</octave>
				</pitch>
				<duration>4</duration>
				<voice>1</voice>
				<type>quarter</type>
				<stem>up</stem>
			</note>
			<barline location="right">
				<bar-style>light-light</bar-style>
			</barline>
		</measure>
	</part>
</score-partwise>
