<?xml version="1.0" encoding="utf-8"?>
<!DOCTYPE score-partwise PUBLIC "-//Recordare//DTD MusicXML 4.0 Partwise//EN" "http://www.musicxml.org/dtds/partwise.dtd">
<score-partwise version="4.0">
	<work>
		<work-title>Polynesian Mythology</work-title>
	</work>
	<identification>
		<encoding>
			<software>MuseScore 4.1.1</software>
			<encoding-date>2023-07-29</encoding-date>
			<supports element="accidental" type="yes"/>
			<supports element="beam" type="yes"/>
			<supports attribute="new-page" element="print" type="no"/>
			<supports attribute="new-system" element="print" type="no"/>
			<supports element="stem" type="yes"/>
		</encoding>
	</identification>
	<defaults>
		<scaling>
			<millimeters>7</millimeters>
			<tenths>40</tenths>
		</scaling>
		<page-layout>
			<page-height>1200.34</page-height>
			<page-width>846.171</page-width>
			<page-margins type="even">
				<left-margin>85.7143</left-margin>
				<right-margin>85.7143</right-margin>
				<top-margin>85.7143</top-margin>
				<bottom-margin>85.7143</bottom-margin>
			</page-margins>
			<page-margins type="odd">
				<left-margin>85.7143</left-margin>
				<right-margin>85.7143</right-margin>
				<top-margin>85.7143</top-margin>
				<bottom-margin>85.7143</bottom-margin>
			</page-margins>
		</page-layout>
		<word-font font-family="Edwin" font-size="10"/>
		<lyric-font font-family="Edwin" font-size="10"/>
	</defaults>
	<part-list>
		<score-part id="P1">
			<part-name>Piano</part-name>
			<part-abbreviation>Pno.</part-abbreviation>
			<score-instrument id="P1-I1">
				<instrument-name>Piano</instrument-name>
				<instrument-sound>keyboard.piano</instrument-sound>
			</score-instrument>
			<midi-device id="P1-I1" port="1"/>
			<midi-instrument id="P1-I1">
				<midi-channel>1</midi-channel>
				<midi-program>1</midi-program>
				<volume>78.7402</volume>
				<pan>0</pan>
			</midi-instrument>
		</score-part>
	</part-list>
	<part id="P1">
		<measure number="1" width="275.83">
			<print>
				<system-layout>
					<system-margins>
						<left-margin>0.00</left-margin>
						<right-margin>0.00</right-margin>
					</system-margins>
					<top-system-distance>70.00</top-system-distance>
				</system-layout>
			</print>
			<attributes>
				<divisions>2</divisions>
				<key>
					<fifths>0</fifths>
				</key>
				<time symbol="common">
					<beats>4</beats>
					<beat-type>4</beat-type>
				</time>
				<clef>
					<sign>G</sign>
					<line>2</line>
				</clef>
			</attributes>
			<direction>
				<direction-type>
					<words relative-y="13.96">Solo</words>
				</direction-type>
			</direction>
			<direction>
				<direction-type>
					<words default-y="-40.00" relative-x="-14.51" relative-y="-51.39">Wha - ka - ron - go ke - te - tar - e tan - gi ha - er -</words>
				</direction-type>
			</direction>
			<note default-x="89.38" default-y="-45.00">
				<pitch>
					<step>D</step>
					<alter>1</alter>
					<octave>4</octave>
				</pitch>
				<duration>2</duration>
				<voice>1</voice>
				<type>quarter</type>
				<accidental>sharp</accidental>
				<stem>up</stem>
			</note>
			<note default-x="135.54" default-y="-45.00">
				<pitch>
					<step>D</step>
					<alter>1</alter>
					<octave>4</octave>
				</pitch>
				<duration>2</duration>
				<voice>1</voice>
				<type>quarter</type>
				<stem>up</stem>
			</note>
			<note default-x="181.70" default-y="-45.00">
				<pitch>
					<step>D</step>
					<alter>1</alter>
					<octave>4</octave>
				</pitch>
				<duration>2</duration>
				<voice>1</voice>
				<type>quarter</type>
				<stem>up</stem>
			</note>
			<note default-x="227.87" default-y="-45.00">
				<pitch>
					<step>D</step>
					<alter>1</alter>
					<octave>4</octave>
				</pitch>
				<duration>2</duration>
				<voice>1</voice>
				<type>quarter</type>
				<stem>up</stem>
			</note>
		</measure>
		<measure number="2" width="199.46">
			<note default-x="13.00" default-y="-55.00">
				<pitch>
					<step>B</step>
					<octave>3</octave>
				</pitch>
				<duration>2</duration>
				<voice>1</voice>
				<type>quarter</type>
				<stem>up</stem>
			</note>
			<note default-x="59.16" default-y="-50.00">
				<pitch>
					<step>C</step>
					<octave>4</octave>
				</pitch>
				<duration>2</duration>
				<voice>1</voice>
				<type>quarter</type>
				<stem>up</stem>
			</note>
			<note default-x="105.33" default-y="-45.00">
				<pitch>
					<step>D</step>
					<octave>4</octave>
				</pitch>
				<duration>2</duration>
				<voice>1</voice>
				<type>quarter</type>
				<stem>up</stem>
			</note>
			<note default-x="151.49" default-y="-45.00">
				<pitch>
					<step>D</step>
					<alter>-0.5</alter>
					<octave>4</octave>
				</pitch>
				<duration>2</duration>
				<voice>1</voice>
				<type>quarter</type>
				<accidental>quarter-flat</accidental>
				<stem>up</stem>
			</note>
		</measure>
		<measure number="3" width="199.46">
			<note default-x="13.00" default-y="-45.00">
				<pitch>
					<step>D</step>
					<octave>4</octave>
				</pitch>
				<duration>2</duration>
				<voice>1</voice>
				<type>quarter</type>
				<stem>up</stem>
			</note>
			<note default-x="59.16" default-y="-45.00">
				<pitch>
					<step>D</step>
					<octave>4</octave>
				</pitch>
				<duration>2</duration>
				<voice>1</voice>
				<type>quarter</type>
				<stem>up</stem>
			</note>
			<note default-x="105.33" default-y="-45.00">
				<pitch>
					<step>D</step>
					<octave>4</octave>
				</pitch>
				<duration>2</duration>
				<voice>1</voice>
				<type>quarter</type>
				<stem>up</stem>
			</note>
			<direction>
				<direction-type>
					<words relative-x="-253.35" relative-y="12.75">1st phrase solo, others in Chorus.</words>
				</direction-type>
			</direction>
			<note default-x="151.49" default-y="-50.00">
				<pitch>
					<step>C</step>
					<octave>4</octave>
				</pitch>
				<duration>2</duration>
				<voice>1</voice>
				<type>quarter</type>
				<stem>up</stem>
			</note>
		</measure>
		<measure number="4" width="233.48">
			<direction>
				<direction-type>
					<words default-y="-40.00" relative-y="-51.39">e - a - na Wha- ka- ri - ki - ri - ki ai - te - rai - kei</words>
				</direction-type>
			</direction>
			<note default-x="58.60" default-y="-45.00">
				<pitch>
					<step>D</step>
					<octave>4</octave>
				</pitch>
				<duration>2</duration>
				<voice>1</voice>
				<type>quarter</type>
				<stem>up</stem>
			</note>
			<note default-x="100.49" default-y="-45.00">
				<pitch>
					<step>D</step>
					<octave>4</octave>
				</pitch>
				<duration>2</duration>
				<voice>1</voice>
				<type>quarter</type>
				<stem>up</stem>
			</note>
			<note default-x="142.39" default-y="-45.00">
				<pitch>
					<step>D</step>
					<alter>1</alter>
					<octave>4</octave>
				</pitch>
				<duration>2</duration>
				<voice>1</voice>
				<type>quarter</type>
				<accidental>sharp</accidental>
				<stem>up</stem>
			</note>
			<note default-x="184.29" default-y="-45.00">
				<pitch>
					<step>D</step>
					<alter>1</alter>
					<octave>4</octave>
				</pitch>
				<duration>2</duration>
				<voice>1</voice>
				<type>quarter</type>
				<stem>up</stem>
			</note>
			<barline location="right">
				<bar-style>light-light</bar-style>
			</barline>
		</measure>
		<measure number="5" width="243.64">
			<direction placement="above">
				<direction-type>
					<words relative-y="10.00">Chorus</words>
				</direction-type>
			</direction>
			<note default-x="13.00" default-y="-55.00">
				<pitch>
					<step>B</step>
					<octave>3</octave>
				</pitch>
				<duration>2</duration>
				<voice>1</voice>
				<type>quarter</type>
				<stem>up</stem>
			</note>
			<note default-x="57.31" default-y="-55.00">
				<pitch>
					<step>B</step>
					<octave>3</octave>
				</pitch>
				<duration>1</duration>
				<voice>1</voice>
				<type>eighth</type>
				<stem>up</stem>
			</note>
			<note default-x="95.23" default-y="-50.00">
				<pitch>
					<step>C</step>
					<octave>4</octave>
				</pitch>
				<duration>1</duration>
				<voice>1</voice>
				<type>eighth</type>
				<stem>up</stem>
			</note>
			<note default-x="130.94" default-y="-45.00">
				<pitch>
					<step>D</step>
					<octave>4</octave>
				</pitch>
				<duration>1</duration>
				<voice>1</voice>
				<type>eighth</type>
				<stem>up</stem>
			</note>
			<note default-x="165.44" default-y="-45.00">
				<pitch>
					<step>D</step>
					<octave>4</octave>
				</pitch>
				<duration>1</duration>
				<voice>1</voice>
				<type>eighth</type>
				<stem>up</stem>
			</note>
			<note default-x="199.94" default-y="-45.00">
				<pitch>
					<step>D</step>
					<octave>4</octave>
				</pitch>
				<duration>2</duration>
				<voice>1</voice>
				<type>quarter</type>
				<stem>up</stem>
			</note>
		</measure>
		<measure number="6" width="197.62">
			<note default-x="22.26" default-y="-50.00">
				<pitch>
					<step>C</step>
					<alter>1</alter>
					<octave>4</octave>
				</pitch>
				<duration>2</duration>
				<voice>1</voice>
				<type>quarter</type>
				<accidental>sharp</accidental>
				<stem>up</stem>
			</note>
			<note default-x="64.16" default-y="-45.00">
				<pitch>
					<step>D</step>
					<octave>4</octave>
				</pitch>
				<duration>1</duration>
				<voice>1</voice>
				<type>eighth</type>
				<stem>up</stem>
			</note>
			<note default-x="100.81" default-y="-45.00">
				<pitch>
					<step>D</step>
					<alter>0.5</alter>
					<octave>4</octave>
				</pitch>
				<duration>3</duration>
				<voice>1</voice>
				<type>quarter</type>
				<dot/>
				<accidental>quarter-sharp</accidental>
				<stem>up</stem>
			</note>
			<note default-x="153.92" default-y="-45.00">
				<pitch>
					<step>D</step>
					<octave>4</octave>
				</pitch>
				<duration>2</duration>
				<voice>1</voice>
				<type>quarter</type>
				<stem>up</stem>
			</note>
		</measure>
		<measure number="7" width="267.96">
			<direction>
				<direction-type>
					<words default-y="-40.00" relative-y="-51.39">te - Hu - mh - i, To - hu - ai - o mai - no - hou - e</words>
				</direction-type>
			</direction>
			<note default-x="58.60" default-y="-45.00">
				<pitch>
					<step>D</step>
					<octave>4</octave>
				</pitch>
				<duration>2</duration>
				<voice>1</voice>
				<type>quarter</type>
				<stem>up</stem>
			</note>
			<note default-x="103.86" default-y="-45.00">
				<pitch>
					<step>D</step>
					<alter>-0.5</alter>
					<octave>4</octave>
				</pitch>
				<duration>1</duration>
				<voice>1</voice>
				<type>eighth</type>
				<accidental>quarter-flat</accidental>
				<stem>up</stem>
			</note>
			<note default-x="141.43" default-y="-45.00">
				<pitch>
					<step>D</step>
					<alter>-1</alter>
					<octave>4</octave>
				</pitch>
				<duration>1</duration>
				<voice>1</voice>
				<type>eighth</type>
				<accidental>flat</accidental>
				<stem>up</stem>
			</note>
			<note default-x="178.61" default-y="-45.00">
				<pitch>
					<step>D</step>
					<alter>-0.5</alter>
					<octave>4</octave>
				</pitch>
				<duration>3</duration>
				<voice>1</voice>
				<type>quarter</type>
				<dot/>
				<accidental>quarter-flat</accidental>
				<stem>up</stem>
			</note>
			<note default-x="235.99" default-y="-20.00">
				<rest/>
				<duration>1</duration>
				<voice>1</voice>
				<type>eighth</type>
			</note>
		</measure>
		<measure number="8" width="210.93">
			<note default-x="13.00" default-y="-55.00">
				<pitch>
					<step>B</step>
					<octave>3</octave>
				</pitch>
				<duration>2</duration>
				<voice>1</voice>
				<type>quarter</type>
				<stem>up</stem>
			</note>
			<note default-x="58.26" default-y="-50.00">
				<pitch>
					<step>C</step>
					<octave>4</octave>
				</pitch>
				<duration>2</duration>
				<voice>1</voice>
				<type>quarter</type>
				<stem>up</stem>
			</note>
			<note default-x="103.52" default-y="-50.00">
				<pitch>
					<step>C</step>
					<octave>4</octave>
				</pitch>
				<duration>1</duration>
				<voice>1</voice>
				<type>eighth</type>
				<stem>up</stem>
				<beam number="1">begin</beam>
			</note>
			<note default-x="133.70" default-y="-40.00">
				<pitch>
					<step>E</step>
					<alter>-1</alter>
					<octave>4</octave>
				</pitch>
				<duration>1</duration>
				<voice>1</voice>
				<type>eighth</type>
				<accidental>flat</accidental>
				<stem>up</stem>
				<beam number="1">end</beam>
			</note>
			<note default-x="163.87" default-y="-45.00">
				<pitch>
					<step>D</step>
					<octave>4</octave>
				</pitch>
				<duration>2</duration>
				<voice>1</voice>
				<type>quarter</type>
				<stem>up</stem>
			</note>
		</measure>
		<measure number="9" width="195.85">
			<note default-x="13.00" default-y="-45.00">
				<pitch>
					<step>D</step>
					<octave>4</octave>
				</pitch>
				<duration>2</duration>
				<voice>1</voice>
				<type>quarter</type>
				<stem>up</stem>
				<notations>
					<articulations>
						<staccato placement="above"/>
					</articulations>
				</notations>
			</note>
			<note default-x="58.26" default-y="-45.00">
				<pitch>
					<step>D</step>
					<alter>-1.5</alter>
					<octave>4</octave>
				</pitch>
				<duration>2</duration>
				<voice>1</voice>
				<type>quarter</type>
				<accidental>three-quarters-flat</accidental>
				<stem>up</stem>
				<notations>
					<articulations>
						<staccato placement="above"/>
					</articulations>
				</notations>
			</note>
			<note default-x="103.52" default-y="-50.00">
				<pitch>
					<step>C</step>
					<octave>4</octave>
				</pitch>
				<duration>2</duration>
				<voice>1</voice>
				<type>quarter</type>
				<stem>up</stem>
				<notations>
					<articulations>
						<staccato placement="above"/>
					</articulations>
				</notations>
			</note>
			<note default-x="148.79" default-y="-50.00">
				<pitch>
					<step>C</step>
					<octave>4</octave>
				</pitch>
				<duration>2</duration>
				<voice>1</voice>
				<type>quarter</type>
				<stem>up</stem>
				<notations>
					<fermata relative-y="5.00" type="upright"/>
					<articulations>
						<staccato placement="above"/>
					</articulations>
				</notations>
			</note>
		</measure>
		<measure number="10" width="255.31">
			<direction>
				<direction-type>
					<words default-y="-40.00" relative-y="-51.39">Te He - ro - a Na - ah - au - ra te - ki - ki - ni</words>
				</direction-type>
			</direction>
			<note default-x="58.60" default-y="-50.00">
				<pitch>
					<step>C</step>
					<octave>4</octave>
				</pitch>
				<duration>2</duration>
				<voice>1</voice>
				<type>quarter</type>
				<stem>up</stem>
			</note>
			<note default-x="107.33" default-y="-45.00">
				<pitch>
					<step>D</step>
					<alter>-1</alter>
					<octave>4</octave>
				</pitch>
				<duration>2</duration>
				<voice>1</voice>
				<type>quarter</type>
				<accidental>flat</accidental>
				<stem>up</stem>
			</note>
			<note default-x="156.05" default-y="-50.00">
				<pitch>
					<step>C</step>
					<octave>4</octave>
				</pitch>
				<duration>2</duration>
				<voice>1</voice>
				<type>quarter</type>
				<stem>up</stem>
			</note>
			<note default-x="204.78" default-y="-45.00">
				<pitch>
					<step>D</step>
					<alter>-1</alter>
					<octave>4</octave>
				</pitch>
				<duration>2</duration>
				<voice>1</voice>
				<type>quarter</type>
				<accidental>flat</accidental>
				<stem>up</stem>
			</note>
		</measure>
		<measure number="11" width="209.72">
			<note default-x="13.00" default-y="-45.00">
				<pitch>
					<step>D</step>
					<octave>4</octave>
				</pitch>
				<duration>2</duration>
				<voice>1</voice>
				<type>quarter</type>
				<stem>up</stem>
			</note>
			<note default-x="61.73" default-y="-45.00">
				<pitch>
					<step>D</step>
					<alter>-1</alter>
					<octave>4</octave>
				</pitch>
				<duration>2</duration>
				<voice>1</voice>
				<type>quarter</type>
				<accidental>flat</accidental>
				<stem>up</stem>
				<notations>
					<articulations>
						<staccato placement="above"/>
					</articulations>
				</notations>
			</note>
			<note default-x="110.46" default-y="-45.00">
				<pitch>
					<step>D</step>
					<alter>-1</alter>
					<octave>4</octave>
				</pitch>
				<duration>2</duration>
				<voice>1</voice>
				<type>quarter</type>
				<accidental>flat</accidental>
				<stem>up</stem>
				<notations>
					<articulations>
						<staccato placement="above"/>
					</articulations>
				</notations>
			</note>
			<note default-x="159.19" default-y="-45.00">
				<pitch>
					<step>D</step>
					<alter>-1</alter>
					<octave>4</octave>
				</pitch>
				<duration>2</duration>
				<voice>1</voice>
				<type>quarter</type>
				<accidental>flat</accidental>
				<stem>up</stem>
				<notations>
					<articulations>
						<staccato placement="above"/>
					</articulations>
				</notations>
			</note>
		</measure>
		<measure number="12" width="209.72">
			<note default-x="13.00" default-y="-45.00">
				<pitch>
					<step>D</step>
					<octave>4</octave>
				</pitch>
				<duration>2</duration>
				<voice>1</voice>
				<type>quarter</type>
				<stem>up</stem>
			</note>
			<note default-x="61.73" default-y="-50.00">
				<pitch>
					<step>C</step>
					<octave>4</octave>
				</pitch>
				<duration>2</duration>
				<voice>1</voice>
				<type>quarter</type>
				<stem>up</stem>
			</note>
			<note default-x="110.46" default-y="-45.00">
				<pitch>
					<step>D</step>
					<alter>-1</alter>
					<octave>4</octave>
				</pitch>
				<duration>2</duration>
				<voice>1</voice>
				<type>quarter</type>
				<accidental>flat</accidental>
				<stem>up</stem>
			</note>
			<note default-x="159.19" default-y="-45.00">
				<pitch>
					<step>D</step>
					<alter>-1</alter>
					<octave>4</octave>
				</pitch>
				<duration>2</duration>
				<voice>1</voice>
				<type>quarter</type>
				<accidental>flat</accidental>
				<stem>up</stem>
			</note>
		</measure>
		<measure number="13" width="250.57">
			<direction>
				<direction-type>
					<words default-y="-40.00" relative-y="-51.39">i - mau - ka ai - au.</words>
				</direction-type>
			</direction>
			<note default-x="58.60" default-y="-50.00">
				<pitch>
					<step>C</step>
					<octave>4</octave>
				</pitch>
				<duration>2</duration>
				<voice>1</voice>
				<type>quarter</type>
				<stem>up</stem>
			</note>
			<note default-x="106.14" default-y="-45.00">
				<pitch>
					<step>D</step>
					<alter>-1</alter>
					<octave>4</octave>
				</pitch>
				<duration>2</duration>
				<voice>1</voice>
				<type>quarter</type>
				<accidental>flat</accidental>
				<stem>up</stem>
				<notations>
					<slur number="1" placement="above" type="start"/>
				</notations>
			</note>
			<note default-x="153.68" default-y="-45.00">
				<pitch>
					<step>D</step>
					<alter>-1</alter>
					<octave>4</octave>
				</pitch>
				<duration>2</duration>
				<voice>1</voice>
				<type>quarter</type>
				<accidental>flat</accidental>
				<stem>up</stem>
				<notations>
					<slur number="1" type="stop"/>
				</notations>
			</note>
			<note default-x="201.23" default-y="-45.00">
				<pitch>
					<step>D</step>
					<alter>-1</alter>
					<octave>4</octave>
				</pitch>
				<duration>2</duration>
				<voice>1</voice>
				<type>quarter</type>
				<stem>up</stem>
			</note>
		</measure>
		<measure number="14" width="264.92">
			<attributes>
				<time>
					<beats>6</beats>
					<beat-type>4</beat-type>
				</time>
			</attributes>
			<note default-x="43.68" default-y="-45.00">
				<pitch>
					<step>D</step>
					<alter>1</alter>
					<octave>4</octave>
				</pitch>
				<duration>4</duration>
				<voice>1</voice>
				<type>half</type>
				<accidental>sharp</accidental>
				<stem>up</stem>
			</note>
			<direction placement="above">
				<direction-type>
					<wedge default-y="23.29" number="1" relative-x="3.63" type="diminuendo"/>
				</direction-type>
			</direction>
			<note default-x="114.99" default-y="-45.00">
				<pitch>
					<step>D</step>
					<alter>1</alter>
					<octave>4</octave>
				</pitch>
				<duration>4</duration>
				<voice>1</voice>
				<type>half</type>
				<stem>up</stem>
			</note>
			<note default-x="186.31" default-y="-80.00">
				<pitch>
					<step>D</step>
					<octave>3</octave>
				</pitch>
				<duration>4</duration>
				<voice>1</voice>
				<type>half</type>
				<stem>up</stem>
			</note>
			<direction placement="above">
				<direction-type>
					<wedge number="1" relative-x="-41.09" type="stop"/>
				</direction-type>
			</direction>
			<barline location="right">
				<bar-style>light-light</bar-style>
			</barline>
		</measure>
		<measure number="15" width="159.25">
			<note default-x="67.80" default-y="-10.00">
				<rest measure="yes"/>
				<duration>12</duration>
				<voice>1</voice>
			</note>
			<barline location="right">
				<bar-style>light-heavy</bar-style>
			</barline>
		</measure>
	</part>
</score-partwise>
